<svg width="238" height="267" viewBox="0 0 238 267" fill="none" xmlns="http://www.w3.org/2000/svg">
<g clip-path="url(#clip0_165_292)">
<path d="M125.729 98.6541C121.049 90.7512 117.885 79.9083 116.83 68.1306C115.774 56.3495 116.952 45.1195 120.15 36.5086C123.074 28.6406 127.44 23.8835 132.13 23.4615C136.657 23.0255 141.507 26.6003 145.658 33.2093C144.145 31.9259 142.574 31.2563 141.006 31.3958C133.995 32.027 129.691 47.8851 131.392 66.8193C133.092 85.7535 140.152 100.59 147.159 99.9619C148.727 99.8224 150.153 98.8808 151.414 97.3497C148.501 104.59 144.319 108.949 139.842 109.354C135.113 109.8 130.005 105.873 125.726 98.6541H125.729Z" fill="#F5ECE4"/>
<path d="M140.167 160.328C136.014 159.17 131.7 158.553 127.334 158.553C127.065 158.553 126.797 158.553 126.529 158.56C118.546 158.693 110.841 160.806 104.005 164.622C103.792 164.158 103.443 163.75 102.966 163.474L6.43637 107.54L76.9921 21.0337C84.5536 11.7601 95.7356 5.99514 107.67 5.21392C121.159 4.30017 134.414 9.90474 143.223 20.1199L218.797 107.721L141.059 159.282C140.655 159.551 140.359 159.917 140.167 160.328ZM119.047 149.109C128.404 149.109 135.735 137.3 135.735 122.223C135.735 120.807 134.589 119.659 133.174 119.659C131.759 119.659 130.613 120.807 130.613 122.223C130.613 134.018 125.316 143.982 119.047 143.982C112.779 143.982 107.482 134.018 107.482 122.223C107.482 120.807 106.336 119.659 104.921 119.659C103.506 119.659 102.36 120.807 102.36 122.223C102.36 137.3 109.688 149.109 119.047 149.109ZM156.625 98.0921C160.085 88.7802 161.371 76.7515 160.246 64.2241C159.12 51.6966 155.716 40.0934 150.653 31.5453C145.251 22.4252 138.547 17.7379 131.672 18.3552C124.835 18.969 119.04 24.7828 115.35 34.7225C113.81 38.8657 112.73 43.567 112.071 48.5892C110.465 43.2392 108.406 38.3566 105.945 34.2028C100.541 25.0828 93.8435 20.4059 86.9649 21.0127C80.1282 21.6266 74.3334 27.4404 70.6432 37.38C67.183 46.6919 65.8972 58.7206 67.0227 71.2481C68.1482 83.7755 71.5527 95.3788 76.6157 103.927C81.7032 112.517 87.9755 117.173 94.401 117.173C94.7983 117.173 95.1955 117.155 95.5962 117.12C102.433 116.507 108.228 110.693 111.918 100.753C113.458 96.6099 114.538 91.9086 115.197 86.8865C116.803 92.2365 118.863 97.1226 121.323 101.273C126.41 109.863 132.683 114.519 139.108 114.519C139.505 114.519 139.903 114.501 140.303 114.466C147.14 113.853 152.935 108.039 156.625 98.0991V98.0921Z" fill="#F5ECE4"/>
<path d="M145.785 162.299L220.522 112.729C224.574 152.335 229.798 205.133 231.969 230.98L157.908 169.577C154.231 166.529 150.13 164.112 145.788 162.299H145.785Z" fill="#F5ECE4"/>
<path d="M95.1382 112.007C90.4097 112.457 85.3013 108.53 81.0222 101.307C76.3424 93.4046 73.1784 82.5651 72.1226 70.784C71.0668 59.0029 72.2446 47.7728 75.4434 39.1585C78.367 31.2904 82.7332 26.5334 87.4234 26.1114C91.9499 25.6789 96.8004 29.2502 100.951 35.8592C99.4382 34.5758 97.8667 33.9061 96.2986 34.0456C89.2876 34.6769 84.9842 50.535 86.6847 69.4692C88.3851 88.4033 95.4449 103.24 102.452 102.612C104.02 102.472 105.446 101.531 106.707 99.9996C103.794 107.24 99.6124 111.599 95.1348 112.004L95.1382 112.007Z" fill="#F5ECE4"/>
<path d="M126.618 163.683C136.81 163.435 146.776 167.007 154.637 173.525L232.542 238.112C232.748 240.86 232.894 243.043 232.953 244.484C211.129 246.105 52.5148 258.542 12.5712 261.674L12.3621 257.381L97.7307 175.572C105.543 168.084 115.802 163.864 126.618 163.683Z" fill="#F5ECE4"/>
<path d="M94.1897 171.873L12.0339 250.602L5.34 112.824L99.5664 167.423C97.6813 168.765 95.8832 170.248 94.1897 171.869V171.873Z" fill="#F5ECE4"/>
<path d="M0.0534058 107.784C0.0638733 107.732 0.070816 107.68 0.0812683 107.631C0.130066 107.432 0.196289 107.24 0.293854 107.055C0.297333 107.045 0.307785 107.038 0.311264 107.028C0.387924 106.892 0.471558 106.755 0.572617 106.63L73.0274 17.7939C81.4845 7.42523 93.9941 0.973173 107.343 0.101274C122.397 -0.871766 137.255 5.35011 147.109 16.772L224.579 106.574C224.613 106.612 224.634 106.661 224.669 106.7C224.707 106.752 224.742 106.801 224.777 106.853C224.861 106.982 224.93 107.111 224.986 107.247C225.007 107.293 225.028 107.338 225.045 107.387C225.112 107.579 225.16 107.774 225.181 107.969C225.181 107.976 225.181 107.98 225.185 107.983C225.22 108.328 228.746 142.688 232.07 176.776C238.911 246.863 238.458 247.365 237.367 248.579C236.907 249.084 236.21 249.402 235.531 249.433C232.147 249.59 12.563 266.819 10.3468 266.99C10.2806 266.993 10.2144 266.997 10.1482 266.997C9.52797 266.997 8.92514 266.77 8.45471 266.358C7.93552 265.898 7.62192 265.249 7.59055 264.559L0.00112915 108.374C0.00112915 108.339 0.0115967 108.307 0.0115967 108.273C0.0115967 108.109 0.0255432 107.948 0.0534058 107.784ZM143.231 20.1201C134.422 9.9084 121.167 4.30034 107.678 5.21409C95.7399 5.99531 84.5613 11.7603 76.9998 21.0338L6.4476 107.54L102.977 163.474C103.455 163.75 103.803 164.158 104.016 164.622C110.852 160.803 118.557 158.693 126.54 158.56C126.808 158.56 127.077 158.553 127.345 158.553C131.711 158.553 136.025 159.171 140.179 160.328C140.37 159.92 140.666 159.551 141.071 159.282L218.801 107.722L143.231 20.1201ZM220.526 112.73L145.792 162.299C150.134 164.113 154.235 166.529 157.912 169.578L231.973 230.98C229.798 205.134 224.579 152.331 220.526 112.73ZM232.959 244.484C232.896 243.044 232.753 240.861 232.548 238.112L154.643 173.526C146.782 167.007 136.813 163.436 126.624 163.684C115.808 163.865 105.552 168.085 97.7365 175.573L12.3679 257.381L12.577 261.675C52.5207 258.543 211.135 246.102 232.959 244.484ZM12.0369 250.601L94.1927 171.872C95.8862 170.251 97.6842 168.768 99.5694 167.426L5.343 112.827L12.0369 250.605V250.601Z" fill="black"/>
<path d="M156.628 98.0919C152.938 108.032 147.14 113.845 140.307 114.459C139.906 114.494 139.509 114.512 139.111 114.512C132.689 114.512 126.414 109.856 121.326 101.266C118.866 97.1154 116.807 92.2293 115.2 86.8793C114.542 91.9014 113.461 96.6027 111.921 100.746C108.231 110.686 102.433 116.499 95.5996 117.113C95.1988 117.148 94.8016 117.166 94.4044 117.166C87.9823 117.166 81.7066 112.51 76.6191 103.92C71.556 95.3716 68.1516 83.7683 67.026 71.2409C65.904 58.7135 67.1863 46.6882 70.6465 37.3728C74.3367 27.4332 80.135 21.6194 86.9683 21.0055C93.8468 20.3987 100.544 25.0756 105.949 34.1956C108.409 38.3459 110.468 43.232 112.075 48.582C112.733 43.5598 113.813 38.8586 115.354 34.7153C119.044 24.7756 124.842 18.9618 131.675 18.348C138.55 17.7307 145.255 22.418 150.656 31.5381C155.719 40.0862 159.123 51.6894 160.249 64.2169C161.371 76.7443 160.089 88.773 156.628 98.0849V98.0919ZM87.4282 26.1149C82.738 26.5369 78.3683 31.294 75.4483 39.162C72.2494 47.7729 71.0716 59.0029 72.1275 70.7875C73.1833 82.5686 76.3438 93.4081 81.0271 101.311C85.3061 108.534 90.4145 112.461 95.1431 112.011C99.6208 111.606 103.802 107.247 106.715 100.007C105.454 101.538 104.029 102.479 102.461 102.619C95.4497 103.25 88.39 88.4103 86.693 69.4762C84.9925 50.542 89.296 34.6839 96.3069 34.0526C97.875 33.9131 99.4465 34.5828 100.959 35.8662C96.8087 29.2572 91.9582 25.6859 87.4317 26.1184L87.4282 26.1149ZM132.132 23.4608C127.442 23.8828 123.072 28.6399 120.152 36.5079C116.953 45.1188 115.775 56.3489 116.831 68.13C117.887 79.9111 121.047 90.7505 125.731 98.6534C130.01 105.873 135.118 109.8 139.847 109.353C144.324 108.949 148.506 104.589 151.419 97.3491C150.158 98.8801 148.732 99.8218 147.164 99.9613C140.153 100.593 133.094 85.7528 131.397 66.8186C129.696 47.8845 134 32.0264 141.011 31.3951C142.579 31.2556 144.15 31.9252 145.662 33.2086C141.512 26.5997 136.658 23.0249 132.135 23.4608H132.132Z" fill="black"/>
<path d="M104.924 119.663C106.339 119.663 107.485 120.811 107.485 122.226C107.485 134.022 112.782 143.986 119.051 143.986C125.319 143.986 130.616 134.022 130.616 122.226C130.616 120.811 131.762 119.663 133.177 119.663C134.592 119.663 135.738 120.811 135.738 122.226C135.738 137.303 128.407 149.112 119.051 149.112C109.695 149.112 102.363 137.303 102.363 122.226C102.363 120.811 103.509 119.663 104.924 119.663Z" fill="black"/>
</g>
<defs>
<clipPath id="clip0_165_292">
<rect width="238" height="267" fill="white" transform="matrix(-1 0 0 1 238 0)"/>
</clipPath>
</defs>
</svg>
