<svg width="700" height="400" viewBox="0 0 700 400" fill="none" xmlns="http://www.w3.org/2000/svg">
<path d="M179.254 76.4C178.454 78.133 177.387 79.6 176.054 80.8C174.721 81.867 173.587 83.133 172.654 84.6C171.587 84.867 170.521 85.333 169.454 86C168.521 86.667 167.654 87.333 166.854 88C165.521 88.8 164.321 88.8 163.254 88C162.721 87.733 162.254 87.467 161.854 87.2C161.587 86.8 161.187 86.467 160.654 86.2C159.587 85.267 158.187 84.933 156.454 85.2C156.321 85.333 156.121 85.267 155.854 85V83C155.721 82.867 155.521 82.667 155.254 82.4C155.121 82.133 154.921 82 154.654 82C151.987 80.933 149.454 80.867 147.054 81.8C146.254 81.933 145.454 82.133 144.654 82.4C143.854 82.667 143.054 82.933 142.254 83.2C141.721 84 141.187 84.8 140.654 85.6C140.254 86.4 139.787 87.133 139.254 87.8C139.387 88.867 139.454 89.933 139.454 91C139.587 92.067 139.721 93.133 139.854 94.2C140.521 95 141.121 95.867 141.654 96.8C142.321 97.6 142.921 98.467 143.454 99.4C144.654 100.333 145.921 101.267 147.254 102.2C148.587 103 149.854 103.933 151.054 105C151.854 105.533 152.654 106 153.454 106.4C154.387 106.667 155.187 107.133 155.854 107.8C156.521 108.467 157.121 109.067 157.654 109.6C158.321 110 158.921 110.533 159.454 111.2C159.854 111.333 160.254 111.533 160.654 111.8C161.054 112.067 161.454 112.333 161.854 112.6C164.121 114.067 165.854 116.067 167.054 118.6C167.721 119.667 168.387 120.8 169.054 122C169.854 123.2 170.587 124.333 171.254 125.4C172.187 126.2 172.787 127.133 173.054 128.2C173.454 129.267 173.854 130.333 174.254 131.4C174.387 131.533 174.454 131.8 174.454 132.2C174.721 133.8 175.121 135.333 175.654 136.8C176.321 138.267 176.987 139.733 177.654 141.2C178.054 142.933 178.254 144.667 178.254 146.4C178.387 148 178.321 149.6 178.054 151.2C178.054 152.533 177.854 153.867 177.454 155.2C177.187 156.4 176.787 157.533 176.254 158.6C176.121 158.733 176.054 158.867 176.054 159C176.054 159.133 175.921 159.333 175.654 159.6C174.454 160.8 173.454 162.133 172.654 163.6C171.987 165.067 171.187 166.533 170.254 168C170.121 168.133 170.054 168.333 170.054 168.6C170.054 168.733 169.921 168.867 169.654 169C168.321 169.933 167.187 170.933 166.254 172C165.454 173.067 164.521 174.133 163.454 175.2C162.921 175.733 162.254 176.2 161.454 176.6C160.654 177 159.921 177.467 159.254 178L155.054 180C153.721 180.133 152.321 180.333 150.854 180.6C149.521 180.867 148.121 181.333 146.654 182C145.721 182.533 144.654 182.933 143.454 183.2C142.387 183.467 141.321 183.733 140.254 184C139.721 184.133 139.187 184.267 138.654 184.4C138.121 184.533 137.587 184.667 137.054 184.8C135.321 183.467 133.387 182.8 131.254 182.8C129.787 182.8 128.521 182.533 127.454 182C125.854 181.333 124.321 180.6 122.854 179.8C121.387 179.133 120.054 178.2 118.854 177C118.054 176.333 117.254 175.733 116.454 175.2C115.654 174.667 114.921 174.133 114.254 173.6C113.721 173.067 113.054 172.733 112.254 172.6C111.587 172.333 110.921 172.067 110.254 171.8C109.321 171.133 108.787 170.4 108.654 169.6C108.787 168.533 109.187 167.533 109.854 166.6C110.654 165.667 111.321 164.667 111.854 163.6C111.854 162.8 112.054 161.8 112.454 160.6C113.654 159 114.921 157.4 116.254 155.8C117.587 154.067 118.921 152.333 120.254 150.6C120.787 150.2 121.387 149.8 122.054 149.4C122.721 148.867 123.454 148.333 124.254 147.8C126.921 148.467 129.454 149.2 131.854 150C134.254 150.8 136.721 151.533 139.254 152.2C139.787 152.067 140.187 151.933 140.454 151.8C140.721 151.533 140.921 151.333 141.054 151.2C141.454 151.067 141.787 150.933 142.054 150.8C142.321 150.667 142.521 150.533 142.654 150.4H146.254C146.387 150.133 146.521 149.933 146.654 149.8C146.921 149.533 147.121 149.267 147.254 149C147.787 147.667 148.321 146.4 148.854 145.2C149.387 144 149.721 142.667 149.854 141.2C149.587 140.133 149.254 139 148.854 137.8C148.587 136.6 147.987 135.4 147.054 134.2C146.521 133.8 145.921 133.333 145.254 132.8C144.587 132.267 143.921 131.733 143.254 131.2C140.987 130.933 138.654 130.333 136.254 129.4C133.987 128.467 131.721 128 129.454 128C128.521 127.733 127.787 127.333 127.254 126.8C126.721 126.133 126.121 125.533 125.454 125C124.521 124.733 123.521 124.533 122.454 124.4C121.387 124.267 120.521 123.733 119.854 122.8C117.721 121.6 115.921 120.733 114.454 120.2C113.787 119.4 113.121 118.6 112.454 117.8C111.921 117 111.321 116.267 110.654 115.6C110.121 114.933 109.587 114.133 109.054 113.2C108.654 112.133 108.121 111.133 107.454 110.2C106.921 109.533 106.454 108.8 106.054 108C105.654 107.067 105.254 106.133 104.854 105.2C104.454 103.333 104.054 101.333 103.654 99.2C103.921 97.733 104.121 96.267 104.254 94.8C104.521 93.2 104.721 91.6 104.854 90L104.054 88C104.587 87.733 104.987 87.333 105.254 86.8C105.521 86.267 105.787 85.733 106.054 85.2C106.321 84.4 106.654 83.733 107.054 83.2C107.454 82.667 107.587 81.933 107.454 81C107.454 78.467 108.121 76.133 109.454 74C109.721 73.467 109.921 73 110.054 72.6C110.321 72.2 110.521 71.8 110.654 71.4C111.321 71 111.854 70.6 112.254 70.2C112.787 69.667 113.121 69.333 113.254 69.2C113.921 68.533 114.187 67.933 114.054 67.4C113.921 66.733 113.921 66.133 114.054 65.6C114.587 64.8 115.187 64 115.854 63.2C116.521 62.4 117.254 61.533 118.054 60.6C118.987 59.933 119.987 59.4 121.054 59C122.121 58.467 123.121 57.733 124.054 56.8C124.321 56.4 124.654 56.133 125.054 56C125.454 55.733 125.921 55.533 126.454 55.4C127.121 55 127.854 54.667 128.654 54.4C129.454 54.133 130.254 53.8 131.054 53.4C132.387 53.133 133.721 52.933 135.054 52.8C136.521 52.667 137.921 52.533 139.254 52.4C139.387 52.4 139.521 52.4 139.654 52.4C139.921 52.267 140.187 52.267 140.454 52.4C141.921 52.933 143.387 52.933 144.854 52.4C146.454 51.867 148.054 51.667 149.654 51.8C151.121 51.8 152.521 52 153.854 52.4C155.321 52.8 156.721 53.133 158.054 53.4C159.521 54.467 160.987 55.467 162.454 56.4C163.921 57.2 165.521 57.867 167.254 58.4C167.787 58.933 168.254 59.533 168.654 60.2C169.187 60.733 169.721 61.333 170.254 62C170.787 62.533 171.321 63 171.854 63.4C172.387 63.8 172.854 64.267 173.254 64.8C174.321 66.8 175.321 68.8 176.254 70.8C177.321 72.667 178.321 74.533 179.254 76.4ZM310.484 73C309.684 75.533 309.35 77.933 309.484 80.2C309.617 80.867 309.617 81.6 309.484 82.4C309.35 83.067 309.217 83.733 309.084 84.4C308.95 84.933 308.884 85.6 308.884 86.4C309.017 87.2 308.95 87.867 308.684 88.4C308.417 89.333 308.417 90.267 308.684 91.2C308.95 92 309.15 92.8 309.284 93.6C309.017 94.533 308.75 95.6 308.484 96.8C308.217 97.867 308.15 99.067 308.284 100.4C308.284 102 308.084 103.6 307.684 105.2C307.55 106.133 307.55 107.067 307.684 108C308.217 109.733 308.417 111.4 308.284 113C308.15 114.6 307.817 116.2 307.284 117.8C306.75 118.733 306.484 119.667 306.484 120.6C306.617 122.067 306.417 123.467 305.884 124.8C305.35 126.133 304.75 127.467 304.084 128.8C303.95 129.2 303.684 129.533 303.284 129.8C302.884 130.067 302.55 130.4 302.284 130.8C301.35 133.867 300.617 136.067 300.084 137.4C299.55 138.6 298.55 140.533 297.084 143.2C296.95 143.467 296.684 143.8 296.284 144.2C295.884 144.6 295.55 144.933 295.284 145.2C295.15 145.467 294.95 145.667 294.684 145.8C294.55 145.933 294.484 146.067 294.484 146.2C293.95 147.933 293.15 149.4 292.084 150.6C291.017 151.8 289.95 152.933 288.884 154C288.35 154.533 287.884 155.133 287.484 155.8C287.217 156.333 286.817 156.933 286.284 157.6C284.95 158.533 283.684 159.467 282.484 160.4C281.284 161.333 280.017 162.267 278.684 163.2C277.884 163.733 277.084 164.2 276.284 164.6C275.35 164.867 274.417 165.267 273.484 165.8C272.55 166.2 271.617 166.533 270.684 166.8C269.75 167.333 268.817 167.8 267.884 168.2C266.95 168.467 266.017 168.867 265.084 169.4H260.484C259.817 169.667 259.084 170 258.284 170.4C257.617 170.667 256.884 170.733 256.084 170.6C255.284 170.467 254.484 170.667 253.684 171.2C253.017 171.6 252.284 171.867 251.484 172C251.084 171.867 250.617 171.733 250.084 171.6C249.55 171.467 249.017 171.4 248.484 171.4C247.95 171.8 247.417 172.2 246.884 172.6C246.484 172.867 246.017 173.2 245.484 173.6C245.35 173.6 245.15 173.667 244.884 173.8C244.75 173.8 244.55 173.8 244.284 173.8C243.75 173.8 243.15 173.867 242.484 174C241.95 174 241.417 173.933 240.884 173.8C239.95 173.267 239.084 173.067 238.284 173.2C237.484 173.333 236.617 173.2 235.684 172.8C234.617 172.533 234.084 171.933 234.084 171C234.084 169.8 233.417 169.067 232.084 168.8C231.684 168.8 231.284 168.867 230.884 169C230.617 169 230.284 169 229.884 169C229.35 168.867 228.884 168.6 228.484 168.2C228.084 167.8 227.617 167.467 227.084 167.2C226.417 166.667 225.684 166.2 224.884 165.8C224.084 165.267 223.217 164.933 222.284 164.8C221.484 164.667 220.684 164.467 219.884 164.2C219.217 163.8 218.55 163.533 217.884 163.4C216.417 162.867 215.35 161.667 214.684 159.8C214.284 158.067 213.55 156.667 212.484 155.6C212.084 155.067 211.75 154.6 211.484 154.2C211.217 153.667 210.95 153.133 210.684 152.6C210.417 152.333 210.15 151.933 209.884 151.4C209.617 150.867 209.35 150.533 209.084 150.4C207.75 149.6 206.684 148.6 205.884 147.4C205.217 146.2 204.617 144.933 204.084 143.6C203.95 143.467 203.817 143.267 203.684 143C203.684 142.733 203.617 142.533 203.484 142.4C202.55 141.867 202.084 141.067 202.084 140C202.084 138.933 201.95 137.933 201.684 137C201.417 136.733 201.084 136.4 200.684 136C200.284 135.6 199.884 135.133 199.484 134.6C199.217 133.533 198.884 132.467 198.484 131.4C198.084 130.333 197.75 129.2 197.484 128C197.484 125.867 197.417 124.333 197.284 123.4C197.284 122.333 197.217 121.333 197.084 120.4C196.95 119.333 196.617 117.867 196.084 116C196.084 114.933 196.284 113.867 196.684 112.8C197.217 111.733 197.35 110.467 197.084 109C196.684 108.333 196.284 107.533 195.884 106.6C195.617 105.667 195.217 104.733 194.684 103.8C194.684 103.533 194.617 103.2 194.484 102.8C194.484 102.4 194.484 102.067 194.484 101.8C194.617 100.733 194.684 99.733 194.684 98.8C194.684 97.867 194.684 96.933 194.684 96C194.684 94.933 194.817 93.867 195.084 92.8C195.35 91.6 195.55 90.533 195.684 89.6C195.95 88.133 196.15 86.733 196.284 85.4C196.55 83.933 196.817 82.467 197.084 81C197.35 78.867 197.817 76.733 198.484 74.6C199.15 72.467 199.884 70.333 200.684 68.2C202.15 67.267 203.484 66.4 204.684 65.6C206.017 64.8 207.35 63.933 208.684 63H217.284L219.484 63.8C220.15 63.933 220.817 63.933 221.484 63.8C222.15 63.533 222.817 63.333 223.484 63.2C224.15 63.6 224.884 64.067 225.684 64.6C226.617 65 227.55 65.533 228.484 66.2C228.484 66.467 228.55 66.8 228.684 67.2C228.95 67.6 229.084 67.933 229.084 68.2C229.084 69.133 229.017 70.133 228.884 71.2C228.884 72.267 228.684 73.333 228.284 74.4C228.017 75.6 228.017 76.867 228.284 78.2C228.417 78.6 228.484 79.267 228.484 80.2C228.35 81.267 228.15 82.4 227.884 83.6C227.617 84.8 227.284 85.933 226.884 87C226.75 87.533 226.684 88.067 226.684 88.6C226.684 89 226.75 89.4 226.884 89.8C227.284 90.867 227.284 91.867 226.884 92.8C226.617 93.733 226.617 94.667 226.884 95.6C227.684 97.2 227.95 99.067 227.684 101.2C227.684 102.267 227.884 103.133 228.284 103.8C228.95 105 229.284 106.2 229.284 107.4C229.417 108.467 229.417 109.6 229.284 110.8C229.017 111.867 228.95 112.933 229.084 114C229.35 115.067 229.684 116.067 230.084 117C230.617 117.8 231.017 118.6 231.284 119.4C231.55 120.067 231.95 120.867 232.484 121.8C233.15 122.467 233.884 123.2 234.684 124C235.484 124.8 236.15 125.733 236.684 126.8C236.817 127.467 237.35 128.267 238.284 129.2C238.284 129.2 238.484 129.333 238.884 129.6C239.55 129.733 240.217 129.8 240.884 129.8C241.684 129.8 242.417 129.8 243.084 129.8C243.75 130.333 244.35 130.8 244.884 131.2C245.417 131.6 245.95 132 246.484 132.4C247.284 132 248.017 131.6 248.684 131.2C249.35 130.8 250.017 130.333 250.684 129.8L253.484 129.2C253.617 129.2 253.75 129.2 253.884 129.2C254.15 129.067 254.35 129.067 254.484 129.2C258.217 130.4 261.084 129.133 263.084 125.4C263.35 124.6 263.75 123.8 264.284 123C264.817 122.2 265.217 121.333 265.484 120.4C265.75 119.733 266.084 119.133 266.484 118.6C266.884 118.067 267.284 117.533 267.684 117V114.2C268.084 113.933 268.484 113.6 268.884 113.2C269.417 112.667 269.95 112.267 270.484 112C270.75 111.333 270.95 110.667 271.084 110C271.35 109.333 271.684 108.667 272.084 108C272.35 107.467 272.55 107 272.684 106.6C272.95 106.067 273.284 105.533 273.684 105C273.55 104.333 273.417 103.8 273.284 103.4C273.15 103 273.017 102.533 272.884 102C273.817 99.867 274.35 97.8 274.484 95.8C274.617 95.133 274.617 94.467 274.484 93.8C274.484 93 274.417 92.2 274.284 91.4C274.55 90.733 274.75 90.133 274.884 89.6C275.15 88.933 275.35 88.333 275.484 87.8C275.484 86.733 275.35 85.733 275.084 84.8C274.95 83.733 275.017 82.733 275.284 81.8C275.55 80.867 275.617 80.2 275.484 79.8C274.95 77.667 274.817 75.6 275.084 73.6C275.35 71.6 275.75 69.733 276.284 68C276.15 67.333 276.017 66.667 275.884 66C275.884 65.333 275.884 64.667 275.884 64C276.15 63.733 276.417 63.533 276.684 63.4C276.95 63.267 277.15 63 277.284 62.6C277.95 62.867 278.484 63.133 278.884 63.4C279.417 63.533 279.95 63.667 280.484 63.8C282.35 64.467 284.217 65 286.084 65.4C287.95 65.8 289.884 65.733 291.884 65.2C294.15 65.333 296.417 65.467 298.684 65.6C301.084 65.6 303.417 65.933 305.684 66.6C307.55 67.133 308.684 68.133 309.084 69.6L310.484 73ZM410.724 83.8C410.724 84.467 410.658 84.867 410.524 85C408.924 87.933 407.391 90.2 405.924 91.8C404.591 93.4 403.124 95.6 401.524 98.4C400.858 99.333 399.858 101 398.524 103.4C397.191 105.667 396.391 107.333 396.124 108.4C394.124 110.933 392.524 113.467 391.324 116C390.258 118.533 388.858 121.067 387.124 123.6C386.724 124.4 386.258 124.933 385.724 125.2C384.524 126 383.524 127 382.724 128.2C381.924 129.267 381.191 130.333 380.524 131.4C379.591 132.867 378.524 134.267 377.324 135.6C376.124 136.8 374.791 137.867 373.324 138.8C371.858 140.933 370.924 143 370.524 145C370.658 145.667 370.858 146.2 371.124 146.6C371.524 147 371.991 147.333 372.524 147.6C373.724 147.867 374.924 148.067 376.124 148.2C377.458 148.2 378.791 148.2 380.124 148.2C380.391 147.933 380.658 147.733 380.924 147.6C381.324 147.333 381.724 147.067 382.124 146.8C382.791 146.267 383.658 146.133 384.724 146.4C386.991 147.2 389.258 147.667 391.524 147.8C393.924 147.8 396.324 147.733 398.724 147.6C400.058 147.6 401.324 147.667 402.524 147.8C403.858 147.8 405.058 147.867 406.124 148C406.791 148.533 407.458 149 408.124 149.4C408.924 149.667 409.591 150.067 410.124 150.6C410.391 151.133 410.524 151.6 410.524 152C410.258 153.733 410.058 155.533 409.924 157.4C409.791 159.267 409.591 161.2 409.324 163.2C409.324 163.467 409.324 163.8 409.324 164.2C409.324 164.467 409.258 164.933 409.124 165.6C408.858 166.533 408.458 167.533 407.924 168.6C407.391 169.667 406.858 170.733 406.324 171.8C405.124 172.333 403.858 172.733 402.524 173C401.191 173.267 399.791 173.267 398.324 173C397.391 173.4 396.391 173.867 395.324 174.4C394.391 174.8 393.258 175 391.924 175C390.458 175 388.924 175.2 387.324 175.6C385.724 176 384.191 176.533 382.724 177.2C380.191 178.133 377.924 177.933 375.924 176.6C375.658 176.467 375.324 176.4 374.924 176.4C374.258 176.533 373.524 176.667 372.724 176.8C371.924 176.8 371.191 176.933 370.524 177.2C367.858 178 365.391 178.067 363.124 177.4C362.458 177.133 361.791 177.133 361.124 177.4C360.191 177.8 359.324 177.933 358.524 177.8C357.724 177.667 356.791 177.533 355.724 177.4C355.191 177.667 354.658 177.867 354.124 178C353.591 178.133 352.991 178.333 352.324 178.6C351.924 178.333 351.458 178 350.924 177.6C350.524 177.333 349.991 177.133 349.324 177C348.258 177 346.991 177.2 345.524 177.6C344.991 177.333 344.458 177.133 343.924 177C343.524 176.733 342.991 176.533 342.324 176.4C340.591 176.533 338.858 176.6 337.124 176.6C335.391 176.6 333.591 176.333 331.724 175.8C331.591 175.533 331.391 175.267 331.124 175C330.991 174.6 330.858 174.267 330.724 174C330.591 173.333 330.391 172.6 330.124 171.8C329.991 171 329.591 170.267 328.924 169.6C328.791 166.667 328.591 163.733 328.324 160.8C328.191 157.867 328.124 154.933 328.124 152C328.124 151.333 328.124 150.733 328.124 150.2C328.258 149.533 328.391 148.933 328.524 148.4C328.658 147.733 328.858 147.067 329.124 146.4C329.524 145.6 330.124 145.067 330.924 144.8C332.524 143.733 333.858 142.533 334.924 141.2C335.724 139.867 336.591 138.6 337.524 137.4C338.591 136.2 339.524 134.933 340.324 133.6C341.924 131.333 343.324 129.067 344.524 126.8C345.858 124.4 346.991 121.867 347.924 119.2C348.458 118.8 348.991 118.333 349.524 117.8C350.058 117.267 350.591 116.733 351.124 116.2C351.791 115.933 352.391 115.733 352.924 115.6C353.591 115.467 354.191 115.333 354.724 115.2C354.991 114.933 355.191 114.733 355.324 114.6C355.591 114.333 355.858 114.067 356.124 113.8C357.058 111.933 357.991 110.2 358.924 108.6C359.991 106.867 360.924 105.133 361.724 103.4C361.991 102.733 362.391 102.067 362.924 101.4C363.591 100.733 364.124 100.067 364.524 99.4L366.324 93V91C366.191 90.733 365.858 90.2 365.324 89.4C364.524 89.4 363.658 89.467 362.724 89.6C361.924 89.6 361.124 89.6 360.324 89.6C359.391 89.6 358.524 89.667 357.724 89.8C356.924 89.8 356.058 89.8 355.124 89.8C354.324 89.8 353.458 89.533 352.524 89C351.724 88.467 350.924 88.333 350.124 88.6C349.991 88.733 349.791 88.867 349.524 89C349.258 89 349.058 89 348.924 89C347.591 88.467 346.324 88.133 345.124 88C343.924 87.867 342.724 87.533 341.524 87C339.791 86.333 337.924 85.933 335.924 85.8C334.058 85.667 332.124 85.533 330.124 85.4C329.591 85.267 329.058 85.067 328.524 84.8C327.991 84.533 327.458 84.267 326.924 84C326.391 82.933 326.124 82 326.124 81.2C326.258 80.4 326.391 79.6 326.524 78.8C327.324 77.467 327.591 75.933 327.324 74.2C327.324 73 327.324 71.867 327.324 70.8C327.324 69.6 327.391 68.533 327.524 67.6C327.791 66.4 327.991 65.267 328.124 64.2C328.391 63.133 328.591 61.933 328.724 60.6C328.991 59.667 329.191 58.8 329.324 58C329.591 57.2 329.858 56.333 330.124 55.4C330.391 55.533 330.724 55.667 331.124 55.8C331.524 55.933 331.858 56.133 332.124 56.4C332.391 56.4 332.658 56.467 332.924 56.6C333.191 56.6 333.391 56.533 333.524 56.4C335.258 55.867 336.991 55.6 338.724 55.6C340.591 55.467 342.391 55.467 344.124 55.6C345.058 55.733 345.924 55.8 346.724 55.8C347.658 55.667 348.591 55.6 349.524 55.6C350.591 55.6 351.458 55.6 352.124 55.6C352.924 55.6 353.791 55.267 354.724 54.6C354.858 54.467 355.124 54.533 355.524 54.8C355.924 54.933 356.191 54.933 356.324 54.8C357.258 55.2 357.924 55.533 358.324 55.8C358.858 55.933 359.791 56.067 361.124 56.2C363.258 56.867 365.324 56.8 367.324 56C367.591 55.867 367.858 55.8 368.124 55.8C368.391 55.8 368.591 55.733 368.724 55.6H376.324C376.991 55.867 377.524 56.2 377.924 56.6C378.458 57 378.991 57.333 379.524 57.6C380.991 58.133 382.391 58.333 383.724 58.2C385.058 58.067 386.324 58.333 387.524 59C388.058 58.867 388.524 58.8 388.924 58.8C389.324 58.667 389.724 58.533 390.124 58.4C390.391 58.533 390.591 58.6 390.724 58.6C390.991 58.467 391.258 58.467 391.524 58.6C392.324 58.733 393.058 58.933 393.724 59.2C394.524 59.333 395.324 59.4 396.124 59.4C397.858 59.533 399.524 59.667 401.124 59.8C402.858 59.933 404.524 60 406.124 60C406.524 60.533 406.858 61.067 407.124 61.6C407.524 62 407.924 62.467 408.324 63C408.591 63.267 408.924 63.533 409.324 63.8C409.724 64.067 409.991 64.333 410.124 64.6C410.791 68.467 411.124 71.467 411.124 73.6C411.124 75.6 410.791 77.933 410.124 80.6C410.258 81.133 410.324 81.667 410.324 82.2C410.458 82.733 410.591 83.267 410.724 83.8ZM494.705 68.2C495.105 69.133 495.305 70.133 495.305 71.2C495.439 72.267 495.172 73.333 494.505 74.4C494.239 74.933 494.105 75.467 494.105 76C494.239 76.4 494.305 76.933 494.305 77.6C494.039 78 493.705 78.4 493.305 78.8C492.905 79.067 492.572 79.467 492.305 80C492.039 80.267 491.772 80.6 491.505 81C491.372 81.4 491.039 81.733 490.505 82C489.839 81.867 489.039 81.8 488.105 81.8C487.172 81.8 486.305 81.8 485.505 81.8C483.505 81.8 481.705 82.333 480.105 83.4C479.572 83.933 479.039 84.333 478.505 84.6C477.972 84.733 477.439 84.933 476.905 85.2C476.105 86 475.839 86.8 476.105 87.6V91.4C476.239 92.6 476.372 93.8 476.505 95C476.772 96.067 476.839 97.267 476.705 98.6C476.572 98.867 476.572 99.267 476.705 99.8C476.839 100.2 476.972 100.533 477.105 100.8C476.972 101.333 476.772 101.8 476.505 102.2C476.372 102.467 476.239 102.867 476.105 103.4C476.239 103.933 476.372 104.467 476.505 105C476.639 105.4 476.772 105.867 476.905 106.4C476.905 107.067 476.839 107.533 476.705 107.8C476.439 108.6 476.172 109.4 475.905 110.2C475.772 111 475.572 111.8 475.305 112.6C474.905 113.533 474.839 114.4 475.105 115.2C475.372 116 475.305 116.8 474.905 117.6C474.905 120.4 474.772 123.133 474.505 125.8C474.239 128.467 474.039 131.133 473.905 133.8C473.905 137.267 474.505 140.8 475.705 144.4C476.239 145.6 477.105 146.2 478.305 146.2C478.572 146.067 478.839 145.867 479.105 145.6C479.505 145.333 479.905 145.133 480.305 145C480.705 145 481.039 145.133 481.305 145.4C482.372 146.6 483.572 147.4 484.905 147.8C487.039 148.333 487.639 149.4 486.705 151C486.305 151.933 486.105 152.933 486.105 154C486.239 155.067 486.239 156.133 486.105 157.2C485.839 160.133 485.705 163.133 485.705 166.2C485.705 169.133 485.905 172.133 486.305 175.2C486.305 176.667 486.172 177.6 485.905 178C485.772 178.533 484.972 179.333 483.505 180.4H482.905C481.839 180.267 480.772 180.133 479.705 180C478.772 179.867 477.839 179.733 476.905 179.6C474.372 180 472.105 180.2 470.105 180.2C469.172 180.333 468.239 180.533 467.305 180.8C466.505 181.2 465.572 181.333 464.505 181.2C463.439 180.933 462.372 180.933 461.305 181.2C460.239 181.467 459.172 181.6 458.105 181.6C457.572 181.333 457.039 181.133 456.505 181C456.105 180.867 455.572 180.667 454.905 180.4C451.705 180.933 448.505 181.267 445.305 181.4C442.105 181.533 438.839 181.667 435.505 181.8C434.839 180.867 434.172 180 433.505 179.2C432.839 178.533 432.239 177.8 431.705 177C431.439 176.067 430.905 175.267 430.105 174.6C429.439 173.933 428.772 173.333 428.105 172.8C427.972 171.467 427.705 170.2 427.305 169C427.039 167.933 427.039 166.867 427.305 165.8C427.705 165.133 427.839 164.467 427.705 163.8C427.439 162.6 427.372 161.4 427.505 160.2C427.772 158.867 428.039 157.6 428.305 156.4V154C429.372 153.733 430.439 153.533 431.505 153.4C432.572 153.133 433.639 153.133 434.705 153.4C435.239 153.133 435.705 152.867 436.105 152.6C436.505 152.2 436.972 151.8 437.505 151.4C438.172 151.667 438.839 151.933 439.505 152.2C440.172 152.467 440.905 152.733 441.705 153C443.039 152.2 444.572 151.133 446.305 149.8C446.572 149 446.705 148.4 446.705 148C446.705 146.533 446.705 145.067 446.705 143.6C446.705 142 446.772 140.467 446.905 139V138.4C446.372 137.067 446.172 135.8 446.305 134.6C446.439 133.4 446.439 132.133 446.305 130.8V128.2C446.572 125.133 446.639 122.133 446.505 119.2C446.505 116.133 446.439 113.067 446.305 110L447.705 107.4C447.572 106.733 447.439 106.067 447.305 105.4C447.172 104.733 447.039 104.067 446.905 103.4C447.039 102.733 447.172 102.133 447.305 101.6C447.572 101.067 447.772 100.467 447.905 99.8C447.905 99.267 447.839 98.867 447.705 98.6C447.039 97 446.772 95.533 446.905 94.2V91.2C446.905 90.667 446.772 90.267 446.505 90C446.239 89.6 446.105 89.133 446.105 88.6C446.239 88.333 446.305 87.733 446.305 86.8C446.172 86 446.039 85.2 445.905 84.4C445.772 83.6 445.572 82.8 445.305 82C444.639 81.333 443.905 81.133 443.105 81.4C442.305 81.533 441.572 81.533 440.905 81.4C440.239 81.133 439.505 81 438.705 81C437.905 81 437.039 81 436.105 81C435.172 80.467 434.105 80.267 432.905 80.4C431.839 80.4 430.772 80.2 429.705 79.8C429.172 79.133 428.905 78.333 428.905 77.4C429.039 76.467 428.905 75.8 428.505 75.4C428.239 74.867 428.239 74.2 428.505 73.4C428.772 72.467 428.772 71.667 428.505 71C429.039 70.333 429.105 69.867 428.705 69.6C428.305 69.333 428.305 68.8 428.705 68C429.105 67.333 429.305 66.6 429.305 65.8C429.305 64.867 429.572 64.133 430.105 63.6C430.372 63.333 430.439 62.933 430.305 62.4C430.305 61.733 430.372 61.133 430.505 60.6C430.772 60.333 431.372 60.2 432.305 60.2C433.239 60.067 433.772 59.867 433.905 59.6C434.439 58.933 435.039 58.467 435.705 58.2C436.505 57.933 437.305 57.6 438.105 57.2C438.372 57.2 438.705 57.2 439.105 57.2C439.505 57.067 439.972 57 440.505 57C441.572 57 442.705 57 443.905 57C445.105 57 446.239 56.933 447.305 56.8C448.372 56.533 449.439 56.333 450.505 56.2C451.572 55.933 452.705 55.733 453.905 55.6C455.105 55.333 456.305 55.4 457.505 55.8C459.239 56.333 461.372 56.267 463.905 55.6C464.439 55.467 464.905 55.333 465.305 55.2C465.705 55.067 466.039 54.933 466.305 54.8C467.239 54.933 468.039 55.067 468.705 55.2C469.505 55.333 470.172 55.4 470.705 55.4C471.105 55.4 471.505 55.333 471.905 55.2C472.439 55.067 472.839 55 473.105 55C474.439 55 475.639 55.067 476.705 55.2C477.905 55.2 479.105 55.333 480.305 55.6C482.839 56 485.105 56.133 487.105 56C487.772 55.867 488.305 55.867 488.705 56C489.239 56 489.572 56 489.705 56C490.639 56.133 491.305 56.467 491.705 57C492.239 57.4 492.639 57.733 492.905 58C495.039 60.133 495.505 62.333 494.305 64.6C494.172 64.733 494.105 65.2 494.105 66C494.239 66.267 494.305 66.6 494.305 67C494.439 67.267 494.572 67.667 494.705 68.2ZM591.88 80.8C591.08 81.467 590.147 81.8 589.08 81.8C588.014 81.8 586.947 81.8 585.88 81.8C584.947 81.8 584.147 82 583.48 82.4L580.08 81.8C579.547 81.933 579.08 82.067 578.68 82.2C578.28 82.2 577.747 82.267 577.08 82.4C576.68 82.4 575.947 82.267 574.88 82C573.28 81.733 571.88 81.8 570.68 82.2C569.08 82.733 567.28 82.933 565.28 82.8C564.08 82.533 562.814 82.6 561.48 83C560.28 83.267 559.147 83.533 558.08 83.8C557.547 83.667 557.014 83.6 556.48 83.6C556.08 83.467 555.747 83.333 555.48 83.2C554.68 83.333 553.88 83.6 553.08 84C552.414 84.4 551.68 84.867 550.88 85.4C550.48 85.933 550.08 86.6 549.68 87.4C549.414 88.067 549.014 88.733 548.48 89.4C548.347 91 548.28 92.667 548.28 94.4C548.28 96 548.214 97.533 548.08 99C547.947 100.067 547.547 100.933 546.88 101.6C546.347 102.133 546.08 102.8 546.08 103.6C546.48 104.667 547.214 105.267 548.28 105.4C549.08 105.667 549.947 105.867 550.88 106C551.814 106 552.747 106.067 553.68 106.2C554.747 105.8 555.814 105.4 556.88 105C557.947 104.6 558.947 104.2 559.88 103.8C561.347 103.8 562.614 103.8 563.68 103.8C564.747 103.8 565.814 103.733 566.88 103.6C567.28 103.6 567.68 103.6 568.08 103.6C568.48 103.467 568.88 103.333 569.28 103.2C571.147 102.4 573.014 102 574.88 102C576.747 102 578.614 102.133 580.48 102.4C581.814 102.8 582.68 103.8 583.08 105.4C583.08 105.667 583.08 106 583.08 106.4C583.214 106.667 583.347 107 583.48 107.4C583.347 107.8 583.214 108.267 583.08 108.8C582.947 109.333 582.88 109.933 582.88 110.6C583.014 112.733 582.947 114.867 582.68 117C582.547 119.133 582.547 121.333 582.68 123.6C582.814 124.533 582.68 125.467 582.28 126.4C582.014 127.333 581.68 128.133 581.28 128.8L580.68 129.2C579.88 129.333 579.147 129.333 578.48 129.2C577.947 128.933 577.347 128.8 576.68 128.8C575.88 128.8 575.214 129 574.68 129.4C574.147 129.8 573.547 130.133 572.88 130.4C571.947 130.533 570.947 130.6 569.88 130.6C568.947 130.6 567.947 130.533 566.88 130.4C566.347 130.133 565.747 130.133 565.08 130.4C564.547 130.667 564.014 130.933 563.48 131.2C562.28 131.067 561.08 130.933 559.88 130.8C558.814 130.533 557.747 130.133 556.68 129.6C555.88 129.6 555.08 129.6 554.28 129.6C553.48 129.6 552.614 129.667 551.68 129.8C549.947 129.933 548.147 129.933 546.28 129.8C544.814 129.533 543.48 129.933 542.28 131C542.014 131.133 541.747 131.533 541.48 132.2C541.214 132.733 541.147 133.2 541.28 133.6C541.814 134.667 542.08 135.8 542.08 137C542.214 138.2 542.28 139.333 542.28 140.4C542.414 140.8 542.547 141.133 542.68 141.4C542.814 141.667 542.947 141.933 543.08 142.2C542.947 142.467 542.747 142.733 542.48 143C542.347 143.267 542.214 143.533 542.08 143.8C541.547 145.133 541.88 145.933 543.08 146.2C544.68 146.6 546.28 147 547.88 147.4C549.614 147.8 551.347 148.133 553.08 148.4C553.48 148.267 553.947 148.133 554.48 148C555.014 147.867 555.48 147.8 555.88 147.8C557.747 147.8 559.614 147.667 561.48 147.4C563.48 147 565.414 146.8 567.28 146.8C567.68 146.8 568.147 146.8 568.68 146.8C569.214 146.667 569.747 146.667 570.28 146.8C571.347 147.2 572.48 147.467 573.68 147.6C574.88 147.733 576.08 147.8 577.28 147.8C578.08 147.8 578.814 147.867 579.48 148C580.28 148 581.08 148.067 581.88 148.2C582.947 148.467 583.48 149 583.48 149.8C583.347 150.467 583.08 151.2 582.68 152C582.414 152.667 582.147 153.267 581.88 153.8C581.747 154.733 581.88 155.467 582.28 156C582.68 156.533 582.947 157.067 583.08 157.6C582.947 158.933 582.747 160.2 582.48 161.4C582.347 162.6 581.947 163.667 581.28 164.6C581.28 165.4 581.48 166 581.88 166.4C582.28 166.8 582.547 167.267 582.68 167.8C582.414 168.067 582.147 168.467 581.88 169C581.747 169.4 581.547 169.867 581.28 170.4C581.547 171.467 581.747 172.6 581.88 173.8C582.147 175 581.88 176.133 581.08 177.2C580.68 177.333 580.214 177.533 579.68 177.8C579.28 178.2 578.814 178.333 578.28 178.2C576.947 177.933 575.614 177.933 574.28 178.2C573.08 178.467 571.88 178.667 570.68 178.8C569.747 178.933 568.88 179.2 568.08 179.6C567.28 180 566.48 180.333 565.68 180.6C564.347 180.867 563.014 181.067 561.68 181.2C560.347 181.333 558.947 181.533 557.48 181.8L554.68 181.2C553.48 181.333 552.08 181.533 550.48 181.8L545.08 180.6C544.547 180.2 544.014 179.733 543.48 179.2C543.08 178.8 542.547 178.467 541.88 178.2C541.747 178.067 541.48 178 541.08 178C540.814 178.133 540.68 178.267 540.68 178.4C540.68 179.733 539.947 180.6 538.48 181C537.814 180.733 537.08 180.533 536.28 180.4C535.48 180.267 534.747 180.133 534.08 180C533.414 179.867 532.68 179.8 531.88 179.8C531.08 179.933 530.347 180 529.68 180C528.08 180 526.48 179.8 524.88 179.4C523.414 179 521.88 178.133 520.28 176.8C520.147 176.4 519.947 176 519.68 175.6C519.414 175.2 519.147 174.733 518.88 174.2C518.347 173.933 517.814 173.6 517.28 173.2C516.88 172.8 516.414 172.467 515.88 172.2L513.68 171C513.147 170.2 512.88 169.467 512.88 168.8C512.88 168 512.814 167.267 512.68 166.6C512.547 165.933 512.414 165.267 512.28 164.6C512.28 163.8 512.214 163 512.08 162.2C512.347 160.6 512.48 159 512.48 157.4C512.614 155.8 512.614 154.133 512.48 152.4C512.347 150.933 512.347 149.467 512.48 148C512.747 146.4 513.147 144.867 513.68 143.4C513.547 142.867 513.347 142.4 513.08 142C512.947 141.6 512.88 141.133 512.88 140.6C512.88 139.933 513.014 139.267 513.28 138.6C513.547 137.933 513.547 137.267 513.28 136.6C513.28 136.333 513.347 136.133 513.48 136C513.747 135.867 513.947 135.733 514.08 135.6C514.48 134.667 514.347 134.133 513.68 134C512.347 133.6 511.68 132.933 511.68 132C511.947 131.2 512.014 130.4 511.88 129.6C511.747 128.8 511.68 127.933 511.68 127C511.68 126.333 511.747 125.667 511.88 125C512.014 124.333 511.947 123.667 511.68 123C511.68 122.867 511.614 122.667 511.48 122.4C511.48 122.133 511.547 121.933 511.68 121.8C512.347 120.333 512.547 118.933 512.28 117.6C512.147 116.267 511.88 114.933 511.48 113.6C512.014 112.4 512.347 111.267 512.48 110.2C512.614 109 512.68 107.8 512.68 106.6V101.2C512.814 100.8 512.88 100.4 512.88 100C512.88 99.467 512.947 99.067 513.08 98.8C514.147 95.867 514.08 92.8 512.88 89.6C512.747 89.333 512.68 88.933 512.68 88.4C512.947 87.6 513.214 86.867 513.48 86.2C513.88 85.4 514.147 84.6 514.28 83.8C514.547 82.733 514.814 81.6 515.08 80.4C515.48 79.2 515.747 78.067 515.88 77V75.6C515.747 74.933 515.68 74.267 515.68 73.6C515.814 72.8 515.814 72.067 515.68 71.4C515.547 70.733 515.48 70.067 515.48 69.4C515.614 68.733 515.68 68.133 515.68 67.6C515.68 67.067 515.614 66.667 515.48 66.4C515.48 66 515.414 65.6 515.28 65.2C515.547 64.267 516.08 63.533 516.88 63C517.68 62.467 518.147 61.8 518.28 61C519.88 59.933 521.48 59.267 523.08 59C524.814 58.6 526.414 58 527.88 57.2C529.347 56.4 530.88 55.933 532.48 55.8C534.08 55.667 535.614 55.333 537.08 54.8C538.014 55.067 538.88 55.333 539.68 55.6C540.614 55.867 541.547 56.133 542.48 56.4C543.014 56.4 543.547 56.4 544.08 56.4C544.747 56.267 545.347 56.133 545.88 56C546.814 56.133 547.68 56.333 548.48 56.6C549.28 56.867 550.147 56.933 551.08 56.8C552.547 56.4 553.947 56.4 555.28 56.8C555.947 56.8 556.547 56.867 557.08 57C557.614 57 558.147 57.067 558.68 57.2C560.68 55.733 562.814 55.333 565.08 56C566.147 56.4 567.214 56.533 568.28 56.4C569.347 56.267 570.414 56.4 571.48 56.8C572.547 57.067 573.547 57.2 574.48 57.2C575.547 57.067 576.547 57 577.48 57C578.68 56.733 579.88 56.733 581.08 57C582.147 57.267 583.28 57.467 584.48 57.6C585.814 57.733 587.014 57.8 588.08 57.8C588.747 57.8 589.68 58.267 590.88 59.2C592.747 66.533 593.08 73.733 591.88 80.8Z" fill="#4BBF40"/>
<path d="M202.811 246.6C202.278 247 202.011 248 202.011 249.6C202.011 251.067 201.811 252.133 201.411 252.8C201.144 253.333 200.678 253.867 200.011 254.4C199.478 254.8 199.011 255.333 198.611 256C198.744 256.267 198.878 256.6 199.011 257C199.144 257.4 199.278 257.733 199.411 258C198.878 258.667 198.344 259.333 197.811 260C197.278 260.667 196.678 261.4 196.011 262.2C195.611 262.2 195.011 262.333 194.211 262.6C193.678 262.733 193.411 263.133 193.411 263.8C193.411 264.333 193.478 264.933 193.611 265.6C193.878 266.133 194.011 266.733 194.011 267.4C193.478 269.4 192.944 271.4 192.411 273.4C191.878 275.4 191.011 277.267 189.811 279C189.678 281.133 189.078 283.2 188.011 285.2C186.944 287.067 186.011 289.067 185.211 291.2C184.811 292 184.478 292.8 184.211 293.6C184.078 294.4 183.878 295.267 183.611 296.2C183.078 296.733 182.611 297.267 182.211 297.8C181.811 298.333 181.278 298.867 180.611 299.4C180.211 300.067 179.878 300.8 179.611 301.6C179.344 302.4 179.078 303.2 178.811 304C178.278 304.667 177.811 305.4 177.411 306.2C177.144 307 176.744 307.733 176.211 308.4C175.011 310.533 174.078 312.8 173.411 315.2C172.878 317.467 172.611 319.733 172.611 322C172.211 322.933 171.811 323.8 171.411 324.6C171.144 325.267 170.678 325.933 170.011 326.6C169.478 327.533 169.011 328.533 168.611 329.6C168.344 330.533 167.878 331.467 167.211 332.4C166.011 334.4 165.278 335.733 165.011 336.4C164.744 337.067 164.611 337.733 164.611 338.4C164.744 339.067 164.478 340.467 163.811 342.6C163.278 343.267 162.411 343.933 161.211 344.6C160.011 345.267 158.944 345.733 158.011 346C157.478 345.733 156.611 345.6 155.411 345.6C154.211 345.733 153.344 345.733 152.811 345.6C152.144 345.467 151.411 345.4 150.611 345.4C149.811 345.4 149.078 345.4 148.411 345.4C147.478 345.4 146.478 345.4 145.411 345.4C144.478 345.4 143.544 345.333 142.611 345.2C141.811 344.933 141.211 344.533 140.811 344C140.278 342.667 139.811 341.467 139.411 340.4C139.144 339.2 139.211 338 139.611 336.8C139.744 336.267 139.544 335.8 139.011 335.4C138.611 335 138.278 334.733 138.011 334.6C137.611 333.8 137.211 333 136.811 332.2C136.544 331.267 136.078 330.4 135.411 329.6C134.611 328.267 133.811 327 133.011 325.8C132.211 324.6 131.478 323.333 130.811 322C130.678 321.467 130.278 321 129.611 320.6C129.078 320.2 128.811 319.733 128.811 319.2C128.811 318.133 128.611 317.2 128.211 316.4C127.944 315.6 127.611 314.733 127.211 313.8C126.944 313 126.611 312.2 126.211 311.4C125.944 310.467 125.678 309.6 125.411 308.8C124.878 307.333 124.278 306.067 123.611 305C122.278 303.133 120.878 301.267 119.411 299.4C118.078 297.533 116.678 295.733 115.211 294C114.278 292.667 113.211 292 112.011 292C111.478 292 111.211 292.267 111.211 292.8C111.211 293.733 111.211 294.6 111.211 295.4C111.344 296.2 111.411 297 111.411 297.8C111.411 300.2 110.744 302.067 109.411 303.4C108.478 304.333 107.878 305.4 107.611 306.6C107.344 307.667 107.078 308.733 106.811 309.8C106.411 311 105.878 312.133 105.211 313.2C104.678 314.267 104.278 315.333 104.011 316.4C103.211 317.2 102.478 317.933 101.811 318.6C101.144 319.267 100.611 320.067 100.211 321C99.8109 322.2 99.2109 323.267 98.4109 324.2C97.6109 325.133 97.0776 326.267 96.8109 327.6C96.6776 328.8 96.1443 329.867 95.2109 330.8C94.4109 331.733 93.9443 332.867 93.8109 334.2C93.5443 335 93.1443 335.8 92.6109 336.6C92.2109 337.267 91.8776 338 91.6109 338.8C90.9443 339.6 90.4109 340.667 90.0109 342C87.8776 342.933 86.0776 343.533 84.6109 343.8C83.2776 344.067 81.2776 344.467 78.6109 345C77.6776 344.733 76.6109 344.4 75.4109 344C74.3443 343.6 73.1443 343.267 71.8109 343C71.4109 343.133 71.0109 343.267 70.6109 343.4C70.2109 343.533 69.7443 343.667 69.2109 343.8C68.9443 344.067 68.6109 344.267 68.2109 344.4C67.9443 344.533 67.6776 344.667 67.4109 344.8C66.4776 344.667 65.6109 344.533 64.8109 344.4C64.0109 344.133 63.1443 344.133 62.2109 344.4C61.5443 343.2 60.8109 342.067 60.0109 341C59.3443 339.8 58.8776 338.533 58.6109 337.2C58.4776 335.733 58.0109 334.533 57.2109 333.6C56.4109 332.533 55.8776 331.333 55.6109 330C55.2109 329.333 54.7443 328.8 54.2109 328.4C53.8109 328 53.4109 327.6 53.0109 327.2C52.4776 325.867 52.0776 324.467 51.8109 323C51.5443 321.533 51.4109 320.067 51.4109 318.6C49.6776 316.6 48.8109 314.467 48.8109 312.2C47.3443 310.2 46.4109 308.933 46.0109 308.4C45.7443 307.733 45.4776 306.533 45.2109 304.8C43.8776 303.067 42.4776 301.267 41.0109 299.4C39.6776 297.533 38.2776 295.733 36.8109 294C36.2776 291.867 35.7443 289.8 35.2109 287.8C34.8109 285.8 34.3443 283.8 33.8109 281.8C33.1443 279.133 32.3443 276.6 31.4109 274.2C30.4776 271.667 29.6776 269.133 29.0109 266.6C28.7443 265.4 28.4109 264.333 28.0109 263.4C27.6109 262.333 27.2776 261.267 27.0109 260.2C27.0109 259.667 26.8776 259.2 26.6109 258.8C26.4776 258.267 26.2776 257.867 26.0109 257.6C25.4776 256.933 25.1443 256.267 25.0109 255.6C24.8776 254.8 24.7443 254.067 24.6109 253.4C24.4776 252.467 24.2776 251.667 24.0109 251C23.7443 250.2 23.4776 249.4 23.2109 248.6C24.1443 246.333 25.4776 244.333 27.2109 242.6C27.8776 242.2 28.4776 242 29.0109 242C29.6776 241.867 30.2776 241.667 30.8109 241.4C32.8109 240.867 34.2776 240.333 35.2109 239.8C36.1443 239.133 37.5443 238.333 39.4109 237.4C42.6109 235.533 45.9443 234.2 49.4109 233.4C50.0776 233.533 50.5443 233.8 50.8109 234.2C51.0776 234.6 51.2776 235.067 51.4109 235.6C51.8109 236.933 52.2109 238.333 52.6109 239.8C53.1443 241.133 53.8776 242.4 54.8109 243.6C55.4776 245.467 56.2776 247.333 57.2109 249.2C58.2776 251.067 59.2109 252.867 60.0109 254.6C60.1443 254.733 60.4776 255.4 61.0109 256.6C61.5443 257.667 62.0776 258.8 62.6109 260C63.2776 261.067 63.6776 261.6 63.8109 261.6C65.6776 263.2 67.0109 264.467 67.8109 265.4C68.7443 266.333 69.5443 267.4 70.2109 268.6C70.8776 269.667 71.6109 271.333 72.4109 273.6C73.0776 275.067 73.7443 276.533 74.4109 278C75.0776 279.467 75.6776 281 76.2109 282.6C76.3443 283.533 76.4109 284.467 76.4109 285.4C76.4109 286.333 76.4776 287.333 76.6109 288.4C77.0109 289.067 77.3443 289.8 77.6109 290.6C78.0109 291.4 78.3443 292.2 78.6109 293C79.1443 293.267 79.6109 293.4 80.0109 293.4C80.0109 293.533 80.0776 293.6 80.2109 293.6C80.4776 293.467 80.6109 293.333 80.6109 293.2C81.5443 291.733 82.3443 290.333 83.0109 289C83.8109 287.667 84.3443 286.267 84.6109 284.8C84.7443 283.733 85.0109 282.867 85.4109 282.2C85.8109 281.533 86.0776 280.8 86.2109 280C86.0776 279.333 86.0109 278.6 86.0109 277.8C86.0109 277 85.9443 276.267 85.8109 275.6C86.3443 274.533 86.8109 273.6 87.2109 272.8C87.7443 272 88.2109 271.2 88.6109 270.4C88.8776 269.6 89.0776 268.8 89.2109 268C89.4776 267.067 89.8109 266.267 90.2109 265.6C90.8776 264.133 91.5443 262.8 92.2109 261.6C92.8776 260.267 93.6109 258.867 94.4109 257.4C94.5443 256.733 94.4776 256.067 94.2109 255.4C93.9443 254.733 93.7443 254.133 93.6109 253.6C93.7443 253.333 93.8109 253.067 93.8109 252.8C93.9443 252.4 94.1443 252.133 94.4109 252C96.1443 251.2 97.3443 249.867 98.0109 248C99.0776 245.6 99.8776 243.667 100.411 242.2C101.078 240.6 102.144 238.733 103.611 236.6C103.878 236.2 104.544 235.4 105.611 234.2C106.678 232.867 107.344 231.933 107.611 231.4C107.744 231 108.144 230.667 108.811 230.4C109.344 230.533 109.744 230.733 110.011 231C110.411 231.133 110.878 231.333 111.411 231.6C111.944 231.6 112.411 231.533 112.811 231.4C113.744 230.467 114.811 230 116.011 230C117.078 229.867 118.144 229.8 119.211 229.8C120.411 229.667 121.478 229.733 122.411 230C123.478 230.267 124.211 230.733 124.611 231.4C125.011 232.067 125.678 232.267 126.611 232C127.544 233.2 128.144 234.467 128.411 235.8C128.678 237.133 129.144 238.333 129.811 239.4C130.344 240.067 131.011 240.467 131.811 240.6C132.744 240.733 133.344 241 133.611 241.4C134.278 242.333 134.611 243.267 134.611 244.2C134.744 245 134.878 245.733 135.011 246.4C135.278 247.067 135.478 247.733 135.611 248.4C135.878 249.067 135.944 249.867 135.811 250.8C135.678 250.933 135.678 251.2 135.811 251.6C136.078 252 136.278 252.333 136.411 252.6C136.678 253 137.011 253.4 137.411 253.8C137.811 254.067 138.078 254.333 138.211 254.6L139.611 258C139.744 258.133 139.878 258.333 140.011 258.6C140.278 258.733 140.411 258.933 140.411 259.2C140.544 259.733 140.611 260.333 140.611 261C140.744 261.533 140.811 262.133 140.811 262.8C140.811 265.6 141.278 268 142.211 270C142.878 271.733 143.411 273 143.811 273.8C144.211 274.467 145.344 275.6 147.211 277.2C147.478 277.6 147.678 278.067 147.811 278.6C148.078 279.133 148.344 279.667 148.611 280.2C148.744 280.467 149.011 281.2 149.411 282.4C149.944 283.467 150.478 284.467 151.011 285.4C151.544 286.333 151.944 286.8 152.211 286.8C153.011 286.4 153.744 285.4 154.411 283.8C155.078 282.2 155.744 280.533 156.411 278.8C157.078 277.067 157.678 275.933 158.211 275.4C158.611 273.933 159.011 272.467 159.411 271C159.944 269.533 160.278 268 160.411 266.4C160.544 264.8 160.811 263.267 161.211 261.8C161.744 260.2 162.078 258.667 162.211 257.2C162.344 256.8 162.944 256 164.011 254.8C165.211 253.467 165.878 252.733 166.011 252.6C167.211 249.933 167.744 247.867 167.611 246.4C167.611 244.8 168.144 242.733 169.211 240.2C169.878 239 170.611 237.867 171.411 236.8C172.211 235.733 172.878 234.667 173.411 233.6C174.611 232.8 175.744 232.533 176.811 232.8C177.878 232.933 178.878 232.867 179.811 232.6C181.411 233 182.744 233.2 183.811 233.2C184.878 233.2 186.011 233.6 187.211 234.4C187.878 234.667 188.611 235 189.411 235.4C190.344 235.8 191.144 236.133 191.811 236.4C192.344 237.2 193.011 237.933 193.811 238.6C194.611 239.133 195.278 239.8 195.811 240.6C197.411 241.667 198.611 242.533 199.411 243.2C200.344 243.867 201.478 245 202.811 246.6ZM307.119 332.4C306.985 332.267 306.852 332.2 306.719 332.2L306.919 332.4C306.385 332.667 305.985 333.267 305.719 334.2C305.585 335.133 305.252 335.8 304.719 336.2C304.585 336.6 304.119 337.2 303.319 338C302.519 338.8 301.919 339.133 301.519 339C299.652 338.6 297.452 338.6 294.919 339C294.519 339.4 294.119 339.8 293.719 340.2C293.319 340.6 292.785 341.067 292.119 341.6C291.985 341.6 291.852 341.667 291.719 341.8C291.585 341.8 291.385 341.8 291.119 341.8C290.719 341.933 290.119 342 289.319 342C285.052 341.867 280.852 342.667 276.719 344.4C275.785 344.667 274.785 344.867 273.719 345C272.652 345 271.585 344.8 270.519 344.4C269.719 344 268.919 343.8 268.119 343.8C267.452 343.667 266.719 343.667 265.919 343.8C264.185 343.8 262.519 343.533 260.919 343C260.252 343.133 259.519 343.267 258.719 343.4C258.052 343.533 257.385 343.733 256.719 344C256.052 344.267 255.385 344.6 254.719 345C254.052 345.533 253.319 345.733 252.519 345.6C252.385 345.333 252.185 345.067 251.919 344.8C251.652 344.4 251.385 343.933 251.119 343.4C250.852 343.267 250.519 343.133 250.119 343C249.719 342.733 249.385 342.533 249.119 342.4C247.385 342.133 245.785 341.533 244.319 340.6C242.319 339.267 240.385 338.267 238.519 337.6C237.585 337.333 236.785 336.867 236.119 336.2C235.585 335.4 234.985 334.733 234.319 334.2C233.785 332.867 233.319 331.6 232.919 330.4C232.519 329.2 232.252 327.933 232.119 326.6C231.719 326.333 231.385 326.067 231.119 325.8C230.852 325.4 230.585 325.067 230.319 324.8C229.519 324.267 229.119 323.8 229.119 323.4C228.985 322.2 228.585 321.267 227.919 320.6C227.252 319.933 226.652 319 226.119 317.8C226.119 317.533 226.052 317.133 225.919 316.6C225.919 316.067 225.852 315.533 225.719 315C225.719 314.733 225.719 314.4 225.719 314C225.719 313.467 225.652 313.067 225.519 312.8C224.985 311.733 224.452 310.733 223.919 309.8C223.385 308.733 222.919 307.733 222.519 306.8C222.519 306.133 222.652 305.133 222.919 303.8C223.585 301 223.519 298.267 222.719 295.6C222.319 294.667 222.052 293.733 221.919 292.8C221.785 291.867 221.585 290.933 221.319 290C221.452 289.733 221.585 289.4 221.719 289C221.985 288.467 222.252 288.067 222.519 287.8L221.119 283.6C220.852 282.933 220.452 282.333 219.919 281.8C219.519 281.133 219.119 280.533 218.719 280C218.585 278.933 218.785 277.933 219.319 277C219.985 276.067 220.385 275.133 220.519 274.2C220.519 273.8 220.452 273.4 220.319 273C220.319 272.6 220.319 272.2 220.319 271.8C221.385 270.333 222.052 268.8 222.319 267.2C222.719 265.6 222.985 263.933 223.119 262.2C224.052 261.667 224.852 261.067 225.519 260.4C226.185 259.733 226.652 258.867 226.919 257.8C227.052 257.4 227.119 256.933 227.119 256.4C227.252 255.867 227.385 255.333 227.519 254.8C228.185 253.733 228.852 252.667 229.519 251.6C230.319 250.4 231.052 249.333 231.719 248.4C231.985 247.733 232.185 247 232.319 246.2C232.585 245.4 232.985 244.733 233.519 244.2C234.185 243.8 234.652 243.267 234.919 242.6C235.319 241.933 235.652 241.267 235.919 240.6C236.852 240.467 237.652 240.267 238.319 240C238.985 239.733 239.585 239.533 240.119 239.4C240.785 239 241.119 238.6 241.119 238.2C241.519 236.333 242.319 235 243.519 234.2C244.852 233.267 246.319 232.6 247.919 232.2C248.452 232.067 248.919 232 249.319 232C249.719 231.867 250.252 231.733 250.919 231.6C251.185 231.333 251.519 231 251.919 230.6C252.319 230.067 252.719 229.533 253.119 229C253.919 228.733 254.652 228.467 255.319 228.2C256.119 227.933 256.785 227.667 257.319 227.4H258.719C259.785 227.8 260.852 228.2 261.919 228.6C263.119 228.867 264.385 229.2 265.719 229.6C266.785 229.467 267.852 229.267 268.919 229C270.119 228.6 271.252 228.533 272.319 228.8C272.452 228.8 272.585 228.867 272.719 229C272.852 229 272.985 228.933 273.119 228.8C274.052 228.8 274.985 228.667 275.919 228.4C276.852 228.133 277.785 228.067 278.719 228.2C279.519 228.2 280.319 228.133 281.119 228C282.052 227.867 282.919 227.6 283.719 227.2C284.385 227.067 284.985 227 285.519 227C286.185 226.867 286.852 226.933 287.519 227.2C287.919 227.6 288.319 228 288.719 228.4C289.119 228.667 289.585 229.067 290.119 229.6C291.185 229.733 292.319 230 293.519 230.4C294.852 230.667 296.185 231 297.519 231.4C298.185 231.533 298.785 231.867 299.319 232.4C299.985 232.933 300.785 233.333 301.719 233.6C302.519 233.867 303.319 234.067 304.119 234.2C305.052 234.2 305.985 234.2 306.919 234.2C309.052 236.333 311.585 237.8 314.519 238.6C314.785 238.733 315.052 238.867 315.319 239C315.585 239.133 315.852 239.267 316.119 239.4C317.185 240.333 318.185 241.333 319.119 242.4C320.185 243.333 321.185 244.267 322.119 245.2C323.052 246.267 323.585 247.4 323.719 248.6C324.785 249.533 325.385 250.267 325.519 250.8C325.785 251.2 325.919 252.467 325.919 254.6C326.719 255 327.452 255.467 328.119 256C328.785 256.4 329.185 257.067 329.319 258C329.585 258.533 329.852 259.067 330.119 259.6C330.385 260 330.585 260.467 330.719 261C331.119 261.533 331.519 262 331.919 262.4C332.452 262.667 332.985 263.067 333.519 263.6C333.919 264.533 334.252 265.467 334.519 266.4C334.785 267.2 334.785 268.133 334.519 269.2C334.252 270.133 334.185 271.133 334.319 272.2C334.452 273.267 334.452 274.4 334.319 275.6C334.185 276.667 334.185 277.8 334.319 279C334.452 280.2 334.585 281.333 334.719 282.4C334.852 282.933 334.919 283.533 334.919 284.2C334.919 284.733 334.985 285.2 335.119 285.6C335.652 286.533 335.919 287.467 335.919 288.4C336.052 289.333 336.052 290.267 335.919 291.2C335.919 291.733 335.919 292.267 335.919 292.8C336.052 293.2 336.119 293.733 336.119 294.4C335.585 296.133 335.119 297.933 334.719 299.8C334.319 301.533 333.719 303.2 332.919 304.8C332.119 306.267 331.319 307.733 330.519 309.2C329.719 310.667 328.785 312.067 327.719 313.4V316.8C327.052 317.2 326.385 317.667 325.719 318.2C325.185 318.6 324.719 318.933 324.319 319.2C323.385 320.8 322.785 322.267 322.519 323.6C322.385 324.8 322.119 325.933 321.719 327C321.185 327.533 320.652 328.067 320.119 328.6C319.585 329.133 318.985 329.667 318.319 330.2C317.652 330.733 316.852 331.2 315.919 331.6C315.119 331.867 314.185 331.8 313.119 331.4C311.919 331.133 310.919 331.2 310.119 331.6C309.585 331.733 309.052 331.867 308.519 332C307.985 332.133 307.519 332.267 307.119 332.4ZM303.919 287.2C303.652 286.533 303.452 285.933 303.319 285.4C303.319 284.733 303.252 284.067 303.119 283.4C303.119 282.333 303.052 281.467 302.919 280.8C302.652 279.733 302.252 278.6 301.719 277.4C301.319 276.067 300.852 274.8 300.319 273.6C300.185 273.067 299.919 272.533 299.519 272C299.252 271.333 298.985 270.733 298.719 270.2C297.652 268.067 295.985 266.8 293.719 266.4C293.319 266.267 292.852 266.133 292.319 266C291.785 265.733 291.319 265.467 290.919 265.2C290.119 264.667 289.319 264.267 288.519 264C287.719 263.733 286.919 263.533 286.119 263.4C285.052 263.133 283.919 262.867 282.719 262.6C281.519 262.2 280.385 261.933 279.319 261.8C277.985 261.133 276.719 261.2 275.519 262C271.919 263.467 268.652 265.4 265.719 267.8C262.785 270.067 260.252 273.2 258.119 277.2C257.719 277.733 257.319 278.333 256.919 279C256.652 279.667 256.385 280.333 256.119 281C255.585 281.667 255.119 282.4 254.719 283.2C254.319 283.867 253.985 284.533 253.719 285.2C253.852 286.267 254.319 287.133 255.119 287.8C255.919 288.467 256.385 289.333 256.519 290.4C256.519 290.933 256.319 291.467 255.919 292C255.519 292.4 255.252 292.867 255.119 293.4C255.385 293.933 255.719 294.533 256.119 295.2C256.519 295.867 256.852 296.533 257.119 297.2C257.519 297.867 257.785 298.6 257.919 299.4C258.185 300.067 258.385 300.8 258.519 301.6C258.785 302.267 258.985 302.933 259.119 303.6C259.385 304.267 259.585 304.933 259.719 305.6L262.519 307.8C262.919 308.067 263.319 308.467 263.719 309C264.252 309.4 264.785 309.733 265.319 310C266.919 310.4 268.319 310.8 269.519 311.2C270.585 311.467 271.519 311.6 272.319 311.6C273.119 311.6 273.985 311.6 274.919 311.6C274.919 311.6 274.852 311.6 274.719 311.6C274.719 311.6 274.719 311.667 274.719 311.8H275.119C274.985 311.8 274.919 311.733 274.919 311.6C275.185 311.333 275.519 311.2 275.919 311.2C276.319 311.067 276.652 311 276.919 311C277.719 311 278.519 311.067 279.319 311.2C280.252 311.2 281.185 311.133 282.119 311C282.385 310.733 282.719 310.733 283.119 311C283.652 311.133 284.119 311.267 284.519 311.4C285.052 311.4 285.452 311.267 285.719 311C285.719 310.467 285.652 310 285.519 309.6C285.519 309.2 285.719 308.867 286.119 308.6C287.852 307.667 289.519 306.933 291.119 306.4C291.785 305.867 292.319 305.4 292.719 305C293.252 304.6 293.719 304.133 294.119 303.6C294.652 303.333 295.052 303 295.319 302.6C295.719 302.2 296.185 301.933 296.719 301.8C297.919 301.4 298.919 300.867 299.719 300.2C300.652 299.4 301.519 298.6 302.319 297.8C302.452 297.533 302.519 297.333 302.519 297.2C302.652 296.933 302.785 296.667 302.919 296.4C304.385 293.333 304.719 290.267 303.919 287.2ZM463.517 257C463.384 258.6 463.384 260.2 463.517 261.8C463.651 263.267 463.584 264.733 463.317 266.2C462.917 267.933 462.651 269.667 462.517 271.4C462.384 273.133 462.251 274.867 462.117 276.6C461.584 277.533 461.117 278.533 460.717 279.6C460.451 280.533 460.051 281.4 459.517 282.2C458.984 283 458.451 283.8 457.917 284.6C457.384 285.267 456.784 286.067 456.117 287C455.851 287.267 455.717 287.733 455.717 288.4C454.517 290 453.184 291.467 451.717 292.8C450.384 294 448.851 295 447.117 295.8C446.184 297.4 445.251 298.667 444.317 299.6C444.051 300 443.584 300.333 442.917 300.6C441.184 301.4 439.251 302 437.117 302.4C434.451 303.067 432.584 304.467 431.517 306.6V310.2C431.651 310.733 432.051 311.067 432.717 311.2C433.517 311.333 434.184 311.733 434.717 312.4C434.717 312.533 434.851 312.667 435.117 312.8C435.384 312.933 435.517 313.133 435.517 313.4C436.051 315.667 437.384 317.133 439.517 317.8C440.317 318.867 441.051 319.933 441.717 321C442.517 321.933 443.251 322.867 443.917 323.8C444.584 324.2 445.184 324.6 445.717 325C446.384 325.267 447.051 325.6 447.717 326C447.984 326.533 448.317 327.2 448.717 328C449.251 328.667 449.717 329.333 450.117 330C450.651 330.533 451.184 331 451.717 331.4C452.251 331.667 452.584 331.933 452.717 332.2C453.117 333.933 453.051 335.067 452.517 335.6C450.917 337.467 449.851 339.2 449.317 340.8C449.051 341.2 448.784 341.533 448.517 341.8C448.251 341.933 447.984 342.133 447.717 342.4C446.784 342.933 445.784 343.267 444.717 343.4C443.651 343.533 442.784 343.933 442.117 344.6C441.451 345.133 440.717 345.4 439.917 345.4C439.117 345.533 438.384 345.867 437.717 346.4C436.651 347.2 435.651 348.067 434.717 349C433.917 350.067 432.851 350.933 431.517 351.6C430.984 351.467 430.317 351.4 429.517 351.4C428.717 351.4 427.984 351.4 427.317 351.4L423.317 348.6C422.784 348.067 422.517 347.733 422.517 347.6C422.251 346.933 421.984 346.267 421.717 345.6C421.451 345.067 421.184 344.533 420.917 344C420.784 343.467 420.451 343 419.917 342.6C419.384 342.067 418.984 341.533 418.717 341V339.4C418.717 338.333 418.251 337.8 417.317 337.8C416.917 337.667 416.584 337.6 416.317 337.6C416.051 337.6 415.784 337.6 415.517 337.6C413.517 336.133 411.651 334.333 409.917 332.2C408.584 330.867 407.251 329.867 405.917 329.2C404.717 328.4 403.584 327.4 402.517 326.2C401.451 325 400.384 323.8 399.317 322.6C398.651 321.8 397.984 321 397.317 320.2C396.651 319.267 395.917 318.533 395.117 318C393.917 317.867 392.717 317.867 391.517 318C390.317 318.133 389.251 318.467 388.317 319C388.051 319 387.717 319.333 387.317 320C387.184 320.933 387.051 321.867 386.917 322.8C386.784 323.6 386.651 324.467 386.517 325.4C387.051 327.933 387.117 330.533 386.717 333.2C386.317 334.667 386.051 336.133 385.917 337.6C385.917 339.067 385.851 340.533 385.717 342C385.717 342.533 385.717 343.133 385.717 343.8C385.717 344.467 385.584 345.067 385.317 345.6C385.051 346.8 384.317 347.6 383.117 348H382.317C381.784 347.867 381.251 347.733 380.717 347.6C380.317 347.6 379.784 347.533 379.117 347.4C377.117 347.933 375.051 348 372.917 347.6C370.784 347.2 368.651 346.867 366.517 346.6C364.384 346.333 362.317 346 360.317 345.6C360.051 345.6 359.784 345.533 359.517 345.4C359.384 345.4 359.184 345.333 358.917 345.2C358.384 344.667 358.117 344.2 358.117 343.8C358.117 342.6 358.051 341.4 357.917 340.2C357.784 338.867 357.584 337.533 357.317 336.2C356.651 333.8 356.784 331.733 357.717 330C357.584 328.8 357.451 327.6 357.317 326.4C357.184 325.2 357.184 324.067 357.317 323C357.584 322.467 357.584 321.8 357.317 321C357.184 320.2 356.851 319.933 356.317 320.2C356.184 320.333 355.984 320.4 355.717 320.4C355.451 320.267 355.317 320.133 355.317 320C355.184 319.733 355.051 319.467 354.917 319.2C354.784 318.8 354.651 318.533 354.517 318.4C354.517 317.733 354.517 317 354.517 316.2C354.517 315.4 354.451 314.667 354.317 314C354.317 313.333 354.317 312.667 354.317 312C354.317 311.333 354.184 310.733 353.917 310.2C353.517 308.867 353.317 307.467 353.317 306C353.317 304.533 353.317 303.133 353.317 301.8C353.184 301.267 353.051 300.867 352.917 300.6C352.784 300.2 352.584 299.8 352.317 299.4C352.584 298.467 352.784 297.6 352.917 296.8C353.184 295.867 352.984 294.933 352.317 294C352.584 292.933 352.651 291.867 352.517 290.8C352.384 289.6 352.651 288.4 353.317 287.2C353.584 286.533 353.651 285.867 353.517 285.2C353.384 284.533 353.251 283.733 353.117 282.8C353.384 281.733 353.717 280.733 354.117 279.8C354.517 278.733 354.851 277.533 355.117 276.2C354.984 275.533 354.784 274.4 354.517 272.8C354.251 272.133 354.051 271.533 353.917 271C353.784 270.467 353.651 269.933 353.517 269.4C353.384 268.733 353.451 268.133 353.717 267.6C354.117 266.933 354.184 266.267 353.917 265.6C353.784 264.667 353.717 264.067 353.717 263.8C353.851 263.533 354.184 263 354.717 262.2C354.584 261.933 354.517 261.733 354.517 261.6C354.517 261.333 354.451 261.133 354.317 261C353.117 259.4 352.851 257.4 353.517 255C353.784 254.2 354.051 253.4 354.317 252.6C354.717 251.8 354.984 251.067 355.117 250.4C354.984 249.867 354.851 249.333 354.717 248.8C354.717 248.267 354.651 247.733 354.517 247.2L355.917 242.4C355.651 241.467 355.451 240.533 355.317 239.6C355.184 238.667 354.984 237.733 354.717 236.8C354.717 235.6 355.251 234.333 356.317 233C356.851 232.333 357.384 232.067 357.917 232.2C358.584 232.333 359.384 232.333 360.317 232.2C361.251 231.933 362.184 231.6 363.117 231.2C364.184 230.8 365.317 230.533 366.517 230.4C367.717 230.267 368.851 229.733 369.917 228.8C370.984 228.133 372.051 227.6 373.117 227.2C374.184 226.667 375.251 226.267 376.317 226C378.451 226.4 379.784 226.6 380.317 226.6C380.984 226.467 382.051 225.933 383.517 225H387.117C387.784 224.867 388.451 224.733 389.117 224.6C389.784 224.333 390.517 224.133 391.317 224C391.584 223.733 391.984 223.4 392.517 223C393.184 222.6 393.784 222.267 394.317 222C395.117 221.867 395.984 221.733 396.917 221.6C397.851 221.333 398.784 221.133 399.717 221C400.117 221.133 400.451 221.333 400.717 221.6C401.117 221.733 401.517 221.933 401.917 222.2C402.717 222.6 403.384 223.067 403.917 223.6C404.451 223.867 404.917 224 405.317 224C406.651 224.133 407.917 224.267 409.117 224.4C410.317 224.4 411.584 224.333 412.917 224.2C413.317 224.067 413.784 224 414.317 224C414.984 224 415.584 224 416.117 224C416.784 224 417.517 224.067 418.317 224.2C419.117 224.2 419.851 224.267 420.517 224.4C421.317 224.4 421.917 224.667 422.317 225.2C422.851 225.733 423.317 226 423.717 226C425.584 226.533 427.317 226.8 428.917 226.8C430.517 226.8 432.117 226.733 433.717 226.6C434.384 226.867 435.051 227.2 435.717 227.6C436.517 227.867 437.251 228.133 437.917 228.4C438.451 228.133 438.851 227.933 439.117 227.8C439.517 227.533 439.917 227.333 440.317 227.2C441.384 226.933 442.184 227 442.717 227.4C443.117 227.667 443.451 227.933 443.717 228.2C444.117 228.467 444.517 228.733 444.917 229C445.184 229.4 445.451 229.8 445.717 230.2C445.984 230.6 446.384 230.933 446.917 231.2H449.717C450.251 231.333 450.851 231.867 451.517 232.8C452.317 233.733 453.051 234.667 453.717 235.6C454.517 236.533 455.384 237.533 456.317 238.6C457.251 239.533 458.051 240.6 458.717 241.8C459.384 242.867 460.184 243.933 461.117 245C461.517 245.267 461.784 245.667 461.917 246.2C462.184 246.733 462.384 247.267 462.517 247.8C462.517 249.4 462.517 251 462.517 252.6C462.651 254.067 462.984 255.533 463.517 257ZM365.117 232.2V232H364.717L365.117 232.2ZM434.117 268C434.117 268 434.051 267.933 433.917 267.8C433.784 267.667 433.717 267.533 433.717 267.4C433.717 266.2 433.517 265.067 433.117 264C432.717 262.8 431.984 261.8 430.917 261C430.384 260.733 429.984 260.4 429.717 260C429.451 259.467 429.117 259 428.717 258.6C427.784 257.4 426.717 256.4 425.517 255.6C425.384 255.333 425.117 255.2 424.717 255.2C424.317 255.067 423.984 254.933 423.717 254.8C423.051 255.2 421.917 255.6 420.317 256C419.251 255.333 418.117 255 416.917 255C415.717 255 414.451 255.133 413.117 255.4C411.784 255.4 410.384 255.4 408.917 255.4C407.584 255.267 406.251 255.4 404.917 255.8C403.451 255.667 401.984 255.667 400.517 255.8C399.051 255.933 397.584 256.067 396.117 256.2C394.917 256.2 394.051 256.267 393.517 256.4C392.584 256.933 391.651 257.2 390.717 257.2C389.917 257.067 389.051 257.133 388.117 257.4C387.584 257.933 387.251 258.6 387.117 259.4C386.984 260.2 386.784 260.933 386.517 261.6C387.317 264.667 387.184 267.733 386.117 270.8C386.784 271.733 387.251 272.667 387.517 273.6C387.917 274.4 387.917 275.333 387.517 276.4C387.517 276.533 387.517 276.667 387.517 276.8C387.651 276.933 387.717 277.067 387.717 277.2C387.984 278 388.117 278.8 388.117 279.6C388.117 280.4 387.984 281.2 387.717 282C387.451 282.133 387.117 282.333 386.717 282.6C386.451 282.733 386.184 282.933 385.917 283.2C386.584 283.867 387.384 284.2 388.317 284.2C388.717 283.933 389.184 283.733 389.717 283.6C390.251 283.333 390.784 283 391.317 282.6C393.584 283.267 395.851 283.533 398.117 283.4C400.517 283.267 402.784 283.667 404.917 284.6H406.317C406.851 284.6 407.451 284.533 408.117 284.4C408.784 284.267 409.384 284.2 409.917 284.2C410.451 283.8 411.184 283.467 412.117 283.2C415.051 282.4 417.651 281.067 419.917 279.2C420.851 278.533 421.784 278.133 422.717 278C423.651 277.733 424.584 277.533 425.517 277.4C425.917 277.4 426.317 277.4 426.717 277.4C427.251 277.4 427.784 277.333 428.317 277.2C428.717 276.133 429.384 275.267 430.317 274.6C431.384 273.8 432.251 272.867 432.917 271.8C432.384 271.133 432.384 270.533 432.917 270C433.584 269.467 433.984 268.8 434.117 268ZM552.456 318.6C552.59 319.533 552.523 320.6 552.256 321.8C552.123 322.867 552.056 323.933 552.056 325C552.056 325.933 551.99 326.933 551.856 328C551.723 329.067 551.523 330.133 551.256 331.2C550.856 332.133 550.723 333.133 550.856 334.2C550.99 335.133 550.99 336.133 550.856 337.2C550.59 337.733 550.256 338.333 549.856 339C549.59 339.667 549.256 340.333 548.856 341C548.723 341.533 548.523 342.133 548.256 342.8C547.99 343.333 547.723 343.933 547.456 344.6C546.523 345 545.59 345.4 544.656 345.8C543.856 346.333 543.056 346.733 542.256 347C540.523 347.4 538.656 347.467 536.656 347.2C534.79 346.933 532.923 347.067 531.056 347.6C530.79 347.733 530.456 347.867 530.056 348C529.79 348.133 529.39 348.333 528.856 348.6C528.323 348.733 527.656 348.867 526.856 349C526.19 349.133 525.523 349.267 524.856 349.4C524.323 349.4 523.79 349.4 523.256 349.4C522.856 349.4 522.523 349.333 522.256 349.2C521.456 348.8 520.656 348.6 519.856 348.6C519.19 348.6 518.523 348.733 517.856 349C517.323 349 516.79 348.933 516.256 348.8C515.723 348.667 515.123 348.533 514.456 348.4C513.79 349.067 512.923 349.6 511.856 350C510.79 350.4 509.656 350.467 508.456 350.2C507.256 350.067 506.19 350.333 505.256 351C504.456 350.6 503.723 350.267 503.056 350C502.523 349.733 501.923 349.533 501.256 349.4C500.323 349.267 499.39 349.333 498.456 349.6C497.656 349.867 496.723 349.933 495.656 349.8C494.59 349.533 493.523 349.533 492.456 349.8C491.523 350.067 490.523 350.2 489.456 350.2C488.39 350.067 487.39 350 486.456 350C485.523 350.133 484.656 350.333 483.856 350.6C483.723 350.2 483.523 349.867 483.256 349.6C482.99 349.467 482.856 349.333 482.856 349.2C481.923 345.067 481.456 340.6 481.456 335.8C481.723 334.467 481.79 333.2 481.656 332C481.523 330.667 481.456 329.267 481.456 327.8C480.523 325.133 479.923 322.467 479.656 319.8C479.523 317.133 479.523 314.4 479.656 311.6C479.79 308.933 479.923 306.2 480.056 303.4C480.19 300.6 480.323 297.733 480.456 294.8C480.456 293.733 480.523 292.6 480.656 291.4C480.79 290.2 480.99 289.067 481.256 288C481.79 286.667 482.123 285.333 482.256 284C482.39 282.533 482.456 281.067 482.456 279.6C482.456 278.4 482.456 277.2 482.456 276C482.456 274.667 482.39 273.333 482.256 272C482.256 271.467 482.256 270.867 482.256 270.2C482.256 269.533 482.19 268.867 482.056 268.2C481.79 267.133 481.59 266.067 481.456 265C481.323 263.933 481.256 262.933 481.256 262C481.39 261.333 481.39 260.667 481.256 260C481.256 259.333 481.19 258.667 481.056 258C480.923 257.467 480.923 256.867 481.056 256.2C481.19 255.533 481.19 254.933 481.056 254.4C480.923 253.467 480.856 252.6 480.856 251.8C480.856 251 480.99 250.2 481.256 249.4C481.39 248.6 481.323 247.733 481.056 246.8C480.923 245.733 480.79 244.667 480.656 243.6C480.656 242.4 480.79 241.333 481.056 240.4C481.456 238.8 481.723 237.2 481.856 235.6C481.99 233.867 482.123 232.333 482.256 231C482.523 229.933 482.923 229.133 483.456 228.6C484.123 227.933 484.39 227.2 484.256 226.4C484.123 225.6 484.456 225.067 485.256 224.8C486.056 224.4 486.123 223.733 485.456 222.8C486.39 222.8 486.923 222.867 487.056 223C489.59 224.067 491.79 224.2 493.656 223.4C494.456 223.533 495.256 223.667 496.056 223.8C496.856 223.933 497.59 224 498.256 224C498.923 224.133 499.656 224.133 500.456 224C501.256 223.867 501.99 223.733 502.656 223.6C504.256 223.2 505.79 222.867 507.256 222.6C508.856 222.2 510.456 222 512.056 222C513.523 221.733 514.856 221.733 516.056 222C516.456 222 517.056 222.267 517.856 222.8C517.723 223.333 517.59 223.867 517.456 224.4C517.456 224.933 517.39 225.467 517.256 226C517.39 226.667 517.523 227.4 517.656 228.2C517.923 228.867 518.056 229.6 518.056 230.4C518.19 231.067 518.39 231.8 518.656 232.6C519.056 233.267 519.39 234 519.656 234.8C519.256 235.6 518.856 236.533 518.456 237.6C518.056 238.533 517.656 239.467 517.256 240.4C517.523 240.933 517.723 241.467 517.856 242C517.99 242.4 518.123 242.867 518.256 243.4C517.723 245.8 517.19 248.2 516.656 250.6C516.256 253 515.99 255.467 515.856 258C515.723 258.667 515.523 259.4 515.256 260.2C515.123 260.867 514.923 261.667 514.656 262.6C514.923 263.133 515.19 263.733 515.456 264.4C515.723 264.933 515.923 265.533 516.056 266.2L515.256 270.2C515.256 270.733 515.256 271.333 515.256 272C515.256 272.533 515.123 273 514.856 273.4C514.456 274.333 514.19 275.267 514.056 276.2C514.056 277.133 513.923 278.133 513.656 279.2C513.656 280.933 513.59 282.733 513.456 284.6C513.323 286.333 513.323 288.133 513.456 290C513.456 291.2 513.256 292.333 512.856 293.4C512.59 294.333 512.323 295.467 512.056 296.8C512.323 297.333 512.523 297.867 512.656 298.4C512.79 298.933 512.923 299.533 513.056 300.2C512.923 300.867 512.723 301.6 512.456 302.4C512.323 303.067 512.123 303.8 511.856 304.6C512.256 305.533 512.656 306.467 513.056 307.4C513.456 308.333 513.856 309.333 514.256 310.4C514.523 310.933 514.723 311.467 514.856 312C514.99 312.4 515.123 312.867 515.256 313.4C515.656 314.467 516.056 315.133 516.456 315.4C516.99 315.667 517.723 315.733 518.656 315.6C520.523 315.067 522.456 314.667 524.456 314.4C526.456 314.133 528.456 313.8 530.456 313.4C530.856 313.267 531.523 313.2 532.456 313.2C533.656 313.2 534.856 313.067 536.056 312.8C537.39 312.533 538.59 312.067 539.656 311.4C542.056 309.933 544.523 309.4 547.056 309.8C547.723 309.933 548.39 309.933 549.056 309.8C549.723 309.667 550.39 309.733 551.056 310C551.19 310.133 551.323 310.4 551.456 310.8C551.59 311.067 551.656 311.333 551.656 311.6C552.056 312.8 552.256 314 552.256 315.2C552.39 316.267 552.456 317.4 552.456 318.6ZM674.523 281.2C674.79 282.133 674.723 283.067 674.323 284C673.923 284.933 673.857 285.933 674.123 287C674.123 287.533 673.99 288.067 673.723 288.6C673.723 288.867 673.657 289.133 673.523 289.4C673.39 289.533 673.323 289.667 673.323 289.8C673.457 291.933 673.457 293.4 673.323 294.2C673.323 294.867 672.99 296.267 672.323 298.4C672.457 298.933 672.523 299.6 672.523 300.4C672.657 301.067 672.79 301.8 672.923 302.6C672.79 303.533 672.457 304.733 671.923 306.2C671.523 305.933 671.123 305.733 670.723 305.6C670.457 305.467 670.19 305.333 669.923 305.2C669.123 304.933 668.723 305.267 668.723 306.2C668.723 307.133 668.857 308 669.123 308.8C669.523 309.467 669.99 310.133 670.523 310.8C670.257 311.867 669.99 313 669.723 314.2C669.59 315.4 669.39 316.667 669.123 318C668.457 319.2 667.723 320.467 666.923 321.8C666.123 323 665.057 323.933 663.723 324.6C663.59 325.267 663.457 325.867 663.323 326.4C663.19 326.8 662.99 327.333 662.723 328C661.523 328.933 660.323 329.933 659.123 331C657.923 331.933 656.923 332.933 656.123 334C655.457 334.533 654.857 334.733 654.323 334.6C653.79 334.467 653.257 334.467 652.723 334.6C651.79 335.267 650.857 335.933 649.923 336.6C649.123 337.267 648.257 337.933 647.323 338.6C646.39 339.133 645.523 339.733 644.723 340.4C643.923 341.067 643.057 341.733 642.123 342.4H639.123C638.457 342.933 637.857 343.4 637.323 343.8C636.79 344.067 636.19 344.4 635.523 344.8C635.123 344.8 634.79 344.867 634.523 345C634.39 345 634.19 344.933 633.923 344.8C632.59 344.667 631.657 344.733 631.123 345C630.59 345.133 629.523 345.533 627.923 346.2C626.723 346.6 625.523 347 624.323 347.4C623.123 347.933 621.923 348.467 620.723 349C619.257 348.333 617.723 348 616.123 348C614.657 348 613.123 348 611.523 348C610.723 347.467 609.923 347 609.123 346.6C608.59 346.333 608.123 346.133 607.723 346C607.457 345.867 607.057 345.733 606.523 345.6C606.257 345.6 605.857 345.6 605.323 345.6C604.923 345.6 604.457 345.733 603.923 346C603.657 346.133 603.323 346.333 602.923 346.6C602.523 346.867 602.19 347.2 601.923 347.6C599.39 347.2 596.79 346.8 594.123 346.4C591.457 346.133 588.79 345.733 586.123 345.2C585.057 344.933 583.99 344.667 582.923 344.4C581.99 344 580.99 343.667 579.923 343.4C579.123 343.533 578.323 343.667 577.523 343.8C576.723 343.933 575.857 344.133 574.923 344.4C572.79 344.667 571.257 343.733 570.323 341.6C570.323 341.333 570.257 341.067 570.123 340.8C570.123 340.533 570.123 340.333 570.123 340.2C570.39 338.733 570.657 337.333 570.923 336C571.19 334.667 571.39 333.4 571.523 332.2C571.523 331.933 571.79 331.533 572.323 331V330.2C571.79 329.8 571.257 329.4 570.723 329C570.323 328.6 569.923 328.2 569.523 327.8L569.323 309.8V309.6H570.723C570.59 309.333 570.39 309.133 570.123 309C569.857 308.733 569.59 308.533 569.323 308.4C569.323 308.4 569.523 307.8 569.923 306.6C570.323 305.4 570.59 304.533 570.723 304C570.99 303.2 570.923 302.533 570.523 302C570.257 301.467 570.057 300.933 569.923 300.4C570.19 299.867 570.457 299.4 570.723 299C570.99 298.467 571.19 297.933 571.323 297.4C571.19 296.733 570.99 296.133 570.723 295.6C570.457 295.067 570.19 294.533 569.923 294C569.79 293.333 569.79 292.667 569.923 292C570.19 291.2 570.323 290.533 570.323 290C570.59 289.333 570.657 288.667 570.523 288C570.39 287.333 570.323 286.533 570.323 285.6C569.923 284.133 569.323 282.533 568.523 280.8C568.923 280 569.257 279.2 569.523 278.4C569.79 277.6 570.057 276.8 570.323 276L569.723 273.2C569.99 272.133 570.257 271.067 570.523 270C570.923 268.8 571.19 267.733 571.323 266.8C570.79 264.8 570.523 262.867 570.523 261C570.657 259 570.723 257 570.723 255C570.723 253.933 571.057 252.733 571.723 251.4C571.99 251.133 572.123 250.867 572.123 250.6C572.257 250.2 572.39 249.933 572.523 249.8C571.857 248.467 571.457 247.467 571.323 246.8C571.323 246 571.457 245.2 571.723 244.4C571.99 243.467 571.79 242.667 571.123 242C570.723 240.533 570.59 239.2 570.723 238C570.857 236.667 571.057 235.333 571.323 234C571.99 233.333 572.523 232.667 572.923 232C573.457 231.2 573.99 230.4 574.523 229.6C575.19 229.467 575.857 229.333 576.523 229.2C577.323 228.933 577.99 228.867 578.523 229C580.657 229.4 582.923 229.067 585.323 228C585.99 227.6 586.657 227.467 587.323 227.6C588.123 227.733 588.923 227.933 589.723 228.2C592.257 227.8 594.79 227.4 597.323 227C599.857 226.6 602.323 226.067 604.723 225.4C605.39 225.133 606.057 225.067 606.723 225.2C607.39 225.333 608.19 225.4 609.123 225.4L612.723 223.8C613.39 223.933 614.057 224.133 614.723 224.4C615.39 224.533 616.057 224.733 616.723 225C617.523 224.867 618.323 224.667 619.123 224.4C619.923 224.133 620.79 223.933 621.723 223.8C622.257 224.067 622.79 224.4 623.323 224.8C623.857 225.2 624.39 225.533 624.923 225.8C626.39 225.667 627.723 225.4 628.923 225C630.257 224.6 631.59 224.333 632.923 224.2C633.457 224.733 633.857 225.333 634.123 226C634.39 226.533 634.79 227 635.323 227.4C635.857 228.067 636.59 228.4 637.523 228.4C638.59 228.267 639.323 227.8 639.723 227C639.99 226.333 640.39 226.067 640.923 226.2C641.59 226.333 642.257 226.933 642.923 228C643.723 228 644.523 227.933 645.323 227.8C646.123 227.667 646.99 227.6 647.923 227.6C648.59 228 649.123 228.4 649.523 228.8C650.057 229.067 650.59 229.467 651.123 230C651.657 230.533 652.19 231.067 652.723 231.6C653.257 232 653.857 232.4 654.523 232.8C655.323 233.2 655.857 233.8 656.123 234.6C656.657 235.4 657.257 236.2 657.923 237C658.723 237.667 659.457 238.333 660.123 239C661.19 240.2 662.79 241.133 664.923 241.8C665.19 241.933 665.457 242.067 665.723 242.2C666.123 242.333 666.39 242.467 666.523 242.6C666.79 243.667 667.057 244.733 667.323 245.8C667.723 246.733 667.99 247.733 668.123 248.8C667.99 250 667.79 251 667.523 251.8C667.79 253 668.323 254 669.123 254.8C669.923 255.467 670.657 256.2 671.323 257C673.19 259.933 674.123 263.333 674.123 267.2C674.123 268.533 674.19 269.867 674.323 271.2C674.457 272.4 674.39 273.6 674.123 274.8C673.99 275.867 674.057 276.933 674.323 278C674.723 279.067 674.79 280.133 674.523 281.2ZM644.923 277.4C644.657 276.733 644.257 276.067 643.723 275.4C643.323 274.6 642.99 273.8 642.723 273C642.323 272.2 641.99 271.4 641.723 270.6C641.457 269.667 641.19 268.733 640.923 267.8C638.79 267.533 636.923 266.867 635.323 265.8C633.857 264.733 632.39 263.667 630.923 262.6H627.923C626.59 261.533 625.323 260.6 624.123 259.8C622.923 258.867 621.657 257.933 620.323 257C618.057 256.733 615.79 256.733 613.523 257C611.39 257.133 609.39 257 607.523 256.6C606.323 257 605.257 257.333 604.323 257.6C603.523 257.733 602.723 257.933 601.923 258.2C601.123 258.733 600.59 259.133 600.323 259.4C599.923 261.4 599.79 263.4 599.923 265.4C600.057 267.4 600.19 269.4 600.323 271.4C600.857 272.2 600.923 273 600.523 273.8C600.257 274.467 600.19 275.133 600.323 275.8C600.457 276.2 600.523 276.6 600.523 277C600.657 277.4 600.79 277.933 600.923 278.6C600.657 279.4 600.457 280.267 600.323 281.2C600.323 282 600.257 282.933 600.123 284C600.123 286.133 599.923 288.133 599.523 290C599.923 290.667 600.257 291.333 600.523 292C600.79 292.533 601.057 293.133 601.323 293.8C600.923 295 600.457 296.267 599.923 297.6C599.523 298.8 599.19 299.933 598.923 301C598.923 301.667 598.923 302.333 598.923 303C599.057 303.667 599.057 304.333 598.923 305C598.79 306.6 598.39 308.2 597.723 309.8L598.523 311.2C599.323 313.2 600.923 313.933 603.323 313.4C604.79 313.4 605.99 313.2 606.923 312.8C607.857 312.533 608.723 312.533 609.523 312.8C610.457 312.933 611.39 312.933 612.323 312.8C613.39 312.533 614.523 312.2 615.723 311.8C617.057 311.267 618.257 310.8 619.323 310.4C619.99 310.267 620.59 310.133 621.123 310C621.657 309.867 622.19 309.867 622.723 310C623.923 310.133 625.19 310.133 626.523 310C627.857 309.867 629.19 309.733 630.523 309.6C630.79 309.333 631.19 309.133 631.723 309C632.257 308.733 632.723 308.467 633.123 308.2C635.123 307.267 636.857 305.733 638.323 303.6C638.99 302.667 639.523 301.667 639.923 300.6C640.457 299.4 640.99 298.333 641.523 297.4C642.59 295.133 643.39 292.933 643.923 290.8C644.457 288.533 644.59 286.2 644.323 283.8C644.19 283.267 644.123 282.733 644.123 282.2C644.257 281.667 644.39 281.133 644.523 280.6C644.657 280.067 644.79 279.533 644.923 279C645.057 278.467 645.057 277.933 644.923 277.4Z" fill="#99D3F4"/>
</svg>
