<svg width="181" height="31" viewBox="0 0 181 31" fill="none" xmlns="http://www.w3.org/2000/svg">
<path d="M12.6134 8.90999C12.4934 9.16999 12.3334 9.38999 12.1334 9.56999C11.9334 9.72999 11.7634 9.91999 11.6234 10.14C11.4634 10.18 11.3034 10.25 11.1434 10.35C11.0034 10.45 10.8734 10.55 10.7534 10.65C10.5534 10.77 10.3734 10.77 10.2134 10.65C10.1334 10.61 10.0634 10.57 10.0034 10.53C9.96344 10.47 9.90344 10.42 9.82344 10.38C9.66344 10.24 9.45344 10.19 9.19344 10.23C9.17344 10.25 9.14344 10.24 9.10344 10.2V9.89999C9.08344 9.87999 9.05344 9.84999 9.01344 9.80999C8.99344 9.76999 8.96344 9.74999 8.92344 9.74999C8.52344 9.58999 8.14344 9.57999 7.78344 9.71999C7.66344 9.73999 7.54344 9.76999 7.42344 9.80999C7.30344 9.84999 7.18344 9.88999 7.06344 9.92999C6.98344 10.05 6.90344 10.17 6.82344 10.29C6.76344 10.41 6.69344 10.52 6.61344 10.62C6.63344 10.78 6.64344 10.94 6.64344 11.1C6.66344 11.26 6.68344 11.42 6.70344 11.58C6.80344 11.7 6.89344 11.83 6.97344 11.97C7.07344 12.09 7.16344 12.22 7.24344 12.36C7.42344 12.5 7.61344 12.64 7.81344 12.78C8.01344 12.9 8.20344 13.04 8.38344 13.2C8.50344 13.28 8.62344 13.35 8.74344 13.41C8.88344 13.45 9.00344 13.52 9.10344 13.62C9.20344 13.72 9.29344 13.81 9.37344 13.89C9.47344 13.95 9.56344 14.03 9.64344 14.13C9.70344 14.15 9.76344 14.18 9.82344 14.22C9.88344 14.26 9.94344 14.3 10.0034 14.34C10.3434 14.56 10.6034 14.86 10.7834 15.24C10.8834 15.4 10.9834 15.57 11.0834 15.75C11.2034 15.93 11.3134 16.1 11.4134 16.26C11.5534 16.38 11.6434 16.52 11.6834 16.68C11.7434 16.84 11.8034 17 11.8634 17.16C11.8834 17.18 11.8934 17.22 11.8934 17.28C11.9334 17.52 11.9934 17.75 12.0734 17.97C12.1734 18.19 12.2734 18.41 12.3734 18.63C12.4334 18.89 12.4634 19.15 12.4634 19.41C12.4834 19.65 12.4734 19.89 12.4334 20.13C12.4334 20.33 12.4034 20.53 12.3434 20.73C12.3034 20.91 12.2434 21.08 12.1634 21.24C12.1434 21.26 12.1334 21.28 12.1334 21.3C12.1334 21.32 12.1134 21.35 12.0734 21.39C11.8934 21.57 11.7434 21.77 11.6234 21.99C11.5234 22.21 11.4034 22.43 11.2634 22.65C11.2434 22.67 11.2334 22.7 11.2334 22.74C11.2334 22.76 11.2134 22.78 11.1734 22.8C10.9734 22.94 10.8034 23.09 10.6634 23.25C10.5434 23.41 10.4034 23.57 10.2434 23.73C10.1634 23.81 10.0634 23.88 9.94344 23.94C9.82344 24 9.71344 24.07 9.61344 24.15L8.98344 24.45C8.78344 24.47 8.57344 24.5 8.35344 24.54C8.15344 24.58 7.94344 24.65 7.72344 24.75C7.58344 24.83 7.42344 24.89 7.24344 24.93C7.08344 24.97 6.92344 25.01 6.76344 25.05C6.68344 25.07 6.60344 25.09 6.52344 25.11C6.44344 25.13 6.36344 25.15 6.28344 25.17C6.02344 24.97 5.73344 24.87 5.41344 24.87C5.19344 24.87 5.00344 24.83 4.84344 24.75C4.60344 24.65 4.37344 24.54 4.15344 24.42C3.93344 24.32 3.73344 24.18 3.55344 24C3.43344 23.9 3.31344 23.81 3.19344 23.73C3.07344 23.65 2.96344 23.57 2.86344 23.49C2.78344 23.41 2.68344 23.36 2.56344 23.34C2.46344 23.3 2.36344 23.26 2.26344 23.22C2.12344 23.12 2.04344 23.01 2.02344 22.89C2.04344 22.73 2.10344 22.58 2.20344 22.44C2.32344 22.3 2.42344 22.15 2.50344 21.99C2.50344 21.87 2.53344 21.72 2.59344 21.54C2.77344 21.3 2.96344 21.06 3.16344 20.82C3.36344 20.56 3.56344 20.3 3.76344 20.04C3.84344 19.98 3.93344 19.92 4.03344 19.86C4.13344 19.78 4.24344 19.7 4.36344 19.62C4.76344 19.72 5.14344 19.83 5.50344 19.95C5.86344 20.07 6.23344 20.18 6.61344 20.28C6.69344 20.26 6.75344 20.24 6.79344 20.22C6.83344 20.18 6.86344 20.15 6.88344 20.13C6.94344 20.11 6.99344 20.09 7.03344 20.07C7.07344 20.05 7.10344 20.03 7.12344 20.01H7.66344C7.68344 19.97 7.70344 19.94 7.72344 19.92C7.76344 19.88 7.79344 19.84 7.81344 19.8C7.89344 19.6 7.97344 19.41 8.05344 19.23C8.13344 19.05 8.18344 18.85 8.20344 18.63C8.16344 18.47 8.11344 18.3 8.05344 18.12C8.01344 17.94 7.92344 17.76 7.78344 17.58C7.70344 17.52 7.61344 17.45 7.51344 17.37C7.41344 17.29 7.31344 17.21 7.21344 17.13C6.87344 17.09 6.52344 17 6.16344 16.86C5.82344 16.72 5.48344 16.65 5.14344 16.65C5.00344 16.61 4.89344 16.55 4.81344 16.47C4.73344 16.37 4.64344 16.28 4.54344 16.2C4.40344 16.16 4.25344 16.13 4.09344 16.11C3.93344 16.09 3.80344 16.01 3.70344 15.87C3.38344 15.69 3.11344 15.56 2.89344 15.48C2.79344 15.36 2.69344 15.24 2.59344 15.12C2.51344 15 2.42344 14.89 2.32344 14.79C2.24344 14.69 2.16344 14.57 2.08344 14.43C2.02344 14.27 1.94344 14.12 1.84344 13.98C1.76344 13.88 1.69344 13.77 1.63344 13.65C1.57344 13.51 1.51344 13.37 1.45344 13.23C1.39344 12.95 1.33344 12.65 1.27344 12.33C1.31344 12.11 1.34344 11.89 1.36344 11.67C1.40344 11.43 1.43344 11.19 1.45344 10.95L1.33344 10.65C1.41344 10.61 1.47344 10.55 1.51344 10.47C1.55344 10.39 1.59344 10.31 1.63344 10.23C1.67344 10.11 1.72344 10.01 1.78344 9.92999C1.84344 9.84999 1.86344 9.73999 1.84344 9.59999C1.84344 9.21999 1.94344 8.86999 2.14344 8.54999C2.18344 8.46999 2.21344 8.39999 2.23344 8.33999C2.27344 8.27999 2.30344 8.21999 2.32344 8.15999C2.42344 8.09999 2.50344 8.03999 2.56344 7.97999C2.64344 7.89999 2.69344 7.84999 2.71344 7.82999C2.81344 7.72999 2.85344 7.63999 2.83344 7.55999C2.81344 7.45999 2.81344 7.36999 2.83344 7.28999C2.91344 7.16999 3.00344 7.04999 3.10344 6.92999C3.20344 6.80999 3.31344 6.67999 3.43344 6.53999C3.57344 6.43999 3.72344 6.35999 3.88344 6.29999C4.04344 6.21999 4.19344 6.10999 4.33344 5.96999C4.37344 5.90999 4.42344 5.86999 4.48344 5.84999C4.54344 5.80999 4.61344 5.77999 4.69344 5.75999C4.79344 5.69999 4.90344 5.64999 5.02344 5.60999C5.14344 5.56999 5.26344 5.51999 5.38344 5.45999C5.58344 5.41999 5.78344 5.38999 5.98344 5.36999C6.20344 5.34999 6.41344 5.32999 6.61344 5.30999C6.63344 5.30999 6.65344 5.30999 6.67344 5.30999C6.71344 5.28999 6.75344 5.28999 6.79344 5.30999C7.01344 5.38999 7.23344 5.38999 7.45344 5.30999C7.69344 5.22999 7.93344 5.19999 8.17344 5.21999C8.39344 5.21999 8.60344 5.24999 8.80344 5.30999C9.02344 5.36999 9.23344 5.41999 9.43344 5.45999C9.65344 5.61999 9.87344 5.76999 10.0934 5.90999C10.3134 6.02999 10.5534 6.12999 10.8134 6.20999C10.8934 6.28999 10.9634 6.37999 11.0234 6.47999C11.1034 6.55999 11.1834 6.64999 11.2634 6.74999C11.3434 6.82999 11.4234 6.89999 11.5034 6.95999C11.5834 7.01999 11.6534 7.08999 11.7134 7.16999C11.8734 7.46999 12.0234 7.76999 12.1634 8.06999C12.3234 8.34999 12.4734 8.62999 12.6134 8.90999ZM32.2978 8.39999C32.1778 8.77999 32.1278 9.13999 32.1478 9.47999C32.1678 9.57999 32.1678 9.68999 32.1478 9.80999C32.1278 9.90999 32.1078 10.01 32.0878 10.11C32.0678 10.19 32.0578 10.29 32.0578 10.41C32.0778 10.53 32.0678 10.63 32.0278 10.71C31.9878 10.85 31.9878 10.99 32.0278 11.13C32.0678 11.25 32.0978 11.37 32.1178 11.49C32.0778 11.63 32.0378 11.79 31.9978 11.97C31.9578 12.13 31.9478 12.31 31.9678 12.51C31.9678 12.75 31.9378 12.99 31.8778 13.23C31.8578 13.37 31.8578 13.51 31.8778 13.65C31.9578 13.91 31.9878 14.16 31.9678 14.4C31.9478 14.64 31.8978 14.88 31.8178 15.12C31.7378 15.26 31.6978 15.4 31.6978 15.54C31.7178 15.76 31.6878 15.97 31.6078 16.17C31.5278 16.37 31.4378 16.57 31.3378 16.77C31.3178 16.83 31.2778 16.88 31.2178 16.92C31.1578 16.96 31.1078 17.01 31.0678 17.07C30.9278 17.53 30.8178 17.86 30.7378 18.06C30.6578 18.24 30.5078 18.53 30.2878 18.93C30.2678 18.97 30.2278 19.02 30.1678 19.08C30.1078 19.14 30.0578 19.19 30.0178 19.23C29.9978 19.27 29.9678 19.3 29.9278 19.32C29.9078 19.34 29.8978 19.36 29.8978 19.38C29.8178 19.64 29.6978 19.86 29.5378 20.04C29.3778 20.22 29.2178 20.39 29.0578 20.55C28.9778 20.63 28.9078 20.72 28.8478 20.82C28.8078 20.9 28.7478 20.99 28.6678 21.09C28.4678 21.23 28.2778 21.37 28.0978 21.51C27.9178 21.65 27.7278 21.79 27.5278 21.93C27.4078 22.01 27.2878 22.08 27.1678 22.14C27.0278 22.18 26.8878 22.24 26.7478 22.32C26.6078 22.38 26.4678 22.43 26.3278 22.47C26.1878 22.55 26.0478 22.62 25.9078 22.68C25.7678 22.72 25.6278 22.78 25.4878 22.86H24.7978C24.6978 22.9 24.5878 22.95 24.4678 23.01C24.3678 23.05 24.2578 23.06 24.1378 23.04C24.0178 23.02 23.8978 23.05 23.7778 23.13C23.6778 23.19 23.5678 23.23 23.4478 23.25C23.3878 23.23 23.3178 23.21 23.2378 23.19C23.1578 23.17 23.0778 23.16 22.9978 23.16C22.9178 23.22 22.8378 23.28 22.7578 23.34C22.6978 23.38 22.6278 23.43 22.5478 23.49C22.5278 23.49 22.4978 23.5 22.4578 23.52C22.4378 23.52 22.4078 23.52 22.3678 23.52C22.2878 23.52 22.1978 23.53 22.0978 23.55C22.0178 23.55 21.9378 23.54 21.8578 23.52C21.7178 23.44 21.5878 23.41 21.4678 23.43C21.3478 23.45 21.2178 23.43 21.0778 23.37C20.9178 23.33 20.8378 23.24 20.8378 23.1C20.8378 22.92 20.7378 22.81 20.5378 22.77C20.4778 22.77 20.4178 22.78 20.3578 22.8C20.3178 22.8 20.2678 22.8 20.2078 22.8C20.1278 22.78 20.0578 22.74 19.9978 22.68C19.9378 22.62 19.8678 22.57 19.7878 22.53C19.6878 22.45 19.5778 22.38 19.4578 22.32C19.3378 22.24 19.2078 22.19 19.0678 22.17C18.9478 22.15 18.8278 22.12 18.7078 22.08C18.6078 22.02 18.5078 21.98 18.4078 21.96C18.1878 21.88 18.0278 21.7 17.9278 21.42C17.8678 21.16 17.7578 20.95 17.5978 20.79C17.5378 20.71 17.4878 20.64 17.4478 20.58C17.4078 20.5 17.3678 20.42 17.3278 20.34C17.2878 20.3 17.2478 20.24 17.2078 20.16C17.1678 20.08 17.1278 20.03 17.0878 20.01C16.8878 19.89 16.7278 19.74 16.6078 19.56C16.5078 19.38 16.4178 19.19 16.3378 18.99C16.3178 18.97 16.2978 18.94 16.2778 18.9C16.2778 18.86 16.2678 18.83 16.2478 18.81C16.1078 18.73 16.0378 18.61 16.0378 18.45C16.0378 18.29 16.0178 18.14 15.9778 18C15.9378 17.96 15.8878 17.91 15.8278 17.85C15.7678 17.79 15.7078 17.72 15.6478 17.64C15.6078 17.48 15.5578 17.32 15.4978 17.16C15.4378 17 15.3878 16.83 15.3478 16.65C15.3478 16.33 15.3378 16.1 15.3178 15.96C15.3178 15.8 15.3078 15.65 15.2878 15.51C15.2678 15.35 15.2178 15.13 15.1378 14.85C15.1378 14.69 15.1678 14.53 15.2278 14.37C15.3078 14.21 15.3278 14.02 15.2878 13.8C15.2278 13.7 15.1678 13.58 15.1078 13.44C15.0678 13.3 15.0078 13.16 14.9278 13.02C14.9278 12.98 14.9178 12.93 14.8978 12.87C14.8978 12.81 14.8978 12.76 14.8978 12.72C14.9178 12.56 14.9278 12.41 14.9278 12.27C14.9278 12.13 14.9278 11.99 14.9278 11.85C14.9278 11.69 14.9478 11.53 14.9878 11.37C15.0278 11.19 15.0578 11.03 15.0778 10.89C15.1178 10.67 15.1478 10.46 15.1678 10.26C15.2078 10.04 15.2478 9.81999 15.2878 9.59999C15.3278 9.27999 15.3978 8.95999 15.4978 8.63999C15.5978 8.31999 15.7078 7.99999 15.8278 7.67999C16.0478 7.53999 16.2478 7.40999 16.4278 7.28999C16.6278 7.16999 16.8278 7.03999 17.0278 6.89999H18.3178L18.6478 7.01999C18.7478 7.03999 18.8478 7.03999 18.9478 7.01999C19.0478 6.97999 19.1478 6.94999 19.2478 6.92999C19.3478 6.98999 19.4578 7.05999 19.5778 7.13999C19.7178 7.19999 19.8578 7.27999 19.9978 7.37999C19.9978 7.41999 20.0078 7.46999 20.0278 7.52999C20.0678 7.58999 20.0878 7.63999 20.0878 7.67999C20.0878 7.81999 20.0778 7.96999 20.0578 8.12999C20.0578 8.28999 20.0278 8.44999 19.9678 8.60999C19.9278 8.78999 19.9278 8.97999 19.9678 9.17999C19.9878 9.23999 19.9978 9.33999 19.9978 9.47999C19.9778 9.63999 19.9478 9.80999 19.9078 9.98999C19.8678 10.17 19.8178 10.34 19.7578 10.5C19.7378 10.58 19.7278 10.66 19.7278 10.74C19.7278 10.8 19.7378 10.86 19.7578 10.92C19.8178 11.08 19.8178 11.23 19.7578 11.37C19.7178 11.51 19.7178 11.65 19.7578 11.79C19.8778 12.03 19.9178 12.31 19.8778 12.63C19.8778 12.79 19.9078 12.92 19.9678 13.02C20.0678 13.2 20.1178 13.38 20.1178 13.56C20.1378 13.72 20.1378 13.89 20.1178 14.07C20.0778 14.23 20.0678 14.39 20.0878 14.55C20.1278 14.71 20.1778 14.86 20.2378 15C20.3178 15.12 20.3778 15.24 20.4178 15.36C20.4578 15.46 20.5178 15.58 20.5978 15.72C20.6978 15.82 20.8078 15.93 20.9278 16.05C21.0478 16.17 21.1478 16.31 21.2278 16.47C21.2478 16.57 21.3278 16.69 21.4678 16.83C21.4678 16.83 21.4978 16.85 21.5578 16.89C21.6578 16.91 21.7578 16.92 21.8578 16.92C21.9778 16.92 22.0878 16.92 22.1878 16.92C22.2878 17 22.3778 17.07 22.4578 17.13C22.5378 17.19 22.6178 17.25 22.6978 17.31C22.8178 17.25 22.9278 17.19 23.0278 17.13C23.1278 17.07 23.2278 17 23.3278 16.92L23.7478 16.83C23.7678 16.83 23.7878 16.83 23.8078 16.83C23.8478 16.81 23.8778 16.81 23.8978 16.83C24.4578 17.01 24.8878 16.82 25.1878 16.26C25.2278 16.14 25.2878 16.02 25.3678 15.9C25.4478 15.78 25.5078 15.65 25.5478 15.51C25.5878 15.41 25.6378 15.32 25.6978 15.24C25.7578 15.16 25.8178 15.08 25.8778 15V14.58C25.9378 14.54 25.9978 14.49 26.0578 14.43C26.1378 14.35 26.2178 14.29 26.2978 14.25C26.3378 14.15 26.3678 14.05 26.3878 13.95C26.4278 13.85 26.4778 13.75 26.5378 13.65C26.5778 13.57 26.6078 13.5 26.6278 13.44C26.6678 13.36 26.7178 13.28 26.7778 13.2C26.7578 13.1 26.7378 13.02 26.7178 12.96C26.6978 12.9 26.6778 12.83 26.6578 12.75C26.7978 12.43 26.8778 12.12 26.8978 11.82C26.9178 11.72 26.9178 11.62 26.8978 11.52C26.8978 11.4 26.8878 11.28 26.8678 11.16C26.9078 11.06 26.9378 10.97 26.9578 10.89C26.9978 10.79 27.0278 10.7 27.0478 10.62C27.0478 10.46 27.0278 10.31 26.9878 10.17C26.9678 10.01 26.9778 9.85999 27.0178 9.71999C27.0578 9.57999 27.0678 9.47999 27.0478 9.41999C26.9678 9.09999 26.9478 8.78999 26.9878 8.48999C27.0278 8.18999 27.0878 7.90999 27.1678 7.64999C27.1478 7.54999 27.1278 7.44999 27.1078 7.34999C27.1078 7.24999 27.1078 7.14999 27.1078 7.04999C27.1478 7.00999 27.1878 6.97999 27.2278 6.95999C27.2678 6.93999 27.2978 6.89999 27.3178 6.83999C27.4178 6.87999 27.4978 6.91999 27.5578 6.95999C27.6378 6.97999 27.7178 6.99999 27.7978 7.01999C28.0778 7.11999 28.3578 7.19999 28.6378 7.25999C28.9178 7.31999 29.2078 7.30999 29.5078 7.22999C29.8478 7.24999 30.1878 7.26999 30.5278 7.28999C30.8878 7.28999 31.2378 7.33999 31.5778 7.43999C31.8578 7.51999 32.0278 7.66999 32.0878 7.88999L32.2978 8.39999ZM47.3339 10.02C47.3339 10.12 47.3239 10.18 47.3039 10.2C47.0639 10.64 46.8339 10.98 46.6139 11.22C46.4139 11.46 46.1939 11.79 45.9539 12.21C45.8539 12.35 45.7039 12.6 45.5039 12.96C45.3039 13.3 45.1839 13.55 45.1439 13.71C44.8439 14.09 44.6039 14.47 44.4239 14.85C44.2639 15.23 44.0539 15.61 43.7939 15.99C43.7339 16.11 43.6639 16.19 43.5839 16.23C43.4039 16.35 43.2539 16.5 43.1339 16.68C43.0139 16.84 42.9039 17 42.8039 17.16C42.6639 17.38 42.5039 17.59 42.3239 17.79C42.1439 17.97 41.9439 18.13 41.7239 18.27C41.5039 18.59 41.3639 18.9 41.3039 19.2C41.3239 19.3 41.3539 19.38 41.3939 19.44C41.4539 19.5 41.5239 19.55 41.6039 19.59C41.7839 19.63 41.9639 19.66 42.1439 19.68C42.3439 19.68 42.5439 19.68 42.7439 19.68C42.7839 19.64 42.8239 19.61 42.8639 19.59C42.9239 19.55 42.9839 19.51 43.0439 19.47C43.1439 19.39 43.2739 19.37 43.4339 19.41C43.7739 19.53 44.1139 19.6 44.4539 19.62C44.8139 19.62 45.1739 19.61 45.5339 19.59C45.7339 19.59 45.9239 19.6 46.1039 19.62C46.3039 19.62 46.4839 19.63 46.6439 19.65C46.7439 19.73 46.8439 19.8 46.9439 19.86C47.0639 19.9 47.1639 19.96 47.2439 20.04C47.2839 20.12 47.3039 20.19 47.3039 20.25C47.2639 20.51 47.2339 20.78 47.2139 21.06C47.1939 21.34 47.1639 21.63 47.1239 21.93C47.1239 21.97 47.1239 22.02 47.1239 22.08C47.1239 22.12 47.1139 22.19 47.0939 22.29C47.0539 22.43 46.9939 22.58 46.9139 22.74C46.8339 22.9 46.7539 23.06 46.6739 23.22C46.4939 23.3 46.3039 23.36 46.1039 23.4C45.9039 23.44 45.6939 23.44 45.4739 23.4C45.3339 23.46 45.1839 23.53 45.0239 23.61C44.8839 23.67 44.7139 23.7 44.5139 23.7C44.2939 23.7 44.0639 23.73 43.8239 23.79C43.5839 23.85 43.3539 23.93 43.1339 24.03C42.7539 24.17 42.4139 24.14 42.1139 23.94C42.0739 23.92 42.0239 23.91 41.9639 23.91C41.8639 23.93 41.7539 23.95 41.6339 23.97C41.5139 23.97 41.4039 23.99 41.3039 24.03C40.9039 24.15 40.5339 24.16 40.1939 24.06C40.0939 24.02 39.9939 24.02 39.8939 24.06C39.7539 24.12 39.6239 24.14 39.5039 24.12C39.3839 24.1 39.2439 24.08 39.0839 24.06C39.0039 24.1 38.9239 24.13 38.8439 24.15C38.7639 24.17 38.6739 24.2 38.5739 24.24C38.5139 24.2 38.4439 24.15 38.3639 24.09C38.3039 24.05 38.2239 24.02 38.1239 24C37.9639 24 37.7739 24.03 37.5539 24.09C37.4739 24.05 37.3939 24.02 37.3139 24C37.2539 23.96 37.1739 23.93 37.0739 23.91C36.8139 23.93 36.5539 23.94 36.2939 23.94C36.0339 23.94 35.7639 23.9 35.4839 23.82C35.4639 23.78 35.4339 23.74 35.3939 23.7C35.3739 23.64 35.3539 23.59 35.3339 23.55C35.3139 23.45 35.2839 23.34 35.2439 23.22C35.2239 23.1 35.1639 22.99 35.0639 22.89C35.0439 22.45 35.0139 22.01 34.9739 21.57C34.9539 21.13 34.9439 20.69 34.9439 20.25C34.9439 20.15 34.9439 20.06 34.9439 19.98C34.9639 19.88 34.9839 19.79 35.0039 19.71C35.0239 19.61 35.0539 19.51 35.0939 19.41C35.1539 19.29 35.2439 19.21 35.3639 19.17C35.6039 19.01 35.8039 18.83 35.9639 18.63C36.0839 18.43 36.2139 18.24 36.3539 18.06C36.5139 17.88 36.6539 17.69 36.7739 17.49C37.0139 17.15 37.2239 16.81 37.4039 16.47C37.6039 16.11 37.7739 15.73 37.9139 15.33C37.9939 15.27 38.0739 15.2 38.1539 15.12C38.2339 15.04 38.3139 14.96 38.3939 14.88C38.4939 14.84 38.5839 14.81 38.6639 14.79C38.7639 14.77 38.8539 14.75 38.9339 14.73C38.9739 14.69 39.0039 14.66 39.0239 14.64C39.0639 14.6 39.1039 14.56 39.1439 14.52C39.2839 14.24 39.4239 13.98 39.5639 13.74C39.7239 13.48 39.8639 13.22 39.9839 12.96C40.0239 12.86 40.0839 12.76 40.1639 12.66C40.2639 12.56 40.3439 12.46 40.4039 12.36L40.6739 11.4V11.1C40.6539 11.06 40.6039 10.98 40.5239 10.86C40.4039 10.86 40.2739 10.87 40.1339 10.89C40.0139 10.89 39.8939 10.89 39.7739 10.89C39.6339 10.89 39.5039 10.9 39.3839 10.92C39.2639 10.92 39.1339 10.92 38.9939 10.92C38.8739 10.92 38.7439 10.88 38.6039 10.8C38.4839 10.72 38.3639 10.7 38.2439 10.74C38.2239 10.76 38.1939 10.78 38.1539 10.8C38.1139 10.8 38.0839 10.8 38.0639 10.8C37.8639 10.72 37.6739 10.67 37.4939 10.65C37.3139 10.63 37.1339 10.58 36.9539 10.5C36.6939 10.4 36.4139 10.34 36.1139 10.32C35.8339 10.3 35.5439 10.28 35.2439 10.26C35.1639 10.24 35.0839 10.21 35.0039 10.17C34.9239 10.13 34.8439 10.09 34.7639 10.05C34.6839 9.88999 34.6439 9.74999 34.6439 9.62999C34.6639 9.50999 34.6839 9.38999 34.7039 9.26999C34.8239 9.06999 34.8639 8.83999 34.8239 8.57999C34.8239 8.39999 34.8239 8.22999 34.8239 8.06999C34.8239 7.88999 34.8339 7.72999 34.8539 7.58999C34.8939 7.40999 34.9239 7.23999 34.9439 7.07999C34.9839 6.91999 35.0139 6.73999 35.0339 6.53999C35.0739 6.39999 35.1039 6.26999 35.1239 6.14999C35.1639 6.02999 35.2039 5.89999 35.2439 5.75999C35.2839 5.77999 35.3339 5.79999 35.3939 5.81999C35.4539 5.83999 35.5039 5.86999 35.5439 5.90999C35.5839 5.90999 35.6239 5.91999 35.6639 5.93999C35.7039 5.93999 35.7339 5.92999 35.7539 5.90999C36.0139 5.82999 36.2739 5.78999 36.5339 5.78999C36.8139 5.76999 37.0839 5.76999 37.3439 5.78999C37.4839 5.80999 37.6139 5.81999 37.7339 5.81999C37.8739 5.79999 38.0139 5.78999 38.1539 5.78999C38.3139 5.78999 38.4439 5.78999 38.5439 5.78999C38.6639 5.78999 38.7939 5.73999 38.9339 5.63999C38.9539 5.61999 38.9939 5.62999 39.0539 5.66999C39.1139 5.68999 39.1539 5.68999 39.1739 5.66999C39.3139 5.72999 39.4139 5.77999 39.4739 5.81999C39.5539 5.83999 39.6939 5.85999 39.8939 5.87999C40.2139 5.97999 40.5239 5.96999 40.8239 5.84999C40.8639 5.82999 40.9039 5.81999 40.9439 5.81999C40.9839 5.81999 41.0139 5.80999 41.0339 5.78999H42.1739C42.2739 5.82999 42.3539 5.87999 42.4139 5.93999C42.4939 5.99999 42.5739 6.04999 42.6539 6.08999C42.8739 6.16999 43.0839 6.19999 43.2839 6.17999C43.4839 6.15999 43.6739 6.19999 43.8539 6.29999C43.9339 6.27999 44.0039 6.26999 44.0639 6.26999C44.1239 6.24999 44.1839 6.22999 44.2439 6.20999C44.2839 6.22999 44.3139 6.23999 44.3339 6.23999C44.3739 6.21999 44.4139 6.21999 44.4539 6.23999C44.5739 6.25999 44.6839 6.28999 44.7839 6.32999C44.9039 6.34999 45.0239 6.35999 45.1439 6.35999C45.4039 6.37999 45.6539 6.39999 45.8939 6.41999C46.1539 6.43999 46.4039 6.44999 46.6439 6.44999C46.7039 6.52999 46.7539 6.60999 46.7939 6.68999C46.8539 6.74999 46.9139 6.81999 46.9739 6.89999C47.0139 6.93999 47.0639 6.97999 47.1239 7.01999C47.1839 7.05999 47.2239 7.09999 47.2439 7.13999C47.3439 7.71999 47.3939 8.16999 47.3939 8.48999C47.3939 8.78999 47.3439 9.13999 47.2439 9.53999C47.2639 9.61999 47.2739 9.69999 47.2739 9.77999C47.2939 9.85999 47.3139 9.93999 47.3339 10.02ZM59.9311 7.67999C59.9911 7.81999 60.0211 7.96999 60.0211 8.12999C60.0411 8.28999 60.0011 8.44999 59.9011 8.60999C59.8611 8.68999 59.8411 8.76999 59.8411 8.84999C59.8611 8.90999 59.8711 8.98999 59.8711 9.08999C59.8311 9.14999 59.7811 9.20999 59.7211 9.26999C59.6611 9.30999 59.6111 9.36999 59.5711 9.44999C59.5311 9.48999 59.4911 9.53999 59.4511 9.59999C59.4311 9.65999 59.3811 9.70999 59.3011 9.74999C59.2011 9.72999 59.0811 9.71999 58.9411 9.71999C58.8011 9.71999 58.6711 9.71999 58.5511 9.71999C58.2511 9.71999 57.9811 9.79999 57.7411 9.95999C57.6611 10.04 57.5811 10.1 57.5011 10.14C57.4211 10.16 57.3411 10.19 57.2611 10.23C57.1411 10.35 57.1011 10.47 57.1411 10.59V11.16C57.1611 11.34 57.1811 11.52 57.2011 11.7C57.2411 11.86 57.2511 12.04 57.2311 12.24C57.2111 12.28 57.2111 12.34 57.2311 12.42C57.2511 12.48 57.2711 12.53 57.2911 12.57C57.2711 12.65 57.2411 12.72 57.2011 12.78C57.1811 12.82 57.1611 12.88 57.1411 12.96C57.1611 13.04 57.1811 13.12 57.2011 13.2C57.2211 13.26 57.2411 13.33 57.2611 13.41C57.2611 13.51 57.2511 13.58 57.2311 13.62C57.1911 13.74 57.1511 13.86 57.1111 13.98C57.0911 14.1 57.0611 14.22 57.0211 14.34C56.9611 14.48 56.9511 14.61 56.9911 14.73C57.0311 14.85 57.0211 14.97 56.9611 15.09C56.9611 15.51 56.9411 15.92 56.9011 16.32C56.8611 16.72 56.8311 17.12 56.8111 17.52C56.8111 18.04 56.9011 18.57 57.0811 19.11C57.1611 19.29 57.2911 19.38 57.4711 19.38C57.5111 19.36 57.5511 19.33 57.5911 19.29C57.6511 19.25 57.7111 19.22 57.7711 19.2C57.8311 19.2 57.8811 19.22 57.9211 19.26C58.0811 19.44 58.2611 19.56 58.4611 19.62C58.7811 19.7 58.8711 19.86 58.7311 20.1C58.6711 20.24 58.6411 20.39 58.6411 20.55C58.6611 20.71 58.6611 20.87 58.6411 21.03C58.6011 21.47 58.5811 21.92 58.5811 22.38C58.5811 22.82 58.6111 23.27 58.6711 23.73C58.6711 23.95 58.6511 24.09 58.6111 24.15C58.5911 24.23 58.4711 24.35 58.2511 24.51H58.1611C58.0011 24.49 57.8411 24.47 57.6811 24.45C57.5411 24.43 57.4011 24.41 57.2611 24.39C56.8811 24.45 56.5411 24.48 56.2411 24.48C56.1011 24.5 55.9611 24.53 55.8211 24.57C55.7011 24.63 55.5611 24.65 55.4011 24.63C55.2411 24.59 55.0811 24.59 54.9211 24.63C54.7611 24.67 54.6011 24.69 54.4411 24.69C54.3611 24.65 54.2811 24.62 54.2011 24.6C54.1411 24.58 54.0611 24.55 53.9611 24.51C53.4811 24.59 53.0011 24.64 52.5211 24.66C52.0411 24.68 51.5511 24.7 51.0511 24.72C50.9511 24.58 50.8511 24.45 50.7511 24.33C50.6511 24.23 50.5611 24.12 50.4811 24C50.4411 23.86 50.3611 23.74 50.2411 23.64C50.1411 23.54 50.0411 23.45 49.9411 23.37C49.9211 23.17 49.8811 22.98 49.8211 22.8C49.7811 22.64 49.7811 22.48 49.8211 22.32C49.8811 22.22 49.9011 22.12 49.8811 22.02C49.8411 21.84 49.8311 21.66 49.8511 21.48C49.8911 21.28 49.9311 21.09 49.9711 20.91V20.55C50.1311 20.51 50.2911 20.48 50.4511 20.46C50.6111 20.42 50.7711 20.42 50.9311 20.46C51.0111 20.42 51.0811 20.38 51.1411 20.34C51.2011 20.28 51.2711 20.22 51.3511 20.16C51.4511 20.2 51.5511 20.24 51.6511 20.28C51.7511 20.32 51.8611 20.36 51.9811 20.4C52.1811 20.28 52.4111 20.12 52.6711 19.92C52.7111 19.8 52.7311 19.71 52.7311 19.65C52.7311 19.43 52.7311 19.21 52.7311 18.99C52.7311 18.75 52.7411 18.52 52.7611 18.3V18.21C52.6811 18.01 52.6511 17.82 52.6711 17.64C52.6911 17.46 52.6911 17.27 52.6711 17.07V16.68C52.7111 16.22 52.7211 15.77 52.7011 15.33C52.7011 14.87 52.6911 14.41 52.6711 13.95L52.8811 13.56C52.8611 13.46 52.8411 13.36 52.8211 13.26C52.8011 13.16 52.7811 13.06 52.7611 12.96C52.7811 12.86 52.8011 12.77 52.8211 12.69C52.8611 12.61 52.8911 12.52 52.9111 12.42C52.9111 12.34 52.9011 12.28 52.8811 12.24C52.7811 12 52.7411 11.78 52.7611 11.58V11.13C52.7611 11.05 52.7411 10.99 52.7011 10.95C52.6611 10.89 52.6411 10.82 52.6411 10.74C52.6611 10.7 52.6711 10.61 52.6711 10.47C52.6511 10.35 52.6311 10.23 52.6111 10.11C52.5911 9.98999 52.5611 9.86999 52.5211 9.74999C52.4211 9.64999 52.3111 9.61999 52.1911 9.65999C52.0711 9.67999 51.9611 9.67999 51.8611 9.65999C51.7611 9.61999 51.6511 9.59999 51.5311 9.59999C51.4111 9.59999 51.2811 9.59999 51.1411 9.59999C51.0011 9.51999 50.8411 9.48999 50.6611 9.50999C50.5011 9.50999 50.3411 9.47999 50.1811 9.41999C50.1011 9.31999 50.0611 9.19999 50.0611 9.05999C50.0811 8.91999 50.0611 8.81999 50.0011 8.75999C49.9611 8.67999 49.9611 8.57999 50.0011 8.45999C50.0411 8.31999 50.0411 8.19999 50.0011 8.09999C50.0811 7.99999 50.0911 7.92999 50.0311 7.88999C49.9711 7.84999 49.9711 7.76999 50.0311 7.64999C50.0911 7.54999 50.1211 7.43999 50.1211 7.31999C50.1211 7.17999 50.1611 7.06999 50.2411 6.98999C50.2811 6.94999 50.2911 6.88999 50.2711 6.80999C50.2711 6.70999 50.2811 6.61999 50.3011 6.53999C50.3411 6.49999 50.4311 6.47999 50.5711 6.47999C50.7111 6.45999 50.7911 6.42999 50.8111 6.38999C50.8911 6.28999 50.9811 6.21999 51.0811 6.17999C51.2011 6.13999 51.3211 6.08999 51.4411 6.02999C51.4811 6.02999 51.5311 6.02999 51.5911 6.02999C51.6511 6.00999 51.7211 5.99999 51.8011 5.99999C51.9611 5.99999 52.1311 5.99999 52.3111 5.99999C52.4911 5.99999 52.6611 5.98999 52.8211 5.96999C52.9811 5.92999 53.1411 5.89999 53.3011 5.87999C53.4611 5.83999 53.6311 5.80999 53.8111 5.78999C53.9911 5.74999 54.1711 5.75999 54.3511 5.81999C54.6111 5.89999 54.9311 5.88999 55.3111 5.78999C55.3911 5.76999 55.4611 5.74999 55.5211 5.72999C55.5811 5.70999 55.6311 5.68999 55.6711 5.66999C55.8111 5.68999 55.9311 5.70999 56.0311 5.72999C56.1511 5.74999 56.2511 5.75999 56.3311 5.75999C56.3911 5.75999 56.4511 5.74999 56.5111 5.72999C56.5911 5.70999 56.6511 5.69999 56.6911 5.69999C56.8911 5.69999 57.0711 5.70999 57.2311 5.72999C57.4111 5.72999 57.5911 5.74999 57.7711 5.78999C58.1511 5.84999 58.4911 5.86999 58.7911 5.84999C58.8911 5.82999 58.9711 5.82999 59.0311 5.84999C59.1111 5.84999 59.1611 5.84999 59.1811 5.84999C59.3211 5.86999 59.4211 5.91999 59.4811 5.99999C59.5611 6.05999 59.6211 6.10999 59.6611 6.14999C59.9811 6.46999 60.0511 6.79999 59.8711 7.13999C59.8511 7.15999 59.8411 7.22999 59.8411 7.34999C59.8611 7.38999 59.8711 7.43999 59.8711 7.49999C59.8911 7.53999 59.9111 7.59999 59.9311 7.67999ZM74.5075 9.56999C74.3875 9.66999 74.2474 9.71999 74.0874 9.71999C73.9274 9.71999 73.7675 9.71999 73.6075 9.71999C73.4675 9.71999 73.3475 9.74999 73.2475 9.80999L72.7374 9.71999C72.6574 9.73999 72.5875 9.75999 72.5275 9.77999C72.4675 9.77999 72.3875 9.78999 72.2875 9.80999C72.2275 9.80999 72.1175 9.78999 71.9575 9.74999C71.7175 9.70999 71.5075 9.71999 71.3275 9.77999C71.0875 9.85999 70.8174 9.88999 70.5174 9.86999C70.3374 9.82999 70.1474 9.83999 69.9474 9.89999C69.7674 9.93999 69.5975 9.97999 69.4375 10.02C69.3575 9.99999 69.2774 9.98999 69.1974 9.98999C69.1374 9.96999 69.0874 9.94999 69.0474 9.92999C68.9274 9.94999 68.8075 9.98999 68.6875 10.05C68.5875 10.11 68.4775 10.18 68.3575 10.26C68.2975 10.34 68.2375 10.44 68.1775 10.56C68.1375 10.66 68.0775 10.76 67.9975 10.86C67.9775 11.1 67.9675 11.35 67.9675 11.61C67.9675 11.85 67.9575 12.08 67.9375 12.3C67.9175 12.46 67.8575 12.59 67.7575 12.69C67.6775 12.77 67.6375 12.87 67.6375 12.99C67.6975 13.15 67.8075 13.24 67.9675 13.26C68.0875 13.3 68.2175 13.33 68.3575 13.35C68.4975 13.35 68.6375 13.36 68.7775 13.38C68.9375 13.32 69.0975 13.26 69.2575 13.2C69.4175 13.14 69.5675 13.08 69.7075 13.02C69.9275 13.02 70.1175 13.02 70.2775 13.02C70.4375 13.02 70.5975 13.01 70.7575 12.99C70.8175 12.99 70.8775 12.99 70.9375 12.99C70.9975 12.97 71.0575 12.95 71.1175 12.93C71.3975 12.81 71.6775 12.75 71.9575 12.75C72.2375 12.75 72.5174 12.77 72.7974 12.81C72.9974 12.87 73.1275 13.02 73.1875 13.26C73.1875 13.3 73.1875 13.35 73.1875 13.41C73.2075 13.45 73.2275 13.5 73.2475 13.56C73.2275 13.62 73.2075 13.69 73.1875 13.77C73.1675 13.85 73.1574 13.94 73.1574 14.04C73.1774 14.36 73.1674 14.68 73.1274 15C73.1074 15.32 73.1074 15.65 73.1274 15.99C73.1474 16.13 73.1275 16.27 73.0675 16.41C73.0275 16.55 72.9774 16.67 72.9174 16.77L72.8275 16.83C72.7075 16.85 72.5975 16.85 72.4975 16.83C72.4175 16.79 72.3274 16.77 72.2274 16.77C72.1074 16.77 72.0075 16.8 71.9275 16.86C71.8475 16.92 71.7574 16.97 71.6574 17.01C71.5174 17.03 71.3675 17.04 71.2075 17.04C71.0675 17.04 70.9175 17.03 70.7575 17.01C70.6775 16.97 70.5874 16.97 70.4874 17.01C70.4074 17.05 70.3275 17.09 70.2475 17.13C70.0675 17.11 69.8875 17.09 69.7075 17.07C69.5475 17.03 69.3874 16.97 69.2274 16.89C69.1074 16.89 68.9875 16.89 68.8675 16.89C68.7475 16.89 68.6174 16.9 68.4774 16.92C68.2174 16.94 67.9474 16.94 67.6674 16.92C67.4474 16.88 67.2475 16.94 67.0675 17.1C67.0275 17.12 66.9874 17.18 66.9474 17.28C66.9074 17.36 66.8974 17.43 66.9174 17.49C66.9974 17.65 67.0375 17.82 67.0375 18C67.0575 18.18 67.0675 18.35 67.0675 18.51C67.0875 18.57 67.1074 18.62 67.1274 18.66C67.1474 18.7 67.1675 18.74 67.1875 18.78C67.1675 18.82 67.1375 18.86 67.0975 18.9C67.0775 18.94 67.0575 18.98 67.0375 19.02C66.9575 19.22 67.0075 19.34 67.1875 19.38C67.4275 19.44 67.6674 19.5 67.9074 19.56C68.1674 19.62 68.4275 19.67 68.6875 19.71C68.7475 19.69 68.8175 19.67 68.8975 19.65C68.9775 19.63 69.0475 19.62 69.1075 19.62C69.3875 19.62 69.6674 19.6 69.9474 19.56C70.2474 19.5 70.5375 19.47 70.8175 19.47C70.8775 19.47 70.9475 19.47 71.0275 19.47C71.1075 19.45 71.1874 19.45 71.2674 19.47C71.4274 19.53 71.5975 19.57 71.7775 19.59C71.9575 19.61 72.1375 19.62 72.3175 19.62C72.4375 19.62 72.5475 19.63 72.6475 19.65C72.7675 19.65 72.8875 19.66 73.0075 19.68C73.1675 19.72 73.2475 19.8 73.2475 19.92C73.2275 20.02 73.1874 20.13 73.1274 20.25C73.0874 20.35 73.0475 20.44 73.0075 20.52C72.9875 20.66 73.0075 20.77 73.0675 20.85C73.1275 20.93 73.1675 21.01 73.1875 21.09C73.1675 21.29 73.1375 21.48 73.0975 21.66C73.0775 21.84 73.0174 22 72.9174 22.14C72.9174 22.26 72.9475 22.35 73.0075 22.41C73.0675 22.47 73.1074 22.54 73.1274 22.62C73.0874 22.66 73.0475 22.72 73.0075 22.8C72.9875 22.86 72.9574 22.93 72.9174 23.01C72.9574 23.17 72.9875 23.34 73.0075 23.52C73.0475 23.7 73.0075 23.87 72.8875 24.03C72.8275 24.05 72.7575 24.08 72.6775 24.12C72.6175 24.18 72.5475 24.2 72.4675 24.18C72.2675 24.14 72.0675 24.14 71.8675 24.18C71.6875 24.22 71.5075 24.25 71.3275 24.27C71.1875 24.29 71.0575 24.33 70.9375 24.39C70.8175 24.45 70.6975 24.5 70.5775 24.54C70.3775 24.58 70.1774 24.61 69.9774 24.63C69.7774 24.65 69.5675 24.68 69.3475 24.72L68.9275 24.63C68.7475 24.65 68.5374 24.68 68.2974 24.72L67.4874 24.54C67.4074 24.48 67.3275 24.41 67.2475 24.33C67.1875 24.27 67.1075 24.22 67.0075 24.18C66.9875 24.16 66.9475 24.15 66.8875 24.15C66.8475 24.17 66.8275 24.19 66.8275 24.21C66.8275 24.41 66.7175 24.54 66.4975 24.6C66.3975 24.56 66.2874 24.53 66.1674 24.51C66.0474 24.49 65.9374 24.47 65.8374 24.45C65.7374 24.43 65.6275 24.42 65.5075 24.42C65.3875 24.44 65.2774 24.45 65.1774 24.45C64.9374 24.45 64.6974 24.42 64.4574 24.36C64.2374 24.3 64.0074 24.17 63.7674 23.97C63.7474 23.91 63.7174 23.85 63.6774 23.79C63.6374 23.73 63.5974 23.66 63.5574 23.58C63.4774 23.54 63.3974 23.49 63.3174 23.43C63.2574 23.37 63.1874 23.32 63.1074 23.28L62.7774 23.1C62.6974 22.98 62.6574 22.87 62.6574 22.77C62.6574 22.65 62.6474 22.54 62.6274 22.44C62.6074 22.34 62.5874 22.24 62.5674 22.14C62.5674 22.02 62.5574 21.9 62.5374 21.78C62.5774 21.54 62.5974 21.3 62.5974 21.06C62.6174 20.82 62.6174 20.57 62.5974 20.31C62.5774 20.09 62.5774 19.87 62.5974 19.65C62.6374 19.41 62.6974 19.18 62.7774 18.96C62.7574 18.88 62.7274 18.81 62.6874 18.75C62.6674 18.69 62.6574 18.62 62.6574 18.54C62.6574 18.44 62.6774 18.34 62.7174 18.24C62.7574 18.14 62.7574 18.04 62.7174 17.94C62.7174 17.9 62.7274 17.87 62.7474 17.85C62.7874 17.83 62.8174 17.81 62.8374 17.79C62.8974 17.65 62.8774 17.57 62.7774 17.55C62.5774 17.49 62.4774 17.39 62.4774 17.25C62.5174 17.13 62.5274 17.01 62.5074 16.89C62.4874 16.77 62.4774 16.64 62.4774 16.5C62.4774 16.4 62.4874 16.3 62.5074 16.2C62.5274 16.1 62.5174 16 62.4774 15.9C62.4774 15.88 62.4674 15.85 62.4474 15.81C62.4474 15.77 62.4574 15.74 62.4774 15.72C62.5774 15.5 62.6074 15.29 62.5674 15.09C62.5474 14.89 62.5074 14.69 62.4474 14.49C62.5274 14.31 62.5774 14.14 62.5974 13.98C62.6174 13.8 62.6274 13.62 62.6274 13.44V12.63C62.6474 12.57 62.6574 12.51 62.6574 12.45C62.6574 12.37 62.6674 12.31 62.6874 12.27C62.8474 11.83 62.8374 11.37 62.6574 10.89C62.6374 10.85 62.6274 10.79 62.6274 10.71C62.6674 10.59 62.7074 10.48 62.7474 10.38C62.8074 10.26 62.8474 10.14 62.8674 10.02C62.9074 9.85999 62.9474 9.68999 62.9874 9.50999C63.0474 9.32999 63.0874 9.15999 63.1074 8.99999V8.78999C63.0874 8.68999 63.0774 8.58999 63.0774 8.48999C63.0974 8.36999 63.0974 8.25999 63.0774 8.15999C63.0574 8.05999 63.0474 7.95999 63.0474 7.85999C63.0674 7.75999 63.0774 7.66999 63.0774 7.58999C63.0774 7.50999 63.0674 7.44999 63.0474 7.40999C63.0474 7.34999 63.0374 7.28999 63.0174 7.22999C63.0574 7.08999 63.1374 6.97999 63.2574 6.89999C63.3774 6.81999 63.4474 6.71999 63.4674 6.59999C63.7074 6.43999 63.9475 6.33999 64.1875 6.29999C64.4475 6.23999 64.6874 6.14999 64.9074 6.02999C65.1274 5.90999 65.3575 5.83999 65.5975 5.81999C65.8375 5.79999 66.0675 5.74999 66.2875 5.66999C66.4275 5.70999 66.5575 5.74999 66.6775 5.78999C66.8175 5.82999 66.9575 5.86999 67.0975 5.90999C67.1775 5.90999 67.2574 5.90999 67.3374 5.90999C67.4374 5.88999 67.5275 5.86999 67.6075 5.84999C67.7475 5.86999 67.8775 5.89999 67.9975 5.93999C68.1175 5.97999 68.2475 5.98999 68.3875 5.96999C68.6075 5.90999 68.8174 5.90999 69.0174 5.96999C69.1174 5.96999 69.2075 5.97999 69.2875 5.99999C69.3675 5.99999 69.4475 6.00999 69.5275 6.02999C69.8275 5.80999 70.1474 5.74999 70.4874 5.84999C70.6474 5.90999 70.8075 5.92999 70.9675 5.90999C71.1275 5.88999 71.2874 5.90999 71.4474 5.96999C71.6074 6.00999 71.7575 6.02999 71.8975 6.02999C72.0575 6.00999 72.2075 5.99999 72.3475 5.99999C72.5275 5.95999 72.7075 5.95999 72.8875 5.99999C73.0475 6.03999 73.2175 6.06999 73.3975 6.08999C73.5975 6.10999 73.7775 6.11999 73.9375 6.11999C74.0375 6.11999 74.1775 6.18999 74.3575 6.32999C74.6375 7.42999 74.6875 8.50999 74.5075 9.56999Z" fill="#4BBF40"/>
<path d="M108.572 9.24002C108.492 9.30002 108.452 9.45003 108.452 9.69003C108.452 9.91003 108.422 10.07 108.362 10.17C108.322 10.25 108.252 10.33 108.152 10.41C108.072 10.47 108.002 10.55 107.942 10.65C107.962 10.69 107.982 10.74 108.002 10.8C108.022 10.86 108.042 10.91 108.062 10.95C107.982 11.05 107.902 11.15 107.822 11.25C107.742 11.35 107.652 11.46 107.552 11.58C107.492 11.58 107.402 11.6 107.282 11.64C107.202 11.66 107.162 11.72 107.162 11.82C107.162 11.9 107.172 11.99 107.192 12.09C107.232 12.17 107.252 12.26 107.252 12.36C107.172 12.66 107.092 12.96 107.012 13.26C106.932 13.56 106.802 13.84 106.622 14.1C106.602 14.42 106.512 14.73 106.352 15.03C106.192 15.31 106.052 15.61 105.932 15.93C105.872 16.05 105.822 16.17 105.782 16.29C105.762 16.41 105.732 16.54 105.692 16.68C105.612 16.76 105.542 16.84 105.482 16.92C105.422 17 105.342 17.08 105.242 17.16C105.182 17.26 105.132 17.37 105.092 17.49C105.052 17.61 105.012 17.73 104.972 17.85C104.892 17.95 104.822 18.06 104.762 18.18C104.722 18.3 104.662 18.41 104.582 18.51C104.402 18.83 104.262 19.17 104.162 19.53C104.082 19.87 104.042 20.21 104.042 20.55C103.982 20.69 103.922 20.82 103.862 20.94C103.822 21.04 103.752 21.14 103.652 21.24C103.572 21.38 103.502 21.53 103.442 21.69C103.402 21.83 103.332 21.97 103.232 22.11C103.052 22.41 102.942 22.61 102.902 22.71C102.862 22.81 102.842 22.91 102.842 23.01C102.862 23.11 102.822 23.32 102.722 23.64C102.642 23.74 102.512 23.84 102.332 23.94C102.152 24.04 101.992 24.11 101.852 24.15C101.772 24.11 101.642 24.09 101.462 24.09C101.282 24.11 101.152 24.11 101.072 24.09C100.972 24.07 100.862 24.06 100.742 24.06C100.622 24.06 100.512 24.06 100.412 24.06C100.272 24.06 100.122 24.06 99.9618 24.06C99.8218 24.06 99.6818 24.05 99.5418 24.03C99.4218 23.99 99.3318 23.93 99.2718 23.85C99.1918 23.65 99.1218 23.47 99.0618 23.31C99.0218 23.13 99.0318 22.95 99.0918 22.77C99.1118 22.69 99.0818 22.62 99.0018 22.56C98.9418 22.5 98.8918 22.46 98.8518 22.44C98.7918 22.32 98.7318 22.2 98.6718 22.08C98.6318 21.94 98.5618 21.81 98.4618 21.69C98.3418 21.49 98.2218 21.3 98.1018 21.12C97.9818 20.94 97.8718 20.75 97.7718 20.55C97.7518 20.47 97.6918 20.4 97.5918 20.34C97.5118 20.28 97.4718 20.21 97.4718 20.13C97.4718 19.97 97.4418 19.83 97.3818 19.71C97.3418 19.59 97.2918 19.46 97.2318 19.32C97.1918 19.2 97.1418 19.08 97.0818 18.96C97.0418 18.82 97.0018 18.69 96.9618 18.57C96.8818 18.35 96.7918 18.16 96.6918 18C96.4918 17.72 96.2818 17.44 96.0618 17.16C95.8618 16.88 95.6518 16.61 95.4318 16.35C95.2918 16.15 95.1318 16.05 94.9518 16.05C94.8718 16.05 94.8318 16.09 94.8318 16.17C94.8318 16.31 94.8318 16.44 94.8318 16.56C94.8518 16.68 94.8618 16.8 94.8618 16.92C94.8618 17.28 94.7618 17.56 94.5618 17.76C94.4218 17.9 94.3318 18.06 94.2918 18.24C94.2518 18.4 94.2118 18.56 94.1718 18.72C94.1118 18.9 94.0318 19.07 93.9318 19.23C93.8518 19.39 93.7918 19.55 93.7518 19.71C93.6318 19.83 93.5218 19.94 93.4218 20.04C93.3218 20.14 93.2418 20.26 93.1818 20.4C93.1218 20.58 93.0318 20.74 92.9118 20.88C92.7918 21.02 92.7118 21.19 92.6718 21.39C92.6518 21.57 92.5718 21.73 92.4318 21.87C92.3118 22.01 92.2418 22.18 92.2218 22.38C92.1818 22.5 92.1218 22.62 92.0418 22.74C91.9818 22.84 91.9318 22.95 91.8918 23.07C91.7918 23.19 91.7118 23.35 91.6518 23.55C91.3318 23.69 91.0618 23.78 90.8418 23.82C90.6418 23.86 90.3418 23.92 89.9418 24C89.8018 23.96 89.6418 23.91 89.4618 23.85C89.3018 23.79 89.1218 23.74 88.9218 23.7C88.8618 23.72 88.8018 23.74 88.7418 23.76C88.6818 23.78 88.6118 23.8 88.5318 23.82C88.4918 23.86 88.4418 23.89 88.3818 23.91C88.3418 23.93 88.3018 23.95 88.2618 23.97C88.1218 23.95 87.9918 23.93 87.8718 23.91C87.7518 23.87 87.6218 23.87 87.4818 23.91C87.3818 23.73 87.2718 23.56 87.1518 23.4C87.0518 23.22 86.9818 23.03 86.9418 22.83C86.9218 22.61 86.8518 22.43 86.7318 22.29C86.6118 22.13 86.5318 21.95 86.4918 21.75C86.4318 21.65 86.3618 21.57 86.2818 21.51C86.2218 21.45 86.1618 21.39 86.1018 21.33C86.0218 21.13 85.9618 20.92 85.9218 20.7C85.8818 20.48 85.8618 20.26 85.8618 20.04C85.6018 19.74 85.4718 19.42 85.4718 19.08C85.2518 18.78 85.1118 18.59 85.0518 18.51C85.0118 18.41 84.9718 18.23 84.9318 17.97C84.7318 17.71 84.5218 17.44 84.3018 17.16C84.1018 16.88 83.8918 16.61 83.6718 16.35C83.5918 16.03 83.5118 15.72 83.4318 15.42C83.3718 15.12 83.3018 14.82 83.2218 14.52C83.1218 14.12 83.0018 13.74 82.8618 13.38C82.7218 13 82.6018 12.62 82.5018 12.24C82.4618 12.06 82.4118 11.9 82.3518 11.76C82.2918 11.6 82.2418 11.44 82.2018 11.28C82.2018 11.2 82.1818 11.13 82.1418 11.07C82.1218 10.99 82.0918 10.93 82.0518 10.89C81.9718 10.79 81.9218 10.69 81.9018 10.59C81.8818 10.47 81.8618 10.36 81.8418 10.26C81.8218 10.12 81.7918 10 81.7518 9.90002C81.7118 9.78002 81.6718 9.66003 81.6318 9.54003C81.7718 9.20003 81.9718 8.90002 82.2318 8.64002C82.3318 8.58002 82.4218 8.55002 82.5018 8.55002C82.6018 8.53002 82.6918 8.50002 82.7718 8.46002C83.0718 8.38002 83.2918 8.30002 83.4318 8.22002C83.5718 8.12002 83.7818 8.00003 84.0618 7.86003C84.5418 7.58003 85.0418 7.38003 85.5618 7.26003C85.6618 7.28003 85.7318 7.32002 85.7718 7.38002C85.8118 7.44002 85.8418 7.51002 85.8618 7.59002C85.9218 7.79002 85.9818 8.00002 86.0418 8.22002C86.1218 8.42002 86.2318 8.61003 86.3718 8.79003C86.4718 9.07003 86.5918 9.35002 86.7318 9.63002C86.8918 9.91002 87.0318 10.18 87.1518 10.44C87.1718 10.46 87.2218 10.56 87.3018 10.74C87.3818 10.9 87.4618 11.07 87.5418 11.25C87.6418 11.41 87.7018 11.49 87.7218 11.49C88.0018 11.73 88.2018 11.92 88.3218 12.06C88.4618 12.2 88.5818 12.36 88.6818 12.54C88.7818 12.7 88.8918 12.95 89.0118 13.29C89.1118 13.51 89.2118 13.73 89.3118 13.95C89.4118 14.17 89.5018 14.4 89.5818 14.64C89.6018 14.78 89.6118 14.92 89.6118 15.06C89.6118 15.2 89.6218 15.35 89.6418 15.51C89.7018 15.61 89.7518 15.72 89.7918 15.84C89.8518 15.96 89.9018 16.08 89.9418 16.2C90.0218 16.24 90.0918 16.26 90.1518 16.26C90.1518 16.28 90.1618 16.29 90.1818 16.29C90.2218 16.27 90.2418 16.25 90.2418 16.23C90.3818 16.01 90.5018 15.8 90.6018 15.6C90.7218 15.4 90.8018 15.19 90.8418 14.97C90.8618 14.81 90.9018 14.68 90.9618 14.58C91.0218 14.48 91.0618 14.37 91.0818 14.25C91.0618 14.15 91.0518 14.04 91.0518 13.92C91.0518 13.8 91.0418 13.69 91.0218 13.59C91.1018 13.43 91.1718 13.29 91.2318 13.17C91.3118 13.05 91.3818 12.93 91.4418 12.81C91.4818 12.69 91.5118 12.57 91.5318 12.45C91.5718 12.31 91.6218 12.19 91.6818 12.09C91.7818 11.87 91.8818 11.67 91.9818 11.49C92.0818 11.29 92.1918 11.08 92.3118 10.86C92.3318 10.76 92.3218 10.66 92.2818 10.56C92.2418 10.46 92.2118 10.37 92.1918 10.29C92.2118 10.25 92.2218 10.21 92.2218 10.17C92.2418 10.11 92.2718 10.07 92.3118 10.05C92.5718 9.93002 92.7518 9.73003 92.8518 9.45003C93.0118 9.09003 93.1318 8.80002 93.2118 8.58002C93.3118 8.34002 93.4718 8.06002 93.6918 7.74002C93.7318 7.68002 93.8318 7.56002 93.9918 7.38002C94.1518 7.18002 94.2518 7.04002 94.2918 6.96002C94.3118 6.90002 94.3718 6.85002 94.4718 6.81002C94.5518 6.83002 94.6118 6.86002 94.6518 6.90002C94.7118 6.92002 94.7818 6.95002 94.8618 6.99002C94.9418 6.99002 95.0118 6.98002 95.0718 6.96002C95.2118 6.82002 95.3718 6.75002 95.5518 6.75002C95.7118 6.73002 95.8718 6.72002 96.0318 6.72002C96.2118 6.70002 96.3718 6.71002 96.5118 6.75002C96.6718 6.79002 96.7818 6.86002 96.8418 6.96002C96.9018 7.06002 97.0018 7.09002 97.1418 7.05002C97.2818 7.23002 97.3718 7.42003 97.4118 7.62003C97.4518 7.82003 97.5218 8.00002 97.6218 8.16002C97.7018 8.26002 97.8018 8.32002 97.9218 8.34002C98.0618 8.36002 98.1518 8.40002 98.1918 8.46002C98.2918 8.60002 98.3418 8.74002 98.3418 8.88002C98.3618 9.00002 98.3818 9.11002 98.4018 9.21002C98.4418 9.31002 98.4718 9.41003 98.4918 9.51003C98.5318 9.61003 98.5418 9.73003 98.5218 9.87003C98.5018 9.89003 98.5018 9.93002 98.5218 9.99002C98.5618 10.05 98.5918 10.1 98.6118 10.14C98.6518 10.2 98.7018 10.26 98.7618 10.32C98.8218 10.36 98.8618 10.4 98.8818 10.44L99.0918 10.95C99.1118 10.97 99.1318 11 99.1518 11.04C99.1918 11.06 99.2118 11.09 99.2118 11.13C99.2318 11.21 99.2418 11.3 99.2418 11.4C99.2618 11.48 99.2718 11.57 99.2718 11.67C99.2718 12.09 99.3418 12.45 99.4818 12.75C99.5818 13.01 99.6618 13.2 99.7218 13.32C99.7818 13.42 99.9518 13.59 100.232 13.83C100.272 13.89 100.302 13.96 100.322 14.04C100.362 14.12 100.402 14.2 100.442 14.28C100.462 14.32 100.502 14.43 100.562 14.61C100.642 14.77 100.722 14.92 100.802 15.06C100.882 15.2 100.942 15.27 100.982 15.27C101.102 15.21 101.212 15.06 101.312 14.82C101.412 14.58 101.512 14.33 101.612 14.07C101.712 13.81 101.802 13.64 101.882 13.56C101.942 13.34 102.002 13.12 102.062 12.9C102.142 12.68 102.192 12.45 102.212 12.21C102.232 11.97 102.272 11.74 102.332 11.52C102.412 11.28 102.462 11.05 102.482 10.83C102.502 10.77 102.592 10.65 102.752 10.47C102.932 10.27 103.032 10.16 103.052 10.14C103.232 9.74002 103.312 9.43002 103.292 9.21002C103.292 8.97002 103.372 8.66003 103.532 8.28003C103.632 8.10003 103.742 7.93003 103.862 7.77003C103.982 7.61003 104.082 7.45003 104.162 7.29003C104.342 7.17003 104.512 7.13002 104.672 7.17002C104.832 7.19002 104.982 7.18002 105.122 7.14002C105.362 7.20002 105.562 7.23002 105.722 7.23002C105.882 7.23002 106.052 7.29002 106.232 7.41002C106.332 7.45002 106.442 7.50002 106.562 7.56002C106.702 7.62002 106.822 7.67002 106.922 7.71002C107.002 7.83002 107.102 7.94003 107.222 8.04003C107.342 8.12003 107.442 8.22002 107.522 8.34002C107.762 8.50002 107.942 8.63002 108.062 8.73002C108.202 8.83002 108.372 9.00002 108.572 9.24002ZM124.218 22.11C124.198 22.09 124.178 22.08 124.158 22.08L124.188 22.11C124.108 22.15 124.048 22.24 124.008 22.38C123.988 22.52 123.938 22.62 123.858 22.68C123.838 22.74 123.768 22.83 123.648 22.95C123.528 23.07 123.438 23.12 123.378 23.1C123.098 23.04 122.768 23.04 122.388 23.1C122.328 23.16 122.268 23.22 122.208 23.28C122.148 23.34 122.068 23.41 121.968 23.49C121.948 23.49 121.928 23.5 121.908 23.52C121.888 23.52 121.858 23.52 121.818 23.52C121.758 23.54 121.668 23.55 121.548 23.55C120.908 23.53 120.278 23.65 119.658 23.91C119.518 23.95 119.368 23.98 119.208 24C119.048 24 118.888 23.97 118.728 23.91C118.608 23.85 118.488 23.82 118.368 23.82C118.268 23.8 118.158 23.8 118.038 23.82C117.778 23.82 117.528 23.78 117.288 23.7C117.188 23.72 117.078 23.74 116.958 23.76C116.858 23.78 116.758 23.81 116.658 23.85C116.558 23.89 116.458 23.94 116.358 24C116.258 24.08 116.148 24.11 116.028 24.09C116.008 24.05 115.978 24.01 115.938 23.97C115.898 23.91 115.858 23.84 115.818 23.76C115.778 23.74 115.728 23.72 115.668 23.7C115.608 23.66 115.558 23.63 115.518 23.61C115.258 23.57 115.018 23.48 114.798 23.34C114.498 23.14 114.208 22.99 113.928 22.89C113.788 22.85 113.668 22.78 113.568 22.68C113.488 22.56 113.398 22.46 113.298 22.38C113.218 22.18 113.148 21.99 113.088 21.81C113.028 21.63 112.988 21.44 112.968 21.24C112.908 21.2 112.858 21.16 112.818 21.12C112.778 21.06 112.738 21.01 112.698 20.97C112.578 20.89 112.518 20.82 112.518 20.76C112.498 20.58 112.438 20.44 112.338 20.34C112.238 20.24 112.148 20.1 112.068 19.92C112.068 19.88 112.058 19.82 112.038 19.74C112.038 19.66 112.028 19.58 112.008 19.5C112.008 19.46 112.008 19.41 112.008 19.35C112.008 19.27 111.998 19.21 111.978 19.17C111.898 19.01 111.818 18.86 111.738 18.72C111.658 18.56 111.588 18.41 111.528 18.27C111.528 18.17 111.548 18.02 111.588 17.82C111.688 17.4 111.678 16.99 111.558 16.59C111.498 16.45 111.458 16.31 111.438 16.17C111.418 16.03 111.388 15.89 111.348 15.75C111.368 15.71 111.388 15.66 111.408 15.6C111.448 15.52 111.488 15.46 111.528 15.42L111.318 14.79C111.278 14.69 111.218 14.6 111.138 14.52C111.078 14.42 111.018 14.33 110.958 14.25C110.938 14.09 110.968 13.94 111.048 13.8C111.148 13.66 111.208 13.52 111.228 13.38C111.228 13.32 111.218 13.26 111.198 13.2C111.198 13.14 111.198 13.08 111.198 13.02C111.358 12.8 111.458 12.57 111.498 12.33C111.558 12.09 111.598 11.84 111.618 11.58C111.758 11.5 111.878 11.41 111.978 11.31C112.078 11.21 112.148 11.08 112.188 10.92C112.208 10.86 112.218 10.79 112.218 10.71C112.238 10.63 112.258 10.55 112.278 10.47C112.378 10.31 112.478 10.15 112.578 9.99002C112.698 9.81002 112.808 9.65003 112.908 9.51003C112.948 9.41003 112.978 9.30003 112.998 9.18003C113.038 9.06003 113.098 8.96002 113.178 8.88002C113.278 8.82002 113.348 8.74002 113.388 8.64002C113.448 8.54002 113.498 8.44002 113.538 8.34002C113.678 8.32002 113.798 8.29002 113.898 8.25002C113.998 8.21002 114.088 8.18002 114.168 8.16002C114.268 8.10002 114.318 8.04002 114.318 7.98002C114.378 7.70002 114.498 7.50002 114.678 7.38002C114.878 7.24002 115.098 7.14002 115.338 7.08002C115.418 7.06002 115.488 7.05002 115.548 7.05002C115.608 7.03002 115.688 7.01002 115.788 6.99002C115.828 6.95002 115.878 6.90002 115.938 6.84002C115.998 6.76002 116.058 6.68003 116.118 6.60003C116.238 6.56003 116.348 6.52002 116.448 6.48002C116.568 6.44002 116.668 6.40003 116.748 6.36003H116.958C117.118 6.42003 117.278 6.48003 117.438 6.54003C117.618 6.58003 117.808 6.63003 118.008 6.69003C118.168 6.67003 118.328 6.64003 118.488 6.60003C118.668 6.54003 118.838 6.53002 118.998 6.57002C119.018 6.57002 119.038 6.58003 119.058 6.60003C119.078 6.60003 119.098 6.59002 119.118 6.57002C119.258 6.57002 119.398 6.55003 119.538 6.51003C119.678 6.47003 119.818 6.46002 119.958 6.48002C120.078 6.48002 120.198 6.47003 120.318 6.45003C120.458 6.43003 120.588 6.39002 120.708 6.33002C120.808 6.31002 120.898 6.30002 120.978 6.30002C121.078 6.28002 121.178 6.29002 121.278 6.33002C121.338 6.39002 121.398 6.45003 121.458 6.51003C121.518 6.55003 121.588 6.61003 121.668 6.69003C121.828 6.71003 121.998 6.75002 122.178 6.81002C122.378 6.85002 122.578 6.90002 122.778 6.96002C122.878 6.98002 122.968 7.03003 123.048 7.11003C123.148 7.19003 123.268 7.25003 123.408 7.29003C123.528 7.33003 123.648 7.36002 123.768 7.38002C123.908 7.38002 124.048 7.38002 124.188 7.38002C124.508 7.70002 124.888 7.92003 125.328 8.04003C125.368 8.06003 125.408 8.08003 125.448 8.10003C125.488 8.12003 125.528 8.14002 125.568 8.16002C125.728 8.30002 125.878 8.45003 126.018 8.61003C126.178 8.75003 126.328 8.89003 126.468 9.03003C126.608 9.19003 126.688 9.36003 126.708 9.54003C126.868 9.68003 126.958 9.79003 126.978 9.87003C127.018 9.93003 127.038 10.12 127.038 10.44C127.158 10.5 127.268 10.57 127.368 10.65C127.468 10.71 127.528 10.81 127.548 10.95C127.588 11.03 127.628 11.11 127.668 11.19C127.708 11.25 127.738 11.32 127.758 11.4C127.818 11.48 127.878 11.55 127.938 11.61C128.018 11.65 128.098 11.71 128.178 11.79C128.238 11.93 128.288 12.07 128.328 12.21C128.368 12.33 128.368 12.47 128.328 12.63C128.288 12.77 128.278 12.92 128.298 13.08C128.318 13.24 128.318 13.41 128.298 13.59C128.278 13.75 128.278 13.92 128.298 14.1C128.318 14.28 128.338 14.45 128.358 14.61C128.378 14.69 128.388 14.78 128.388 14.88C128.388 14.96 128.398 15.03 128.418 15.09C128.498 15.23 128.538 15.37 128.538 15.51C128.558 15.65 128.558 15.79 128.538 15.93C128.538 16.01 128.538 16.09 128.538 16.17C128.558 16.23 128.568 16.31 128.568 16.41C128.488 16.67 128.418 16.94 128.358 17.22C128.298 17.48 128.208 17.73 128.088 17.97C127.968 18.19 127.848 18.41 127.728 18.63C127.608 18.85 127.468 19.06 127.308 19.26V19.77C127.208 19.83 127.108 19.9 127.008 19.98C126.928 20.04 126.858 20.09 126.798 20.13C126.658 20.37 126.568 20.59 126.528 20.79C126.508 20.97 126.468 21.14 126.408 21.3C126.328 21.38 126.248 21.46 126.168 21.54C126.088 21.62 125.998 21.7 125.898 21.78C125.798 21.86 125.678 21.93 125.538 21.99C125.418 22.03 125.278 22.02 125.118 21.96C124.938 21.92 124.788 21.93 124.668 21.99C124.588 22.01 124.508 22.03 124.428 22.05C124.348 22.07 124.278 22.09 124.218 22.11ZM123.738 15.33C123.698 15.23 123.668 15.14 123.648 15.06C123.648 14.96 123.638 14.86 123.618 14.76C123.618 14.6 123.608 14.47 123.588 14.37C123.548 14.21 123.488 14.04 123.408 13.86C123.348 13.66 123.278 13.47 123.198 13.29C123.178 13.21 123.138 13.13 123.078 13.05C123.038 12.95 122.998 12.86 122.958 12.78C122.798 12.46 122.548 12.27 122.208 12.21C122.148 12.19 122.078 12.17 121.998 12.15C121.918 12.11 121.848 12.07 121.788 12.03C121.668 11.95 121.548 11.89 121.428 11.85C121.308 11.81 121.188 11.78 121.068 11.76C120.908 11.72 120.738 11.68 120.558 11.64C120.378 11.58 120.208 11.54 120.048 11.52C119.848 11.42 119.658 11.43 119.478 11.55C118.938 11.77 118.448 12.06 118.008 12.42C117.568 12.76 117.188 13.23 116.868 13.83C116.808 13.91 116.748 14 116.688 14.1C116.648 14.2 116.608 14.3 116.568 14.4C116.488 14.5 116.418 14.61 116.358 14.73C116.298 14.83 116.248 14.93 116.208 15.03C116.228 15.19 116.298 15.32 116.418 15.42C116.538 15.52 116.608 15.65 116.628 15.81C116.628 15.89 116.598 15.97 116.538 16.05C116.478 16.11 116.438 16.18 116.418 16.26C116.458 16.34 116.508 16.43 116.568 16.53C116.628 16.63 116.678 16.73 116.718 16.83C116.778 16.93 116.818 17.04 116.838 17.16C116.878 17.26 116.908 17.37 116.928 17.49C116.968 17.59 116.998 17.69 117.018 17.79C117.058 17.89 117.088 17.99 117.108 18.09L117.528 18.42C117.588 18.46 117.648 18.52 117.708 18.6C117.788 18.66 117.868 18.71 117.948 18.75C118.188 18.81 118.398 18.87 118.578 18.93C118.738 18.97 118.878 18.99 118.998 18.99C119.118 18.99 119.248 18.99 119.388 18.99C119.388 18.99 119.378 18.99 119.358 18.99C119.358 18.99 119.358 19 119.358 19.02H119.418C119.398 19.02 119.388 19.01 119.388 18.99C119.428 18.95 119.478 18.93 119.538 18.93C119.598 18.91 119.648 18.9 119.688 18.9C119.808 18.9 119.928 18.91 120.048 18.93C120.188 18.93 120.328 18.92 120.468 18.9C120.508 18.86 120.558 18.86 120.618 18.9C120.698 18.92 120.768 18.94 120.828 18.96C120.908 18.96 120.968 18.94 121.008 18.9C121.008 18.82 120.998 18.75 120.978 18.69C120.978 18.63 121.008 18.58 121.068 18.54C121.328 18.4 121.578 18.29 121.818 18.21C121.918 18.13 121.998 18.06 122.058 18C122.138 17.94 122.208 17.87 122.268 17.79C122.348 17.75 122.408 17.7 122.448 17.64C122.508 17.58 122.578 17.54 122.658 17.52C122.838 17.46 122.988 17.38 123.108 17.28C123.248 17.16 123.378 17.04 123.498 16.92C123.518 16.88 123.528 16.85 123.528 16.83C123.548 16.79 123.568 16.75 123.588 16.71C123.808 16.25 123.858 15.79 123.738 15.33ZM147.678 10.8C147.658 11.04 147.658 11.28 147.678 11.52C147.698 11.74 147.688 11.96 147.648 12.18C147.588 12.44 147.548 12.7 147.528 12.96C147.508 13.22 147.488 13.48 147.468 13.74C147.388 13.88 147.318 14.03 147.258 14.19C147.218 14.33 147.158 14.46 147.078 14.58C146.998 14.7 146.918 14.82 146.838 14.94C146.758 15.04 146.668 15.16 146.568 15.3C146.528 15.34 146.508 15.41 146.508 15.51C146.328 15.75 146.128 15.97 145.908 16.17C145.708 16.35 145.478 16.5 145.218 16.62C145.078 16.86 144.938 17.05 144.798 17.19C144.758 17.25 144.688 17.3 144.588 17.34C144.328 17.46 144.038 17.55 143.718 17.61C143.318 17.71 143.038 17.92 142.878 18.24V18.78C142.898 18.86 142.958 18.91 143.058 18.93C143.178 18.95 143.278 19.01 143.358 19.11C143.358 19.13 143.378 19.15 143.418 19.17C143.458 19.19 143.478 19.22 143.478 19.26C143.558 19.6 143.758 19.82 144.078 19.92C144.198 20.08 144.308 20.24 144.408 20.4C144.528 20.54 144.638 20.68 144.738 20.82C144.838 20.88 144.928 20.94 145.008 21C145.108 21.04 145.208 21.09 145.308 21.15C145.348 21.23 145.398 21.33 145.458 21.45C145.538 21.55 145.608 21.65 145.668 21.75C145.748 21.83 145.828 21.9 145.908 21.96C145.988 22 146.038 22.04 146.058 22.08C146.118 22.34 146.108 22.51 146.028 22.59C145.788 22.87 145.628 23.13 145.548 23.37C145.508 23.43 145.468 23.48 145.428 23.52C145.388 23.54 145.348 23.57 145.308 23.61C145.168 23.69 145.018 23.74 144.858 23.76C144.698 23.78 144.568 23.84 144.468 23.94C144.368 24.02 144.258 24.06 144.138 24.06C144.018 24.08 143.908 24.13 143.808 24.21C143.648 24.33 143.498 24.46 143.358 24.6C143.238 24.76 143.078 24.89 142.878 24.99C142.798 24.97 142.698 24.96 142.578 24.96C142.458 24.96 142.348 24.96 142.248 24.96L141.648 24.54C141.568 24.46 141.528 24.41 141.528 24.39C141.488 24.29 141.448 24.19 141.408 24.09C141.368 24.01 141.328 23.93 141.288 23.85C141.268 23.77 141.218 23.7 141.138 23.64C141.058 23.56 140.998 23.48 140.958 23.4V23.16C140.958 23 140.888 22.92 140.748 22.92C140.688 22.9 140.638 22.89 140.598 22.89C140.558 22.89 140.518 22.89 140.478 22.89C140.178 22.67 139.898 22.4 139.638 22.08C139.438 21.88 139.238 21.73 139.038 21.63C138.858 21.51 138.688 21.36 138.528 21.18C138.368 21 138.208 20.82 138.048 20.64C137.948 20.52 137.848 20.4 137.748 20.28C137.648 20.14 137.538 20.03 137.418 19.95C137.238 19.93 137.058 19.93 136.878 19.95C136.698 19.97 136.538 20.02 136.398 20.1C136.358 20.1 136.308 20.15 136.248 20.25C136.228 20.39 136.208 20.53 136.188 20.67C136.168 20.79 136.148 20.92 136.128 21.06C136.208 21.44 136.218 21.83 136.158 22.23C136.098 22.45 136.058 22.67 136.038 22.89C136.038 23.11 136.028 23.33 136.008 23.55C136.008 23.63 136.008 23.72 136.008 23.82C136.008 23.92 135.988 24.01 135.948 24.09C135.908 24.27 135.798 24.39 135.618 24.45H135.498C135.418 24.43 135.338 24.41 135.258 24.39C135.198 24.39 135.118 24.38 135.018 24.36C134.718 24.44 134.408 24.45 134.088 24.39C133.768 24.33 133.448 24.28 133.128 24.24C132.808 24.2 132.498 24.15 132.198 24.09C132.158 24.09 132.118 24.08 132.078 24.06C132.058 24.06 132.028 24.05 131.988 24.03C131.908 23.95 131.868 23.88 131.868 23.82C131.868 23.64 131.858 23.46 131.838 23.28C131.818 23.08 131.788 22.88 131.748 22.68C131.648 22.32 131.668 22.01 131.808 21.75C131.788 21.57 131.768 21.39 131.748 21.21C131.728 21.03 131.728 20.86 131.748 20.7C131.788 20.62 131.788 20.52 131.748 20.4C131.728 20.28 131.678 20.24 131.598 20.28C131.578 20.3 131.548 20.31 131.508 20.31C131.468 20.29 131.448 20.27 131.448 20.25C131.428 20.21 131.408 20.17 131.388 20.13C131.368 20.07 131.348 20.03 131.328 20.01C131.328 19.91 131.328 19.8 131.328 19.68C131.328 19.56 131.318 19.45 131.298 19.35C131.298 19.25 131.298 19.15 131.298 19.05C131.298 18.95 131.278 18.86 131.238 18.78C131.178 18.58 131.148 18.37 131.148 18.15C131.148 17.93 131.148 17.72 131.148 17.52C131.128 17.44 131.108 17.38 131.088 17.34C131.068 17.28 131.038 17.22 130.998 17.16C131.038 17.02 131.068 16.89 131.088 16.77C131.128 16.63 131.098 16.49 130.998 16.35C131.038 16.19 131.048 16.03 131.028 15.87C131.008 15.69 131.048 15.51 131.148 15.33C131.188 15.23 131.198 15.13 131.178 15.03C131.158 14.93 131.138 14.81 131.118 14.67C131.158 14.51 131.208 14.36 131.268 14.22C131.328 14.06 131.378 13.88 131.418 13.68C131.398 13.58 131.368 13.41 131.328 13.17C131.288 13.07 131.258 12.98 131.238 12.9C131.218 12.82 131.198 12.74 131.178 12.66C131.158 12.56 131.168 12.47 131.208 12.39C131.268 12.29 131.278 12.19 131.238 12.09C131.218 11.95 131.208 11.86 131.208 11.82C131.228 11.78 131.278 11.7 131.358 11.58C131.338 11.54 131.328 11.51 131.328 11.49C131.328 11.45 131.318 11.42 131.298 11.4C131.118 11.16 131.078 10.86 131.178 10.5C131.218 10.38 131.258 10.26 131.298 10.14C131.358 10.02 131.398 9.91002 131.418 9.81002C131.398 9.73002 131.378 9.65002 131.358 9.57002C131.358 9.49002 131.348 9.41002 131.328 9.33002L131.538 8.61003C131.498 8.47003 131.468 8.33003 131.448 8.19003C131.428 8.05003 131.398 7.91003 131.358 7.77003C131.358 7.59003 131.438 7.40003 131.598 7.20003C131.678 7.10003 131.758 7.06002 131.838 7.08002C131.938 7.10002 132.058 7.10002 132.198 7.08002C132.338 7.04002 132.478 6.99003 132.618 6.93003C132.778 6.87003 132.948 6.83002 133.128 6.81002C133.308 6.79002 133.478 6.71002 133.638 6.57002C133.798 6.47002 133.958 6.39002 134.118 6.33002C134.278 6.25002 134.438 6.19002 134.598 6.15002C134.918 6.21002 135.118 6.24002 135.198 6.24002C135.298 6.22002 135.458 6.14002 135.678 6.00002H136.218C136.318 5.98002 136.418 5.96003 136.518 5.94003C136.618 5.90003 136.728 5.87003 136.848 5.85003C136.888 5.81003 136.948 5.76003 137.028 5.70003C137.128 5.64003 137.218 5.59002 137.298 5.55002C137.418 5.53002 137.548 5.51002 137.688 5.49002C137.828 5.45002 137.968 5.42002 138.108 5.40002C138.168 5.42002 138.218 5.45002 138.258 5.49002C138.318 5.51002 138.378 5.54002 138.438 5.58002C138.558 5.64002 138.658 5.71003 138.738 5.79003C138.818 5.83003 138.888 5.85003 138.948 5.85003C139.148 5.87003 139.338 5.89002 139.518 5.91002C139.698 5.91002 139.888 5.90002 140.088 5.88002C140.148 5.86002 140.218 5.85003 140.298 5.85003C140.398 5.85003 140.488 5.85003 140.568 5.85003C140.668 5.85003 140.778 5.86002 140.898 5.88002C141.018 5.88002 141.128 5.89002 141.228 5.91002C141.348 5.91002 141.438 5.95003 141.498 6.03003C141.578 6.11003 141.648 6.15002 141.708 6.15002C141.988 6.23002 142.248 6.27003 142.488 6.27003C142.728 6.27003 142.968 6.26002 143.208 6.24002C143.308 6.28002 143.408 6.33002 143.508 6.39002C143.628 6.43002 143.738 6.47003 143.838 6.51003C143.918 6.47003 143.978 6.44002 144.018 6.42002C144.078 6.38002 144.138 6.35002 144.198 6.33002C144.358 6.29002 144.478 6.30003 144.558 6.36003C144.618 6.40003 144.668 6.44002 144.708 6.48002C144.768 6.52002 144.828 6.56003 144.888 6.60003C144.928 6.66003 144.968 6.72003 145.008 6.78003C145.048 6.84003 145.108 6.89003 145.188 6.93003H145.608C145.688 6.95003 145.778 7.03002 145.878 7.17002C145.998 7.31002 146.108 7.45002 146.208 7.59002C146.328 7.73002 146.458 7.88003 146.598 8.04003C146.738 8.18003 146.858 8.34003 146.958 8.52003C147.058 8.68003 147.178 8.84002 147.318 9.00002C147.378 9.04002 147.418 9.10003 147.438 9.18003C147.478 9.26003 147.508 9.34002 147.528 9.42002C147.528 9.66002 147.528 9.90002 147.528 10.14C147.548 10.36 147.598 10.58 147.678 10.8ZM132.918 7.08002V7.05002H132.858L132.918 7.08002ZM143.268 12.45C143.268 12.45 143.258 12.44 143.238 12.42C143.218 12.4 143.208 12.38 143.208 12.36C143.208 12.18 143.178 12.01 143.118 11.85C143.058 11.67 142.948 11.52 142.788 11.4C142.708 11.36 142.648 11.31 142.608 11.25C142.568 11.17 142.518 11.1 142.458 11.04C142.318 10.86 142.158 10.71 141.978 10.59C141.958 10.55 141.918 10.53 141.858 10.53C141.798 10.51 141.748 10.49 141.708 10.47C141.608 10.53 141.438 10.59 141.198 10.65C141.038 10.55 140.868 10.5 140.688 10.5C140.508 10.5 140.318 10.52 140.118 10.56C139.918 10.56 139.708 10.56 139.488 10.56C139.288 10.54 139.088 10.56 138.888 10.62C138.668 10.6 138.448 10.6 138.228 10.62C138.008 10.64 137.788 10.66 137.568 10.68C137.388 10.68 137.258 10.69 137.178 10.71C137.038 10.79 136.898 10.83 136.758 10.83C136.638 10.81 136.508 10.82 136.368 10.86C136.288 10.94 136.238 11.04 136.218 11.16C136.198 11.28 136.168 11.39 136.128 11.49C136.248 11.95 136.228 12.41 136.068 12.87C136.168 13.01 136.238 13.15 136.278 13.29C136.338 13.41 136.338 13.55 136.278 13.71C136.278 13.73 136.278 13.75 136.278 13.77C136.298 13.79 136.308 13.81 136.308 13.83C136.348 13.95 136.368 14.07 136.368 14.19C136.368 14.31 136.348 14.43 136.308 14.55C136.268 14.57 136.218 14.6 136.158 14.64C136.118 14.66 136.078 14.69 136.038 14.73C136.138 14.83 136.258 14.88 136.398 14.88C136.458 14.84 136.528 14.81 136.608 14.79C136.688 14.75 136.768 14.7 136.848 14.64C137.188 14.74 137.528 14.78 137.868 14.76C138.228 14.74 138.568 14.8 138.888 14.94H139.098C139.178 14.94 139.268 14.93 139.368 14.91C139.468 14.89 139.558 14.88 139.638 14.88C139.718 14.82 139.828 14.77 139.968 14.73C140.408 14.61 140.798 14.41 141.138 14.13C141.278 14.03 141.418 13.97 141.558 13.95C141.698 13.91 141.838 13.88 141.978 13.86C142.038 13.86 142.098 13.86 142.158 13.86C142.238 13.86 142.318 13.85 142.398 13.83C142.458 13.67 142.558 13.54 142.698 13.44C142.858 13.32 142.988 13.18 143.088 13.02C143.008 12.92 143.008 12.83 143.088 12.75C143.188 12.67 143.248 12.57 143.268 12.45ZM161.018 20.04C161.038 20.18 161.028 20.34 160.988 20.52C160.968 20.68 160.958 20.84 160.958 21C160.958 21.14 160.948 21.29 160.928 21.45C160.908 21.61 160.878 21.77 160.838 21.93C160.778 22.07 160.758 22.22 160.778 22.38C160.798 22.52 160.798 22.67 160.778 22.83C160.738 22.91 160.688 23 160.628 23.1C160.588 23.2 160.538 23.3 160.478 23.4C160.458 23.48 160.428 23.57 160.388 23.67C160.348 23.75 160.308 23.84 160.268 23.94C160.128 24 159.988 24.06 159.848 24.12C159.728 24.2 159.608 24.26 159.488 24.3C159.228 24.36 158.948 24.37 158.648 24.33C158.368 24.29 158.088 24.31 157.808 24.39C157.768 24.41 157.718 24.43 157.658 24.45C157.618 24.47 157.558 24.5 157.478 24.54C157.398 24.56 157.298 24.58 157.178 24.6C157.078 24.62 156.978 24.64 156.878 24.66C156.798 24.66 156.718 24.66 156.638 24.66C156.578 24.66 156.528 24.65 156.488 24.63C156.368 24.57 156.248 24.54 156.128 24.54C156.028 24.54 155.928 24.56 155.828 24.6C155.748 24.6 155.668 24.59 155.588 24.57C155.508 24.55 155.418 24.53 155.318 24.51C155.218 24.61 155.088 24.69 154.928 24.75C154.768 24.81 154.598 24.82 154.418 24.78C154.238 24.76 154.078 24.8 153.938 24.9C153.818 24.84 153.708 24.79 153.608 24.75C153.528 24.71 153.438 24.68 153.338 24.66C153.198 24.64 153.058 24.65 152.918 24.69C152.798 24.73 152.658 24.74 152.498 24.72C152.338 24.68 152.178 24.68 152.018 24.72C151.878 24.76 151.728 24.78 151.568 24.78C151.408 24.76 151.258 24.75 151.118 24.75C150.978 24.77 150.848 24.8 150.728 24.84C150.708 24.78 150.678 24.73 150.638 24.69C150.598 24.67 150.578 24.65 150.578 24.63C150.438 24.01 150.368 23.34 150.368 22.62C150.408 22.42 150.418 22.23 150.398 22.05C150.378 21.85 150.368 21.64 150.368 21.42C150.228 21.02 150.138 20.62 150.098 20.22C150.078 19.82 150.078 19.41 150.098 18.99C150.118 18.59 150.138 18.18 150.158 17.76C150.178 17.34 150.198 16.91 150.218 16.47C150.218 16.31 150.228 16.14 150.248 15.96C150.268 15.78 150.298 15.61 150.338 15.45C150.418 15.25 150.468 15.05 150.488 14.85C150.508 14.63 150.518 14.41 150.518 14.19C150.518 14.01 150.518 13.83 150.518 13.65C150.518 13.45 150.508 13.25 150.488 13.05C150.488 12.97 150.488 12.88 150.488 12.78C150.488 12.68 150.478 12.58 150.458 12.48C150.418 12.32 150.388 12.16 150.368 12C150.348 11.84 150.338 11.69 150.338 11.55C150.358 11.45 150.358 11.35 150.338 11.25C150.338 11.15 150.328 11.05 150.308 10.95C150.288 10.87 150.288 10.78 150.308 10.68C150.328 10.58 150.328 10.49 150.308 10.41C150.288 10.27 150.278 10.14 150.278 10.02C150.278 9.90003 150.298 9.78002 150.338 9.66002C150.358 9.54002 150.348 9.41003 150.308 9.27003C150.288 9.11003 150.268 8.95003 150.248 8.79003C150.248 8.61003 150.268 8.45002 150.308 8.31002C150.368 8.07002 150.408 7.83002 150.428 7.59002C150.448 7.33002 150.468 7.10002 150.488 6.90002C150.528 6.74002 150.588 6.62003 150.668 6.54003C150.768 6.44003 150.808 6.33002 150.788 6.21002C150.768 6.09002 150.818 6.01002 150.938 5.97002C151.058 5.91002 151.068 5.81002 150.968 5.67002C151.108 5.67002 151.188 5.68003 151.208 5.70003C151.588 5.86003 151.918 5.88003 152.198 5.76003C152.318 5.78003 152.438 5.80002 152.558 5.82002C152.678 5.84002 152.788 5.85003 152.888 5.85003C152.988 5.87003 153.098 5.87003 153.218 5.85003C153.338 5.83003 153.448 5.81003 153.548 5.79003C153.788 5.73003 154.018 5.68002 154.238 5.64002C154.478 5.58002 154.718 5.55002 154.958 5.55002C155.178 5.51002 155.378 5.51002 155.558 5.55002C155.618 5.55002 155.708 5.59002 155.828 5.67002C155.808 5.75002 155.788 5.83002 155.768 5.91002C155.768 5.99002 155.758 6.07002 155.738 6.15002C155.758 6.25002 155.778 6.36002 155.798 6.48002C155.838 6.58002 155.858 6.69002 155.858 6.81002C155.878 6.91002 155.908 7.02002 155.948 7.14002C156.008 7.24002 156.058 7.35002 156.098 7.47002C156.038 7.59002 155.978 7.73002 155.918 7.89002C155.858 8.03002 155.798 8.17002 155.738 8.31002C155.778 8.39002 155.808 8.47002 155.828 8.55002C155.848 8.61002 155.868 8.68003 155.888 8.76003C155.808 9.12003 155.728 9.48002 155.648 9.84002C155.588 10.2 155.548 10.57 155.528 10.95C155.508 11.05 155.478 11.16 155.438 11.28C155.418 11.38 155.388 11.5 155.348 11.64C155.388 11.72 155.428 11.81 155.468 11.91C155.508 11.99 155.538 12.08 155.558 12.18L155.438 12.78C155.438 12.86 155.438 12.95 155.438 13.05C155.438 13.13 155.418 13.2 155.378 13.26C155.318 13.4 155.278 13.54 155.258 13.68C155.258 13.82 155.238 13.97 155.198 14.13C155.198 14.39 155.188 14.66 155.168 14.94C155.148 15.2 155.148 15.47 155.168 15.75C155.168 15.93 155.138 16.1 155.078 16.26C155.038 16.4 154.998 16.57 154.958 16.77C154.998 16.85 155.028 16.93 155.048 17.01C155.068 17.09 155.088 17.18 155.108 17.28C155.088 17.38 155.058 17.49 155.018 17.61C154.998 17.71 154.968 17.82 154.928 17.94C154.988 18.08 155.048 18.22 155.108 18.36C155.168 18.5 155.228 18.65 155.288 18.81C155.328 18.89 155.358 18.97 155.378 19.05C155.398 19.11 155.418 19.18 155.438 19.26C155.498 19.42 155.558 19.52 155.618 19.56C155.698 19.6 155.808 19.61 155.948 19.59C156.228 19.51 156.518 19.45 156.818 19.41C157.118 19.37 157.418 19.32 157.718 19.26C157.778 19.24 157.878 19.23 158.018 19.23C158.198 19.23 158.378 19.21 158.558 19.17C158.758 19.13 158.938 19.06 159.098 18.96C159.458 18.74 159.828 18.66 160.208 18.72C160.308 18.74 160.408 18.74 160.508 18.72C160.608 18.7 160.708 18.71 160.808 18.75C160.828 18.77 160.848 18.81 160.868 18.87C160.888 18.91 160.898 18.95 160.898 18.99C160.958 19.17 160.988 19.35 160.988 19.53C161.008 19.69 161.018 19.86 161.018 20.04ZM179.329 14.43C179.369 14.57 179.359 14.71 179.299 14.85C179.239 14.99 179.229 15.14 179.269 15.3C179.269 15.38 179.249 15.46 179.209 15.54C179.209 15.58 179.199 15.62 179.179 15.66C179.159 15.68 179.149 15.7 179.149 15.72C179.169 16.04 179.169 16.26 179.149 16.38C179.149 16.48 179.099 16.69 178.999 17.01C179.019 17.09 179.029 17.19 179.029 17.31C179.049 17.41 179.069 17.52 179.089 17.64C179.069 17.78 179.019 17.96 178.939 18.18C178.879 18.14 178.819 18.11 178.759 18.09C178.719 18.07 178.679 18.05 178.639 18.03C178.519 17.99 178.459 18.04 178.459 18.18C178.459 18.32 178.479 18.45 178.519 18.57C178.579 18.67 178.649 18.77 178.729 18.87C178.689 19.03 178.649 19.2 178.609 19.38C178.589 19.56 178.559 19.75 178.519 19.95C178.419 20.13 178.309 20.32 178.189 20.52C178.069 20.7 177.909 20.84 177.709 20.94C177.689 21.04 177.669 21.13 177.649 21.21C177.629 21.27 177.599 21.35 177.559 21.45C177.379 21.59 177.199 21.74 177.019 21.9C176.839 22.04 176.689 22.19 176.569 22.35C176.469 22.43 176.379 22.46 176.299 22.44C176.219 22.42 176.139 22.42 176.059 22.44C175.919 22.54 175.779 22.64 175.639 22.74C175.519 22.84 175.389 22.94 175.249 23.04C175.109 23.12 174.979 23.21 174.859 23.31C174.739 23.41 174.609 23.51 174.469 23.61H174.019C173.919 23.69 173.829 23.76 173.749 23.82C173.669 23.86 173.579 23.91 173.479 23.97C173.419 23.97 173.369 23.98 173.329 24C173.309 24 173.279 23.99 173.239 23.97C173.039 23.95 172.899 23.96 172.819 24C172.739 24.02 172.579 24.08 172.339 24.18C172.159 24.24 171.979 24.3 171.799 24.36C171.619 24.44 171.439 24.52 171.259 24.6C171.039 24.5 170.809 24.45 170.569 24.45C170.349 24.45 170.119 24.45 169.879 24.45C169.759 24.37 169.639 24.3 169.519 24.24C169.439 24.2 169.369 24.17 169.309 24.15C169.269 24.13 169.209 24.11 169.129 24.09C169.089 24.09 169.029 24.09 168.949 24.09C168.889 24.09 168.819 24.11 168.739 24.15C168.699 24.17 168.649 24.2 168.589 24.24C168.529 24.28 168.479 24.33 168.439 24.39C168.059 24.33 167.669 24.27 167.269 24.21C166.869 24.17 166.469 24.11 166.069 24.03C165.909 23.99 165.749 23.95 165.589 23.91C165.449 23.85 165.299 23.8 165.139 23.76C165.019 23.78 164.899 23.8 164.779 23.82C164.659 23.84 164.529 23.87 164.389 23.91C164.069 23.95 163.839 23.81 163.699 23.49C163.699 23.45 163.689 23.41 163.669 23.37C163.669 23.33 163.669 23.3 163.669 23.28C163.709 23.06 163.749 22.85 163.789 22.65C163.829 22.45 163.859 22.26 163.879 22.08C163.879 22.04 163.919 21.98 163.999 21.9V21.78C163.919 21.72 163.839 21.66 163.759 21.6C163.699 21.54 163.639 21.48 163.579 21.42L163.549 18.72V18.69H163.759C163.739 18.65 163.709 18.62 163.669 18.6C163.629 18.56 163.589 18.53 163.549 18.51C163.549 18.51 163.579 18.42 163.639 18.24C163.699 18.06 163.739 17.93 163.759 17.85C163.799 17.73 163.789 17.63 163.729 17.55C163.689 17.47 163.659 17.39 163.639 17.31C163.679 17.23 163.719 17.16 163.759 17.1C163.799 17.02 163.829 16.94 163.849 16.86C163.829 16.76 163.799 16.67 163.759 16.59C163.719 16.51 163.679 16.43 163.639 16.35C163.619 16.25 163.619 16.15 163.639 16.05C163.679 15.93 163.699 15.83 163.699 15.75C163.739 15.65 163.749 15.55 163.729 15.45C163.709 15.35 163.699 15.23 163.699 15.09C163.639 14.87 163.549 14.63 163.429 14.37C163.489 14.25 163.539 14.13 163.579 14.01C163.619 13.89 163.659 13.77 163.699 13.65L163.609 13.23C163.649 13.07 163.689 12.91 163.729 12.75C163.789 12.57 163.829 12.41 163.849 12.27C163.769 11.97 163.729 11.68 163.729 11.4C163.749 11.1 163.759 10.8 163.759 10.5C163.759 10.34 163.809 10.16 163.909 9.96002C163.949 9.92002 163.969 9.88002 163.969 9.84002C163.989 9.78002 164.009 9.74002 164.029 9.72002C163.929 9.52002 163.869 9.37003 163.849 9.27003C163.849 9.15003 163.869 9.03002 163.909 8.91002C163.949 8.77002 163.919 8.65002 163.819 8.55002C163.759 8.33002 163.739 8.13003 163.759 7.95003C163.779 7.75003 163.809 7.55003 163.849 7.35003C163.949 7.25003 164.029 7.15002 164.089 7.05002C164.169 6.93002 164.249 6.81003 164.329 6.69003C164.429 6.67003 164.529 6.65002 164.629 6.63002C164.749 6.59002 164.849 6.58003 164.929 6.60003C165.249 6.66003 165.589 6.61003 165.949 6.45003C166.049 6.39003 166.149 6.37002 166.249 6.39002C166.369 6.41002 166.489 6.44002 166.609 6.48002C166.989 6.42002 167.369 6.36002 167.749 6.30002C168.129 6.24002 168.499 6.16002 168.859 6.06002C168.959 6.02002 169.059 6.01003 169.159 6.03003C169.259 6.05003 169.379 6.06002 169.519 6.06002L170.059 5.82002C170.159 5.84002 170.259 5.87002 170.359 5.91002C170.459 5.93002 170.559 5.96002 170.659 6.00002C170.779 5.98002 170.899 5.95002 171.019 5.91002C171.139 5.87002 171.269 5.84002 171.409 5.82002C171.489 5.86002 171.569 5.91002 171.649 5.97002C171.729 6.03002 171.809 6.08003 171.889 6.12003C172.109 6.10003 172.309 6.06002 172.489 6.00002C172.689 5.94002 172.889 5.90002 173.089 5.88002C173.169 5.96002 173.229 6.05002 173.269 6.15002C173.309 6.23002 173.369 6.30003 173.449 6.36003C173.529 6.46003 173.639 6.51003 173.779 6.51003C173.939 6.49003 174.049 6.42002 174.109 6.30002C174.149 6.20002 174.209 6.16003 174.289 6.18003C174.389 6.20003 174.489 6.29003 174.589 6.45003C174.709 6.45003 174.829 6.44002 174.949 6.42002C175.069 6.40002 175.199 6.39002 175.339 6.39002C175.439 6.45002 175.519 6.51002 175.579 6.57002C175.659 6.61002 175.739 6.67002 175.819 6.75002C175.899 6.83002 175.979 6.91002 176.059 6.99002C176.139 7.05002 176.229 7.11002 176.329 7.17002C176.449 7.23002 176.529 7.32003 176.569 7.44003C176.649 7.56003 176.739 7.68002 176.839 7.80002C176.959 7.90002 177.069 8.00003 177.169 8.10003C177.329 8.28003 177.569 8.42003 177.889 8.52003C177.929 8.54003 177.969 8.56002 178.009 8.58002C178.069 8.60002 178.109 8.62002 178.129 8.64002C178.169 8.80002 178.209 8.96003 178.249 9.12003C178.309 9.26003 178.349 9.41002 178.369 9.57002C178.349 9.75002 178.319 9.90003 178.279 10.02C178.319 10.2 178.399 10.35 178.519 10.47C178.639 10.57 178.749 10.68 178.849 10.8C179.129 11.24 179.269 11.75 179.269 12.33C179.269 12.53 179.279 12.73 179.299 12.93C179.319 13.11 179.309 13.29 179.269 13.47C179.249 13.63 179.259 13.79 179.299 13.95C179.359 14.11 179.369 14.27 179.329 14.43ZM174.889 13.86C174.849 13.76 174.789 13.66 174.709 13.56C174.649 13.44 174.599 13.32 174.559 13.2C174.499 13.08 174.449 12.96 174.409 12.84C174.369 12.7 174.329 12.56 174.289 12.42C173.969 12.38 173.689 12.28 173.449 12.12C173.229 11.96 173.009 11.8 172.789 11.64H172.339C172.139 11.48 171.949 11.34 171.769 11.22C171.589 11.08 171.399 10.94 171.199 10.8C170.859 10.76 170.519 10.76 170.179 10.8C169.859 10.82 169.559 10.8 169.279 10.74C169.099 10.8 168.939 10.85 168.799 10.89C168.679 10.91 168.559 10.94 168.439 10.98C168.319 11.06 168.239 11.12 168.199 11.16C168.139 11.46 168.119 11.76 168.139 12.06C168.159 12.36 168.179 12.66 168.199 12.96C168.279 13.08 168.289 13.2 168.229 13.32C168.189 13.42 168.179 13.52 168.199 13.62C168.219 13.68 168.229 13.74 168.229 13.8C168.249 13.86 168.269 13.94 168.289 14.04C168.249 14.16 168.219 14.29 168.199 14.43C168.199 14.55 168.189 14.69 168.169 14.85C168.169 15.17 168.139 15.47 168.079 15.75C168.139 15.85 168.189 15.95 168.229 16.05C168.269 16.13 168.309 16.22 168.349 16.32C168.289 16.5 168.219 16.69 168.139 16.89C168.079 17.07 168.029 17.24 167.989 17.4C167.989 17.5 167.989 17.6 167.989 17.7C168.009 17.8 168.009 17.9 167.989 18C167.969 18.24 167.909 18.48 167.809 18.72L167.929 18.93C168.049 19.23 168.289 19.34 168.649 19.26C168.869 19.26 169.049 19.23 169.189 19.17C169.329 19.13 169.459 19.13 169.579 19.17C169.719 19.19 169.859 19.19 169.999 19.17C170.159 19.13 170.329 19.08 170.509 19.02C170.709 18.94 170.889 18.87 171.049 18.81C171.149 18.79 171.239 18.77 171.319 18.75C171.399 18.73 171.479 18.73 171.559 18.75C171.739 18.77 171.929 18.77 172.129 18.75C172.329 18.73 172.529 18.71 172.729 18.69C172.769 18.65 172.829 18.62 172.909 18.6C172.989 18.56 173.059 18.52 173.119 18.48C173.419 18.34 173.679 18.11 173.899 17.79C173.999 17.65 174.079 17.5 174.139 17.34C174.219 17.16 174.299 17 174.379 16.86C174.539 16.52 174.659 16.19 174.739 15.87C174.819 15.53 174.839 15.18 174.799 14.82C174.779 14.74 174.769 14.66 174.769 14.58C174.789 14.5 174.809 14.42 174.829 14.34C174.849 14.26 174.869 14.18 174.889 14.1C174.909 14.02 174.909 13.94 174.889 13.86Z" fill="#99D3F4"/>
</svg>
